<svg width="1087" height="741" viewBox="0 0 1087 741" fill="none" xmlns="http://www.w3.org/2000/svg">
<rect x="394.081" y="21.5" width="413" height="203" rx="16.5" fill="#F2F2F2" stroke="#00D563" stroke-width="7"/>
<path d="M515.172 100.75C515.172 98.6501 515.592 96.7801 516.432 95.1401C517.292 93.5001 518.512 92.2301 520.092 91.3301C521.672 90.4101 523.532 89.9501 525.672 89.9501C527.512 89.9501 529.152 90.3001 530.592 91.0001C532.052 91.6801 533.232 92.6501 534.132 93.9101C535.052 95.1701 535.662 96.6401 535.962 98.3201H528.942C528.622 97.6201 528.162 97.0801 527.562 96.7001C526.982 96.3001 526.312 96.1001 525.552 96.1001C524.432 96.1001 523.542 96.5201 522.882 97.3601C522.242 98.2001 521.922 99.3301 521.922 100.75C521.922 102.17 522.242 103.3 522.882 104.14C523.542 104.98 524.432 105.4 525.552 105.4C526.312 105.4 526.982 105.21 527.562 104.83C528.162 104.43 528.622 103.88 528.942 103.18H535.962C535.662 104.86 535.052 106.33 534.132 107.59C533.232 108.85 532.052 109.83 530.592 110.53C529.152 111.21 527.512 111.55 525.672 111.55C523.532 111.55 521.672 111.1 520.092 110.2C518.512 109.28 517.292 108 516.432 106.36C515.592 104.72 515.172 102.85 515.172 100.75ZM551.98 108.19H544.9L543.85 111.4H536.86L544.63 90.1601H552.31L560.05 111.4H553.03L551.98 108.19ZM550.36 103.18L548.44 97.2701L546.52 103.18H550.36ZM587.093 90.1601V111.4H580.463V100.81L577.193 111.4H571.493L568.223 100.81V111.4H561.563V90.1601H569.723L574.403 102.91L578.963 90.1601H587.093ZM607.468 97.4501C607.468 98.7901 607.158 100.01 606.538 101.11C605.918 102.19 604.998 103.05 603.778 103.69C602.578 104.33 601.118 104.65 599.398 104.65H596.758V111.4H590.098V90.1601H599.398C601.998 90.1601 603.988 90.8201 605.368 92.1401C606.768 93.4601 607.468 95.2301 607.468 97.4501ZM598.648 99.4001C600.028 99.4001 600.718 98.7501 600.718 97.4501C600.718 96.1501 600.028 95.5001 598.648 95.5001H596.758V99.4001H598.648ZM623.201 108.19H616.121L615.071 111.4H608.081L615.851 90.1601H623.531L631.271 111.4H624.251L623.201 108.19ZM621.581 103.18L619.661 97.2701L617.741 103.18H621.581ZM639.444 90.1601V111.4H632.784V90.1601H639.444ZM655.472 97.4201C655.212 97.0001 654.842 96.6801 654.362 96.4601C653.882 96.2201 653.302 96.1001 652.622 96.1001C651.342 96.1001 650.352 96.5201 649.652 97.3601C648.952 98.1801 648.602 99.3101 648.602 100.75C648.602 102.41 648.992 103.65 649.772 104.47C650.552 105.29 651.752 105.7 653.372 105.7C654.912 105.7 656.152 105.08 657.092 103.84H651.782V99.1301H662.612V105.79C661.692 107.37 660.422 108.73 658.802 109.87C657.182 110.99 655.132 111.55 652.652 111.55C650.452 111.55 648.532 111.1 646.892 110.2C645.272 109.28 644.022 108 643.142 106.36C642.282 104.72 641.852 102.85 641.852 100.75C641.852 98.6501 642.282 96.7801 643.142 95.1401C644.022 93.5001 645.272 92.2301 646.892 91.3301C648.512 90.4101 650.412 89.9501 652.592 89.9501C655.372 89.9501 657.632 90.6201 659.372 91.9601C661.132 93.3001 662.172 95.1201 662.492 97.4201H655.472ZM685.38 111.4H678.72L671.67 100.72V111.4H665.01V90.1601H671.67L678.72 101.02V90.1601H685.38V111.4ZM530.407 161.98V161.71C526.237 157.42 524.107 151.51 524.107 145.42C524.107 139.3 526.237 133 530.857 128.65V128.38H528.007C523.747 132.31 521.467 138.64 521.467 145.42C521.467 152.17 523.747 158.23 527.557 161.98H530.407ZM549.76 148.15C549.76 142.96 546.13 139.69 541.45 139.69C536.8 139.69 533.14 142.96 533.14 148.15C533.14 153.37 536.68 156.67 541.33 156.67C546.01 156.67 549.76 153.37 549.76 148.15ZM535.93 148.15C535.93 144.01 538.54 142.06 541.42 142.06C544.24 142.06 546.97 144.01 546.97 148.15C546.97 152.32 544.18 154.27 541.33 154.27C538.48 154.27 535.93 152.32 535.93 148.15ZM556.08 143.02V134.2H553.35V156.4H556.08V153.37C557.1 155.17 559.23 156.67 562.23 156.67C566.64 156.67 570.03 153.22 570.03 148.12C570.03 142.99 566.67 139.69 562.23 139.69C559.32 139.69 557.13 141.19 556.08 143.02ZM567.24 148.12C567.24 151.99 564.69 154.27 561.66 154.27C558.69 154.27 556.08 152.02 556.08 148.15C556.08 144.34 558.69 142.06 561.66 142.06C564.69 142.06 567.24 144.25 567.24 148.12ZM575.093 137.29C576.113 137.29 576.923 136.48 576.923 135.43C576.923 134.38 576.113 133.57 575.093 133.57C574.073 133.57 573.263 134.38 573.263 135.43C573.263 136.48 574.073 137.29 575.093 137.29ZM573.713 139.96V159.91C573.713 161.35 573.143 161.89 571.643 161.89H570.503V164.2H572.093C574.883 164.2 576.443 162.94 576.443 159.97V139.96H573.713ZM588.054 142C590.874 142 593.274 143.77 593.244 146.98H582.864C583.164 143.77 585.384 142 588.054 142ZM595.734 151.33H592.794C592.194 153.1 590.634 154.36 588.174 154.36C585.384 154.36 583.044 152.53 582.834 149.2H595.974C596.034 148.63 596.064 148.15 596.064 147.55C596.064 143.05 592.944 139.69 588.174 139.69C583.374 139.69 580.044 142.96 580.044 148.15C580.044 153.37 583.494 156.67 588.174 156.67C592.254 156.67 594.894 154.33 595.734 151.33ZM598.648 148.15C598.648 153.37 601.978 156.67 606.658 156.67C610.738 156.67 613.408 154.39 614.248 151.12H611.308C610.708 153.19 609.088 154.36 606.658 154.36C603.658 154.36 601.438 152.23 601.438 148.15C601.438 144.13 603.658 142 606.658 142C609.088 142 610.738 143.26 611.308 145.24H614.248C613.408 141.79 610.738 139.69 606.658 139.69C601.978 139.69 598.648 142.99 598.648 148.15ZM618.491 151.9C618.491 155.2 620.141 156.4 623.051 156.4H625.511V154.09H623.501C621.821 154.09 621.221 153.52 621.221 151.9V142.21H625.511V139.96H621.221V135.82H618.491V139.96H616.361V142.21H618.491V151.9ZM628.818 156.4H631.548V139.96H628.818V156.4ZM630.228 137.29C631.218 137.29 632.028 136.48 632.028 135.43C632.028 134.38 631.218 133.57 630.228 133.57C629.178 133.57 628.368 134.38 628.368 135.43C628.368 136.48 629.178 137.29 630.228 137.29ZM634.251 139.96L640.701 156.4H643.881L650.331 139.96H647.421L642.321 153.88L637.191 139.96H634.251ZM660.008 142C662.828 142 665.228 143.77 665.198 146.98H654.818C655.118 143.77 657.338 142 660.008 142ZM667.688 151.33H664.748C664.148 153.1 662.588 154.36 660.128 154.36C657.338 154.36 654.998 152.53 654.788 149.2H667.928C667.988 148.63 668.018 148.15 668.018 147.55C668.018 143.05 664.898 139.69 660.128 139.69C655.328 139.69 651.998 142.96 651.998 148.15C651.998 153.37 655.448 156.67 660.128 156.67C664.208 156.67 666.848 154.33 667.688 151.33ZM670.751 161.98V161.71C674.921 157.42 677.051 151.51 677.051 145.42C677.051 139.3 674.921 133 670.301 128.65V128.38H673.151C677.411 132.31 679.691 138.64 679.691 145.42C679.691 152.17 677.411 158.23 673.601 161.98H670.751Z" fill="black"/>
<rect x="115.549" y="374.382" width="419.776" height="108.329" rx="54.1647" fill="#00D563"/>
<path d="M288.306 411.482H281.226L280.176 414.692H273.186L280.956 393.452H288.636L296.376 414.692H289.356L288.306 411.482ZM286.686 406.472L284.766 400.562L282.846 406.472H286.686ZM306.739 393.452C308.959 393.452 310.899 393.902 312.559 394.802C314.239 395.702 315.529 396.952 316.429 398.552C317.329 400.152 317.779 401.972 317.779 404.012C317.779 406.032 317.329 407.852 316.429 409.472C315.529 411.092 314.239 412.372 312.559 413.312C310.899 414.232 308.959 414.692 306.739 414.692H297.889V393.452H306.739ZM306.139 408.752C307.639 408.752 308.829 408.342 309.709 407.522C310.589 406.702 311.029 405.532 311.029 404.012C311.029 402.492 310.589 401.322 309.709 400.502C308.829 399.682 307.639 399.272 306.139 399.272H304.549V408.752H306.139ZM333.592 414.902C331.052 414.902 328.952 414.312 327.292 413.132C325.652 411.932 324.762 410.182 324.622 407.882H331.702C331.802 409.102 332.342 409.712 333.322 409.712C333.682 409.712 333.982 409.632 334.222 409.472C334.482 409.292 334.612 409.022 334.612 408.662C334.612 408.162 334.342 407.762 333.802 407.462C333.262 407.142 332.422 406.782 331.282 406.382C329.922 405.902 328.792 405.432 327.892 404.972C327.012 404.512 326.252 403.842 325.612 402.962C324.972 402.082 324.662 400.952 324.682 399.572C324.682 398.192 325.032 397.022 325.732 396.062C326.452 395.082 327.422 394.342 328.642 393.842C329.882 393.342 331.272 393.092 332.812 393.092C335.412 393.092 337.472 393.692 338.992 394.892C340.532 396.092 341.342 397.782 341.422 399.962H334.252C334.232 399.362 334.082 398.932 333.802 398.672C333.522 398.412 333.182 398.282 332.782 398.282C332.502 398.282 332.272 398.382 332.092 398.582C331.912 398.762 331.822 399.022 331.822 399.362C331.822 399.842 332.082 400.242 332.602 400.562C333.142 400.862 333.992 401.232 335.152 401.672C336.492 402.172 337.592 402.652 338.452 403.112C339.332 403.572 340.092 404.212 340.732 405.032C341.372 405.852 341.692 406.882 341.692 408.122C341.692 409.422 341.372 410.592 340.732 411.632C340.092 412.652 339.162 413.452 337.942 414.032C336.722 414.612 335.272 414.902 333.592 414.902ZM350.692 398.762V401.372H357.292V406.382H350.692V409.382H358.192V414.692H344.032V393.452H358.192V398.762H350.692ZM377.382 393.452V398.732H371.742V414.692H365.082V398.732H359.502V393.452H377.382ZM171.143 445.04C169.967 443.912 169.061 442.478 168.425 440.738C167.801 438.998 167.489 437.132 167.489 435.14C167.489 433.1 167.825 431.174 168.497 429.362C169.181 427.55 170.183 426.056 171.503 424.88H173.627V425.078C172.247 426.35 171.209 427.874 170.513 429.65C169.817 431.426 169.469 433.256 169.469 435.14C169.469 436.952 169.793 438.704 170.441 440.396C171.089 442.088 172.031 443.57 173.267 444.842V445.04H171.143ZM183.008 439.136H177.77L176.87 441.692H174.728L179.21 429.164H181.586L186.068 441.692H183.908L183.008 439.136ZM182.432 437.462L180.398 431.648L178.346 437.462H182.432ZM190.051 429.182V437.156C190.051 438.104 190.297 438.818 190.789 439.298C191.293 439.778 191.989 440.018 192.877 440.018C193.777 440.018 194.473 439.778 194.965 439.298C195.469 438.818 195.721 438.104 195.721 437.156V429.182H197.773V437.12C197.773 438.14 197.551 439.004 197.107 439.712C196.663 440.42 196.069 440.948 195.325 441.296C194.581 441.644 193.759 441.818 192.859 441.818C191.959 441.818 191.137 441.644 190.393 441.296C189.661 440.948 189.079 440.42 188.647 439.712C188.215 439.004 187.999 438.14 187.999 437.12V429.182H190.051ZM204.53 429.182C205.862 429.182 207.026 429.44 208.022 429.956C209.03 430.46 209.804 431.192 210.344 432.152C210.896 433.1 211.172 434.21 211.172 435.482C211.172 436.754 210.896 437.858 210.344 438.794C209.804 439.73 209.03 440.45 208.022 440.954C207.026 441.446 205.862 441.692 204.53 441.692H200.444V429.182H204.53ZM204.53 440.018C205.994 440.018 207.116 439.622 207.896 438.83C208.676 438.038 209.066 436.922 209.066 435.482C209.066 434.03 208.676 432.896 207.896 432.08C207.116 431.264 205.994 430.856 204.53 430.856H202.496V440.018H204.53ZM215.258 429.182V441.692H213.206V429.182H215.258ZM220.004 430.838V434.51H224.324V436.184H220.004V440.018H224.864V441.692H217.952V429.164H224.864V430.838H220.004ZM237.67 441.692H235.618L229.444 432.35V441.692H227.392V429.164H229.444L235.618 438.488V429.164H237.67V441.692ZM239.68 435.41C239.68 434.186 239.962 433.088 240.526 432.116C241.102 431.144 241.876 430.388 242.848 429.848C243.832 429.296 244.906 429.02 246.07 429.02C247.402 429.02 248.584 429.35 249.616 430.01C250.66 430.658 251.416 431.582 251.884 432.782H249.418C249.094 432.122 248.644 431.63 248.068 431.306C247.492 430.982 246.826 430.82 246.07 430.82C245.242 430.82 244.504 431.006 243.856 431.378C243.208 431.75 242.698 432.284 242.326 432.98C241.966 433.676 241.786 434.486 241.786 435.41C241.786 436.334 241.966 437.144 242.326 437.84C242.698 438.536 243.208 439.076 243.856 439.46C244.504 439.832 245.242 440.018 246.07 440.018C246.826 440.018 247.492 439.856 248.068 439.532C248.644 439.208 249.094 438.716 249.418 438.056H251.884C251.416 439.256 250.66 440.18 249.616 440.828C248.584 441.476 247.402 441.8 246.07 441.8C244.894 441.8 243.82 441.53 242.848 440.99C241.876 440.438 241.102 439.676 240.526 438.704C239.962 437.732 239.68 436.634 239.68 435.41ZM256.338 430.838V434.51H260.658V436.184H256.338V440.018H261.198V441.692H254.286V429.164H261.198V430.838H256.338ZM265.976 439.226L263.798 444.194H262.466L263.744 439.226H265.976ZM281.192 432.908C281.192 433.544 281.042 434.144 280.742 434.708C280.442 435.272 279.962 435.734 279.302 436.094C278.642 436.442 277.796 436.616 276.764 436.616H274.496V441.692H272.444V429.182H276.764C277.724 429.182 278.534 429.35 279.194 429.686C279.866 430.01 280.364 430.454 280.688 431.018C281.024 431.582 281.192 432.212 281.192 432.908ZM276.764 434.942C277.544 434.942 278.126 434.768 278.51 434.42C278.894 434.06 279.086 433.556 279.086 432.908C279.086 431.54 278.312 430.856 276.764 430.856H274.496V434.942H276.764ZM285.202 440.036H289.432V441.692H283.15V429.182H285.202V440.036ZM298.69 439.136H293.452L292.552 441.692H290.41L294.892 429.164H297.268L301.75 441.692H299.59L298.69 439.136ZM298.114 437.462L296.08 431.648L294.028 437.462H298.114ZM303.014 435.41C303.014 434.186 303.296 433.088 303.86 432.116C304.436 431.144 305.21 430.388 306.182 429.848C307.166 429.296 308.24 429.02 309.404 429.02C310.736 429.02 311.918 429.35 312.95 430.01C313.994 430.658 314.75 431.582 315.218 432.782H312.752C312.428 432.122 311.978 431.63 311.402 431.306C310.826 430.982 310.16 430.82 309.404 430.82C308.576 430.82 307.838 431.006 307.19 431.378C306.542 431.75 306.032 432.284 305.66 432.98C305.3 433.676 305.12 434.486 305.12 435.41C305.12 436.334 305.3 437.144 305.66 437.84C306.032 438.536 306.542 439.076 307.19 439.46C307.838 439.832 308.576 440.018 309.404 440.018C310.16 440.018 310.826 439.856 311.402 439.532C311.978 439.208 312.428 438.716 312.752 438.056H315.218C314.75 439.256 313.994 440.18 312.95 440.828C311.918 441.476 310.736 441.8 309.404 441.8C308.228 441.8 307.154 441.53 306.182 440.99C305.21 440.438 304.436 439.676 303.86 438.704C303.296 437.732 303.014 436.634 303.014 435.41ZM319.672 430.838V434.51H323.992V436.184H319.672V440.018H324.532V441.692H317.62V429.164H324.532V430.838H319.672ZM340.236 429.182V441.692H338.184V433.124L334.368 441.692H332.946L329.112 433.124V441.692H327.06V429.182H329.274L333.666 438.992L338.04 429.182H340.236ZM344.985 430.838V434.51H349.305V436.184H344.985V440.018H349.845V441.692H342.933V429.164H349.845V430.838H344.985ZM362.65 441.692H360.598L354.424 432.35V441.692H352.372V429.164H354.424L360.598 438.488V429.164H362.65V441.692ZM373.427 429.182V430.856H370.097V441.692H368.045V430.856H364.697V429.182H373.427ZM389.847 441.692L388.299 440.144C387.699 440.744 387.045 441.194 386.337 441.494C385.629 441.782 384.837 441.926 383.961 441.926C383.073 441.926 382.287 441.77 381.603 441.458C380.919 441.146 380.391 440.702 380.019 440.126C379.647 439.538 379.461 438.86 379.461 438.092C379.461 437.228 379.707 436.46 380.199 435.788C380.691 435.104 381.423 434.564 382.395 434.168C382.047 433.748 381.801 433.358 381.657 432.998C381.513 432.626 381.441 432.218 381.441 431.774C381.441 431.222 381.579 430.73 381.855 430.298C382.143 429.866 382.551 429.524 383.079 429.272C383.607 429.02 384.219 428.894 384.915 428.894C385.623 428.894 386.223 429.032 386.715 429.308C387.219 429.572 387.591 429.938 387.831 430.406C388.083 430.874 388.185 431.396 388.137 431.972H386.085C386.097 431.528 385.989 431.186 385.761 430.946C385.533 430.694 385.221 430.568 384.825 430.568C384.429 430.568 384.105 430.688 383.853 430.928C383.613 431.156 383.493 431.438 383.493 431.774C383.493 432.098 383.583 432.422 383.763 432.746C383.955 433.058 384.285 433.466 384.753 433.97L388.065 437.264L389.343 435.158H391.557L389.937 437.93L389.487 438.668L392.529 441.692H389.847ZM383.961 440.18C385.089 440.18 386.085 439.718 386.949 438.794L383.637 435.464C382.221 436.028 381.513 436.88 381.513 438.02C381.513 438.632 381.741 439.148 382.197 439.568C382.653 439.976 383.241 440.18 383.961 440.18ZM405.246 435.266C405.918 435.386 406.488 435.74 406.956 436.328C407.424 436.916 407.658 437.582 407.658 438.326C407.658 438.962 407.49 439.538 407.154 440.054C406.83 440.558 406.356 440.96 405.732 441.26C405.108 441.548 404.382 441.692 403.554 441.692H398.55V429.182H403.32C404.172 429.182 404.904 429.326 405.516 429.614C406.128 429.902 406.59 430.292 406.902 430.784C407.214 431.264 407.37 431.804 407.37 432.404C407.37 433.124 407.178 433.724 406.794 434.204C406.41 434.684 405.894 435.038 405.246 435.266ZM400.602 434.438H403.14C403.812 434.438 404.334 434.288 404.706 433.988C405.09 433.676 405.282 433.232 405.282 432.656C405.282 432.092 405.09 431.654 404.706 431.342C404.334 431.018 403.812 430.856 403.14 430.856H400.602V434.438ZM403.374 440.018C404.07 440.018 404.616 439.85 405.012 439.514C405.408 439.178 405.606 438.71 405.606 438.11C405.606 437.498 405.396 437.012 404.976 436.652C404.556 436.292 403.998 436.112 403.302 436.112H400.602V440.018H403.374ZM411.922 429.182V437.156C411.922 438.104 412.168 438.818 412.66 439.298C413.164 439.778 413.86 440.018 414.748 440.018C415.648 440.018 416.344 439.778 416.836 439.298C417.34 438.818 417.592 438.104 417.592 437.156V429.182H419.644V437.12C419.644 438.14 419.422 439.004 418.978 439.712C418.534 440.42 417.94 440.948 417.196 441.296C416.452 441.644 415.63 441.818 414.73 441.818C413.83 441.818 413.008 441.644 412.264 441.296C411.532 440.948 410.95 440.42 410.518 439.712C410.086 439.004 409.87 438.14 409.87 437.12V429.182H411.922ZM426.402 429.182C427.734 429.182 428.898 429.44 429.894 429.956C430.902 430.46 431.676 431.192 432.216 432.152C432.768 433.1 433.044 434.21 433.044 435.482C433.044 436.754 432.768 437.858 432.216 438.794C431.676 439.73 430.902 440.45 429.894 440.954C428.898 441.446 427.734 441.692 426.402 441.692H422.316V429.182H426.402ZM426.402 440.018C427.866 440.018 428.988 439.622 429.768 438.83C430.548 438.038 430.938 436.922 430.938 435.482C430.938 434.03 430.548 432.896 429.768 432.08C428.988 431.264 427.866 430.856 426.402 430.856H424.368V440.018H426.402ZM444.131 432.782C443.807 432.158 443.357 431.69 442.781 431.378C442.205 431.054 441.539 430.892 440.783 430.892C439.955 430.892 439.217 431.078 438.569 431.45C437.921 431.822 437.411 432.35 437.039 433.034C436.679 433.718 436.499 434.51 436.499 435.41C436.499 436.31 436.679 437.108 437.039 437.804C437.411 438.488 437.921 439.016 438.569 439.388C439.217 439.76 439.955 439.946 440.783 439.946C441.899 439.946 442.805 439.634 443.501 439.01C444.197 438.386 444.623 437.54 444.779 436.472H440.081V434.834H446.975V436.436C446.843 437.408 446.495 438.302 445.931 439.118C445.379 439.934 444.653 440.588 443.753 441.08C442.865 441.56 441.875 441.8 440.783 441.8C439.607 441.8 438.533 441.53 437.561 440.99C436.589 440.438 435.815 439.676 435.239 438.704C434.675 437.732 434.393 436.634 434.393 435.41C434.393 434.186 434.675 433.088 435.239 432.116C435.815 431.144 436.589 430.388 437.561 429.848C438.545 429.296 439.619 429.02 440.783 429.02C442.115 429.02 443.297 429.35 444.329 430.01C445.373 430.658 446.129 431.582 446.597 432.782H444.131ZM451.051 430.838V434.51H455.371V436.184H451.051V440.018H455.911V441.692H448.999V429.164H455.911V430.838H451.051ZM466.521 429.182V430.856H463.191V441.692H461.139V430.856H457.791V429.182H466.521ZM482.941 441.692L481.393 440.144C480.793 440.744 480.139 441.194 479.431 441.494C478.723 441.782 477.931 441.926 477.055 441.926C476.167 441.926 475.381 441.77 474.697 441.458C474.013 441.146 473.485 440.702 473.113 440.126C472.741 439.538 472.555 438.86 472.555 438.092C472.555 437.228 472.801 436.46 473.293 435.788C473.785 435.104 474.517 434.564 475.489 434.168C475.141 433.748 474.895 433.358 474.751 432.998C474.607 432.626 474.535 432.218 474.535 431.774C474.535 431.222 474.673 430.73 474.949 430.298C475.237 429.866 475.645 429.524 476.173 429.272C476.701 429.02 477.313 428.894 478.009 428.894C478.717 428.894 479.317 429.032 479.809 429.308C480.313 429.572 480.685 429.938 480.925 430.406C481.177 430.874 481.279 431.396 481.231 431.972H479.179C479.191 431.528 479.083 431.186 478.855 430.946C478.627 430.694 478.315 430.568 477.919 430.568C477.523 430.568 477.199 430.688 476.947 430.928C476.707 431.156 476.587 431.438 476.587 431.774C476.587 432.098 476.677 432.422 476.857 432.746C477.049 433.058 477.379 433.466 477.847 433.97L481.159 437.264L482.437 435.158H484.651L483.031 437.93L482.581 438.668L485.623 441.692H482.941ZM477.055 440.18C478.183 440.18 479.179 439.718 480.043 438.794L476.731 435.464C475.315 436.028 474.607 436.88 474.607 438.02C474.607 438.632 474.835 439.148 475.291 439.568C475.747 439.976 476.335 440.18 477.055 440.18ZM279.37 468.818C278.53 468.818 277.774 468.674 277.102 468.386C276.43 468.086 275.902 467.666 275.518 467.126C275.134 466.586 274.942 465.956 274.942 465.236H277.138C277.186 465.776 277.396 466.22 277.768 466.568C278.152 466.916 278.686 467.09 279.37 467.09C280.078 467.09 280.63 466.922 281.026 466.586C281.422 466.238 281.62 465.794 281.62 465.254C281.62 464.834 281.494 464.492 281.242 464.228C281.002 463.964 280.696 463.76 280.324 463.616C279.964 463.472 279.46 463.316 278.812 463.148C277.996 462.932 277.33 462.716 276.814 462.5C276.31 462.272 275.878 461.924 275.518 461.456C275.158 460.988 274.978 460.364 274.978 459.584C274.978 458.864 275.158 458.234 275.518 457.694C275.878 457.154 276.382 456.74 277.03 456.452C277.678 456.164 278.428 456.02 279.28 456.02C280.492 456.02 281.482 456.326 282.25 456.938C283.03 457.538 283.462 458.366 283.546 459.422H281.278C281.242 458.966 281.026 458.576 280.63 458.252C280.234 457.928 279.712 457.766 279.064 457.766C278.476 457.766 277.996 457.916 277.624 458.216C277.252 458.516 277.066 458.948 277.066 459.512C277.066 459.896 277.18 460.214 277.408 460.466C277.648 460.706 277.948 460.898 278.308 461.042C278.668 461.186 279.16 461.342 279.784 461.51C280.612 461.738 281.284 461.966 281.8 462.194C282.328 462.422 282.772 462.776 283.132 463.256C283.504 463.724 283.69 464.354 283.69 465.146C283.69 465.782 283.516 466.382 283.168 466.946C282.832 467.51 282.334 467.966 281.674 468.314C281.026 468.65 280.258 468.818 279.37 468.818ZM285.427 462.41C285.427 461.186 285.709 460.088 286.273 459.116C286.849 458.144 287.623 457.388 288.595 456.848C289.579 456.296 290.653 456.02 291.817 456.02C293.149 456.02 294.331 456.35 295.363 457.01C296.407 457.658 297.163 458.582 297.631 459.782H295.165C294.841 459.122 294.391 458.63 293.815 458.306C293.239 457.982 292.573 457.82 291.817 457.82C290.989 457.82 290.251 458.006 289.603 458.378C288.955 458.75 288.445 459.284 288.073 459.98C287.713 460.676 287.533 461.486 287.533 462.41C287.533 463.334 287.713 464.144 288.073 464.84C288.445 465.536 288.955 466.076 289.603 466.46C290.251 466.832 290.989 467.018 291.817 467.018C292.573 467.018 293.239 466.856 293.815 466.532C294.391 466.208 294.841 465.716 295.165 465.056H297.631C297.163 466.256 296.407 467.18 295.363 467.828C294.331 468.476 293.149 468.8 291.817 468.8C290.641 468.8 289.567 468.53 288.595 467.99C287.623 467.438 286.849 466.676 286.273 465.704C285.709 464.732 285.427 463.634 285.427 462.41ZM310.023 456.182V468.692H307.971V463.22H302.085V468.692H300.033V456.182H302.085V461.546H307.971V456.182H310.023ZM314.777 457.838V461.51H319.097V463.184H314.777V467.018H319.637V468.692H312.725V456.164H319.637V457.838H314.777ZM326.25 456.182C327.582 456.182 328.746 456.44 329.742 456.956C330.75 457.46 331.524 458.192 332.064 459.152C332.616 460.1 332.892 461.21 332.892 462.482C332.892 463.754 332.616 464.858 332.064 465.794C331.524 466.73 330.75 467.45 329.742 467.954C328.746 468.446 327.582 468.692 326.25 468.692H322.164V456.182H326.25ZM326.25 467.018C327.714 467.018 328.836 466.622 329.616 465.83C330.396 465.038 330.786 463.922 330.786 462.482C330.786 461.03 330.396 459.896 329.616 459.08C328.836 458.264 327.714 457.856 326.25 457.856H324.216V467.018H326.25ZM336.96 456.182V464.156C336.96 465.104 337.206 465.818 337.698 466.298C338.202 466.778 338.898 467.018 339.786 467.018C340.686 467.018 341.382 466.778 341.874 466.298C342.378 465.818 342.63 465.104 342.63 464.156V456.182H344.682V464.12C344.682 465.14 344.46 466.004 344.016 466.712C343.572 467.42 342.978 467.948 342.234 468.296C341.49 468.644 340.668 468.818 339.768 468.818C338.868 468.818 338.046 468.644 337.302 468.296C336.57 467.948 335.988 467.42 335.556 466.712C335.124 466.004 334.908 465.14 334.908 464.12V456.182H336.96ZM349.406 467.036H353.636V468.692H347.354V456.182H349.406V467.036ZM357.404 457.838V461.51H361.724V463.184H357.404V467.018H362.264V468.692H355.352V456.164H362.264V457.838H357.404ZM368.963 472.04V471.842C370.199 470.57 371.141 469.088 371.789 467.396C372.437 465.704 372.761 463.952 372.761 462.14C372.761 460.256 372.413 458.426 371.717 456.65C371.021 454.874 369.983 453.35 368.603 452.078V451.88H370.727C372.047 453.056 373.043 454.55 373.715 456.362C374.399 458.174 374.741 460.1 374.741 462.14C374.741 464.132 374.423 465.998 373.787 467.738C373.163 469.478 372.263 470.912 371.087 472.04H368.963Z" fill="white"/>
<rect x="115.549" y="629.408" width="157.98" height="83.5039" rx="41.752" fill="#00D563"/>
<path d="M186.402 679.222H178.85L177.73 682.646H170.274L178.562 659.99H186.754L195.01 682.646H187.522L186.402 679.222ZM184.674 673.878L182.626 667.574L180.578 673.878H184.674ZM206.064 659.99C208.432 659.99 210.501 660.47 212.272 661.43C214.064 662.39 215.44 663.723 216.4 665.43C217.36 667.136 217.84 669.078 217.84 671.254C217.84 673.408 217.36 675.35 216.4 677.078C215.44 678.806 214.064 680.171 212.272 681.174C210.501 682.155 208.432 682.646 206.064 682.646H196.624V659.99H206.064ZM205.424 676.31C207.024 676.31 208.293 675.872 209.232 674.998C210.17 674.123 210.64 672.875 210.64 671.254C210.64 669.632 210.17 668.384 209.232 667.51C208.293 666.635 207.024 666.198 205.424 666.198H203.728V676.31H205.424Z" fill="white"/>
<rect x="666.563" y="629.408" width="157.98" height="83.5039" rx="41.752" fill="#00D563"/>
<path d="M737.415 679.222H729.863L728.743 682.646H721.287L729.575 659.99H737.767L746.023 682.646H738.535L737.415 679.222ZM735.687 673.878L733.639 667.574L731.591 673.878H735.687ZM757.077 659.99C759.445 659.99 761.515 660.47 763.285 661.43C765.077 662.39 766.453 663.723 767.413 665.43C768.373 667.136 768.853 669.078 768.853 671.254C768.853 673.408 768.373 675.35 767.413 677.078C766.453 678.806 765.077 680.171 763.285 681.174C761.515 682.155 759.445 682.646 757.077 682.646H747.637V659.99H757.077ZM756.437 676.31C758.037 676.31 759.307 675.872 760.245 674.998C761.184 674.123 761.653 672.875 761.653 671.254C761.653 669.632 761.184 668.384 760.245 667.51C759.307 666.635 758.037 666.198 756.437 666.198H754.741V676.31H756.437Z" fill="white"/>
<rect x="377.345" y="629.408" width="157.98" height="83.5039" rx="41.752" fill="#00D563"/>
<rect x="928.359" y="629.408" width="157.98" height="83.5039" rx="41.752" fill="#00D563"/>
<rect x="666.224" y="374.382" width="419.776" height="108.329" rx="54.1647" fill="#00D563"/>
<path d="M326.937 486.712C326.937 485.883 326.266 485.212 325.437 485.212C324.609 485.212 323.937 485.883 323.937 486.712H326.937ZM193.479 626.468C194.064 627.054 195.014 627.054 195.6 626.468L205.146 616.922C205.732 616.337 205.732 615.387 205.146 614.801C204.56 614.215 203.61 614.215 203.024 614.801L194.539 623.286L186.054 614.801C185.468 614.215 184.518 614.215 183.933 614.801C183.347 615.387 183.347 616.337 183.933 616.922L193.479 626.468ZM196.039 625.408V622.687H193.039V625.408H196.039ZM196.039 619.059V613.617H193.039V619.059H196.039ZM196.039 609.989V604.548H193.039V609.989H196.039ZM196.039 600.92V595.478H193.039V600.92H196.039ZM196.039 591.85V586.408H193.039V591.85H196.039ZM196.039 582.781V580.06H193.039V582.781H196.039ZM196.039 580.06C196.039 579.163 196.092 578.28 196.193 577.412L193.214 577.062C193.098 578.046 193.039 579.046 193.039 580.06H196.039ZM196.879 573.949C197.363 572.229 198.047 570.592 198.904 569.065L196.287 567.597C195.316 569.328 194.54 571.184 193.991 573.136L196.879 573.949ZM200.868 566.13C201.964 564.742 203.221 563.485 204.61 562.389L202.751 560.034C201.178 561.275 199.755 562.699 198.513 564.272L200.868 566.13ZM207.544 560.424C209.072 559.567 210.708 558.883 212.428 558.399L211.615 555.511C209.664 556.061 207.807 556.836 206.076 557.808L207.544 560.424ZM215.891 557.714C216.759 557.612 217.643 557.56 218.539 557.56V554.56C217.526 554.56 216.526 554.619 215.542 554.734L215.891 557.714ZM218.539 557.56H221.648V554.56H218.539V557.56ZM225.793 557.56H232.01V554.56H225.793V557.56ZM236.155 557.56H242.372V554.56H236.155V557.56ZM246.517 557.56H252.735V554.56H246.517V557.56ZM256.88 557.56H263.097V554.56H256.88V557.56ZM267.242 557.56H273.459V554.56H267.242V557.56ZM277.604 557.56H283.821V554.56H277.604V557.56ZM287.966 557.56H294.184V554.56H287.966V557.56ZM298.329 557.56H301.437V554.56H298.329V557.56ZM301.437 557.56C302.451 557.56 303.451 557.5 304.434 557.385L304.085 554.406C303.217 554.507 302.334 554.56 301.437 554.56V557.56ZM308.361 556.608C310.313 556.059 312.169 555.283 313.9 554.311L312.432 551.695C310.905 552.552 309.268 553.236 307.548 553.72L308.361 556.608ZM317.225 552.086C318.798 550.844 320.221 549.421 321.463 547.848L319.108 545.989C318.012 547.378 316.755 548.634 315.367 549.731L317.225 552.086ZM323.689 544.523C324.661 542.791 325.436 540.935 325.986 538.983L323.098 538.17C322.614 539.891 321.93 541.527 321.073 543.054L323.689 544.523ZM326.763 535.057C326.878 534.073 326.937 533.073 326.937 532.06H323.937C323.937 532.956 323.885 533.84 323.783 534.708L326.763 535.057ZM326.937 532.06V529.339H323.937V532.06H326.937ZM326.937 525.711V520.269H323.937V525.711H326.937ZM326.937 516.641V511.2H323.937V516.641H326.937ZM326.937 507.572V502.13H323.937V507.572H326.937ZM326.937 498.502V493.06H323.937V498.502H326.937ZM326.937 489.433V486.712H323.937V489.433H326.937Z" fill="#CECCCC"/>
<path d="M877.612 486.712C877.612 485.883 876.94 485.212 876.112 485.212C875.283 485.212 874.612 485.883 874.612 486.712H877.612ZM744.492 626.468C745.078 627.054 746.028 627.054 746.614 626.468L756.16 616.922C756.745 616.337 756.745 615.387 756.16 614.801C755.574 614.215 754.624 614.215 754.038 614.801L745.553 623.286L737.068 614.801C736.482 614.215 735.532 614.215 734.946 614.801C734.361 615.387 734.361 616.337 734.946 616.922L744.492 626.468ZM747.053 625.408V622.687H744.053V625.408H747.053ZM747.053 619.059V613.617H744.053V619.059H747.053ZM747.053 609.989V604.548H744.053V609.989H747.053ZM747.053 600.92V595.478H744.053V600.92H747.053ZM747.053 591.85V586.408H744.053V591.85H747.053ZM747.053 582.781V580.06H744.053V582.781H747.053ZM747.053 580.06C747.053 579.163 747.105 578.28 747.207 577.412L744.227 577.062C744.112 578.046 744.053 579.046 744.053 580.06H747.053ZM747.892 573.949C748.377 572.229 749.06 570.592 749.917 569.065L747.301 567.597C746.33 569.328 745.554 571.184 745.005 573.136L747.892 573.949ZM751.882 566.13C752.978 564.742 754.235 563.485 755.624 562.389L753.765 560.034C752.192 561.275 750.769 562.699 749.527 564.272L751.882 566.13ZM758.558 560.424C760.085 559.567 761.722 558.883 763.442 558.399L762.629 555.511C760.678 556.061 758.821 556.836 757.09 557.808L758.558 560.424ZM766.905 557.714C767.773 557.612 768.657 557.56 769.553 557.56V554.56C768.54 554.56 767.539 554.619 766.556 554.734L766.905 557.714ZM769.553 557.56H772.649V554.56H769.553V557.56ZM776.777 557.56H782.969V554.56H776.777V557.56ZM787.097 557.56H793.289V554.56H787.097V557.56ZM797.417 557.56H803.609V554.56H797.417V557.56ZM807.736 557.56H813.928V554.56H807.736V557.56ZM818.056 557.56H824.248V554.56H818.056V557.56ZM828.376 557.56H834.568V554.56H828.376V557.56ZM838.696 557.56H844.888V554.56H838.696V557.56ZM849.016 557.56H852.112V554.56H849.016V557.56ZM852.112 557.56C853.125 557.56 854.125 557.5 855.109 557.385L854.76 554.406C853.892 554.507 853.008 554.56 852.112 554.56V557.56ZM859.036 556.608C860.987 556.059 862.844 555.283 864.575 554.311L863.107 551.695C861.58 552.552 859.943 553.236 858.223 553.72L859.036 556.608ZM867.9 552.086C869.473 550.844 870.896 549.421 872.138 547.848L869.783 545.989C868.687 547.378 867.43 548.634 866.041 549.731L867.9 552.086ZM874.364 544.523C875.335 542.791 876.111 540.935 876.66 538.983L873.773 538.17C873.288 539.891 872.605 541.527 871.748 543.054L874.364 544.523ZM877.437 535.057C877.553 534.073 877.612 533.073 877.612 532.06H874.612C874.612 532.956 874.56 533.84 874.458 534.708L877.437 535.057ZM877.612 532.06V529.339H874.612V532.06H877.612ZM877.612 525.711V520.269H874.612V525.711H877.612ZM877.612 516.641V511.2H874.612V516.641H877.612ZM877.612 507.572V502.13H874.612V507.572H877.612ZM877.612 498.502V493.06H874.612V498.502H877.612ZM877.612 489.433V486.712H874.612V489.433H877.612Z" fill="#CECCCC"/>
<path d="M326.937 486.712C326.937 485.883 326.266 485.212 325.437 485.212C324.609 485.212 323.937 485.883 323.937 486.712H326.937ZM455.275 626.468C455.86 627.054 456.81 627.054 457.396 626.468L466.942 616.922C467.528 616.337 467.528 615.387 466.942 614.801C466.356 614.215 465.406 614.215 464.821 614.801L456.335 623.286L447.85 614.801C447.264 614.215 446.314 614.215 445.729 614.801C445.143 615.387 445.143 616.337 445.729 616.922L455.275 626.468ZM323.937 486.712V489.433H326.937V486.712H323.937ZM323.937 493.06V498.502H326.937V493.06H323.937ZM323.937 502.13V507.572H326.937V502.13H323.937ZM323.937 511.2V516.641H326.937V511.2H323.937ZM323.937 520.269V525.711H326.937V520.269H323.937ZM323.937 529.339V532.06H326.937V529.339H323.937ZM323.937 532.06C323.937 533.073 323.996 534.073 324.112 535.057L327.091 534.708C326.99 533.84 326.937 532.956 326.937 532.06H323.937ZM324.889 538.983C325.438 540.935 326.214 542.791 327.185 544.523L329.802 543.054C328.945 541.527 328.261 539.891 327.777 538.17L324.889 538.983ZM329.411 547.848C330.653 549.421 332.076 550.844 333.649 552.086L335.508 549.731C334.119 548.634 332.862 547.378 331.766 545.989L329.411 547.848ZM336.974 554.311C338.705 555.283 340.562 556.059 342.514 556.608L343.326 553.72C341.606 553.236 339.97 552.552 338.442 551.695L336.974 554.311ZM346.44 557.385C347.424 557.5 348.424 557.56 349.437 557.56V554.56C348.541 554.56 347.657 554.507 346.789 554.406L346.44 557.385ZM349.437 557.56H352.546V554.56H349.437V557.56ZM356.691 557.56H362.908V554.56H356.691V557.56ZM367.053 557.56H373.27V554.56H367.053V557.56ZM377.415 557.56H383.633V554.56H377.415V557.56ZM387.778 557.56H393.995V554.56H387.778V557.56ZM398.14 557.56H404.357V554.56H398.14V557.56ZM408.502 557.56H414.719V554.56H408.502V557.56ZM418.864 557.56H425.082V554.56H418.864V557.56ZM429.227 557.56H432.335V554.56H429.227V557.56ZM432.335 557.56C433.232 557.56 434.115 557.612 434.983 557.714L435.332 554.734C434.349 554.619 433.349 554.56 432.335 554.56V557.56ZM438.446 558.399C440.166 558.883 441.803 559.567 443.33 560.424L444.798 557.808C443.067 556.836 441.211 556.061 439.259 555.511L438.446 558.399ZM446.265 562.389C447.653 563.485 448.91 564.741 450.006 566.13L452.361 564.272C451.119 562.699 449.696 561.275 448.123 560.034L446.265 562.389ZM451.971 569.065C452.828 570.592 453.512 572.229 453.996 573.949L456.884 573.136C456.334 571.184 455.559 569.328 454.587 567.597L451.971 569.065ZM454.681 577.412C454.783 578.28 454.835 579.163 454.835 580.06H457.835C457.835 579.046 457.776 578.046 457.661 577.062L454.681 577.412ZM454.835 580.06V582.781H457.835V580.06H454.835ZM454.835 586.408V591.85H457.835V586.408H454.835ZM454.835 595.478V600.92H457.835V595.478H454.835ZM454.835 604.548V609.989H457.835V604.548H454.835ZM454.835 613.617V619.059H457.835V613.617H454.835ZM454.835 622.687V625.408H457.835V622.687H454.835Z" fill="#CECCCC"/>
<path d="M877.612 486.712C877.612 485.883 876.94 485.212 876.112 485.212C875.283 485.212 874.612 485.883 874.612 486.712H877.612ZM1006.29 626.468C1006.87 627.054 1007.82 627.054 1008.41 626.468L1017.96 616.922C1018.54 616.337 1018.54 615.387 1017.96 614.801C1017.37 614.215 1016.42 614.215 1015.83 614.801L1007.35 623.286L998.864 614.801C998.278 614.215 997.328 614.215 996.742 614.801C996.157 615.387 996.157 616.337 996.742 616.922L1006.29 626.468ZM874.612 486.712V489.433H877.612V486.712H874.612ZM874.612 493.06V498.502H877.612V493.06H874.612ZM874.612 502.13V507.572H877.612V502.13H874.612ZM874.612 511.2V516.641H877.612V511.2H874.612ZM874.612 520.269V525.711H877.612V520.269H874.612ZM874.612 529.339V532.06H877.612V529.339H874.612ZM874.612 532.06C874.612 533.073 874.671 534.073 874.786 535.057L877.766 534.708C877.664 533.84 877.612 532.956 877.612 532.06H874.612ZM875.563 538.983C876.113 540.935 876.888 542.791 877.86 544.523L880.476 543.054C879.619 541.527 878.935 539.891 878.451 538.17L875.563 538.983ZM880.086 547.848C881.328 549.421 882.751 550.844 884.324 552.086L886.183 549.731C884.794 548.634 883.537 547.378 882.441 545.989L880.086 547.848ZM887.649 554.311C889.38 555.283 891.237 556.059 893.188 556.608L894.001 553.72C892.281 553.236 890.644 552.552 889.117 551.695L887.649 554.311ZM897.115 557.385C898.098 557.5 899.098 557.56 900.112 557.56V554.56C899.215 554.56 898.332 554.507 897.464 554.406L897.115 557.385ZM900.112 557.56H903.233V554.56H900.112V557.56ZM907.395 557.56H913.638V554.56H907.395V557.56ZM917.8 557.56H924.043V554.56H917.8V557.56ZM928.204 557.56H934.447V554.56H928.204V557.56ZM938.609 557.56H944.852V554.56H938.609V557.56ZM949.014 557.56H955.256V554.56H949.014V557.56ZM959.418 557.56H965.661V554.56H959.418V557.56ZM969.823 557.56H976.066V554.56H969.823V557.56ZM980.228 557.56H983.349V554.56H980.228V557.56ZM983.349 557.56C984.245 557.56 985.129 557.612 985.997 557.714L986.346 554.734C985.363 554.619 984.362 554.56 983.349 554.56V557.56ZM989.46 558.399C991.18 558.883 992.817 559.567 994.344 560.424L995.812 557.808C994.081 556.836 992.224 556.061 990.273 555.511L989.46 558.399ZM997.278 562.389C998.667 563.485 999.924 564.741 1001.02 566.13L1003.37 564.272C1002.13 562.699 1000.71 561.275 999.137 560.034L997.278 562.389ZM1002.98 569.065C1003.84 570.592 1004.53 572.229 1005.01 573.949L1007.9 573.136C1007.35 571.184 1006.57 569.328 1005.6 567.597L1002.98 569.065ZM1005.69 577.412C1005.8 578.28 1005.85 579.163 1005.85 580.06H1008.85C1008.85 579.046 1008.79 578.046 1008.67 577.062L1005.69 577.412ZM1005.85 580.06V582.781H1008.85V580.06H1005.85ZM1005.85 586.408V591.85H1008.85V586.408H1005.85ZM1005.85 595.478V600.92H1008.85V595.478H1005.85ZM1005.85 604.548V609.989H1008.85V604.548H1005.85ZM1005.85 613.617V619.059H1008.85V613.617H1005.85ZM1005.85 622.687V625.408H1008.85V622.687H1005.85Z" fill="#CECCCC"/>
<path d="M602.081 232C602.081 231.172 601.409 230.5 600.581 230.5C599.752 230.5 599.081 231.172 599.081 232H602.081ZM324.377 371.443C324.962 372.029 325.912 372.029 326.498 371.443L336.044 361.897C336.63 361.311 336.63 360.362 336.044 359.776C335.458 359.19 334.508 359.19 333.923 359.776L325.437 368.261L316.952 359.776C316.366 359.19 315.416 359.19 314.831 359.776C314.245 360.362 314.245 361.311 314.831 361.897L324.377 371.443ZM599.081 232V277.191H602.081V232H599.081ZM576.581 299.691H349.437V302.691H576.581V299.691ZM323.937 325.191V370.382H326.937V325.191H323.937ZM349.437 299.691C335.354 299.691 323.937 311.108 323.937 325.191H326.937C326.937 312.765 337.011 302.691 349.437 302.691V299.691ZM599.081 277.191C599.081 289.618 589.007 299.691 576.581 299.691V302.691C590.664 302.691 602.081 291.274 602.081 277.191H599.081Z" fill="#4ECB71"/>
<path d="M602.081 232C602.081 231.172 601.409 230.5 600.581 230.5C599.752 230.5 599.081 231.172 599.081 232H602.081ZM875.051 371.443C875.637 372.029 876.587 372.029 877.172 371.443L886.718 361.897C887.304 361.311 887.304 360.362 886.718 359.776C886.133 359.19 885.183 359.19 884.597 359.776L876.112 368.261L867.627 359.776C867.041 359.19 866.091 359.19 865.505 359.776C864.919 360.362 864.919 361.311 865.505 361.897L875.051 371.443ZM599.081 232V277.191H602.081V232H599.081ZM624.581 302.691H852.112V299.691H624.581V302.691ZM874.612 325.191V370.382H877.612V325.191H874.612ZM852.112 302.691C864.538 302.691 874.612 312.765 874.612 325.191H877.612C877.612 311.108 866.195 299.691 852.112 299.691V302.691ZM599.081 277.191C599.081 291.274 610.497 302.691 624.581 302.691V299.691C612.154 299.691 602.081 289.618 602.081 277.191H599.081Z" fill="#4ECB71"/>
<rect x="395.4" y="270.567" width="153.467" height="63.1922" rx="31.5961" fill="#F2F2F2"/>
<circle cx="415.4" cy="302.163" r="10" fill="#00D563"/>
<path d="M453.913 292.313V295.103H448.363V313.163H444.943V295.103H439.363V292.313H453.913ZM472.527 304.493C472.527 305.113 472.487 305.673 472.407 306.173H459.777C459.877 307.493 460.367 308.553 461.247 309.353C462.127 310.153 463.207 310.553 464.487 310.553C466.327 310.553 467.627 309.783 468.387 308.243H472.077C471.577 309.763 470.667 311.013 469.347 311.993C468.047 312.953 466.427 313.433 464.487 313.433C462.907 313.433 461.487 313.083 460.227 312.383C458.987 311.663 458.007 310.663 457.287 309.383C456.587 308.083 456.237 306.583 456.237 304.883C456.237 303.183 456.577 301.693 457.257 300.413C457.957 299.113 458.927 298.113 460.167 297.413C461.427 296.713 462.867 296.363 464.487 296.363C466.047 296.363 467.437 296.703 468.657 297.383C469.877 298.063 470.827 299.023 471.507 300.263C472.187 301.483 472.527 302.893 472.527 304.493ZM468.957 303.413C468.937 302.153 468.487 301.143 467.607 300.383C466.727 299.623 465.637 299.243 464.337 299.243C463.157 299.243 462.147 299.623 461.307 300.383C460.467 301.123 459.967 302.133 459.807 303.413H468.957ZM481.892 313.433C480.592 313.433 479.422 313.203 478.382 312.743C477.362 312.263 476.552 311.623 475.952 310.823C475.352 310.003 475.032 309.093 474.992 308.093H478.532C478.592 308.793 478.922 309.383 479.522 309.863C480.142 310.323 480.912 310.553 481.832 310.553C482.792 310.553 483.532 310.373 484.052 310.013C484.592 309.633 484.862 309.153 484.862 308.573C484.862 307.953 484.562 307.493 483.962 307.193C483.382 306.893 482.452 306.563 481.172 306.203C479.932 305.863 478.922 305.533 478.142 305.213C477.362 304.893 476.682 304.403 476.102 303.743C475.542 303.083 475.262 302.213 475.262 301.133C475.262 300.253 475.522 299.453 476.042 298.733C476.562 297.993 477.302 297.413 478.262 296.993C479.242 296.573 480.362 296.363 481.622 296.363C483.502 296.363 485.012 296.843 486.152 297.803C487.312 298.743 487.932 300.033 488.012 301.673H484.592C484.532 300.933 484.232 300.343 483.692 299.903C483.152 299.463 482.422 299.243 481.502 299.243C480.602 299.243 479.912 299.413 479.432 299.753C478.952 300.093 478.712 300.543 478.712 301.103C478.712 301.543 478.872 301.913 479.192 302.213C479.512 302.513 479.902 302.753 480.362 302.933C480.822 303.093 481.502 303.303 482.402 303.563C483.602 303.883 484.582 304.213 485.342 304.553C486.122 304.873 486.792 305.353 487.352 305.993C487.912 306.633 488.202 307.483 488.222 308.543C488.222 309.483 487.962 310.323 487.442 311.063C486.922 311.803 486.182 312.383 485.222 312.803C484.282 313.223 483.172 313.433 481.892 313.433ZM495.908 299.423V308.573C495.908 309.193 496.048 309.643 496.328 309.923C496.628 310.183 497.128 310.313 497.828 310.313H499.928V313.163H497.228C495.688 313.163 494.508 312.803 493.688 312.083C492.868 311.363 492.458 310.193 492.458 308.573V299.423H490.508V296.633H492.458V292.523H495.908V296.633H499.928V299.423H495.908ZM509.973 294.413V291.293H516.213V313.163H512.763V294.413H509.973Z" fill="black" fill-opacity="0.8"/>
<rect x="666" y="270.567" width="153.467" height="63.1922" rx="31.5961" fill="#F2F2F2"/>
<circle cx="686" cy="302.163" r="10" fill="#00D563"/>
<path d="M724.513 292.313V295.103H718.963V313.163H715.543V295.103H709.963V292.313H724.513ZM743.127 304.493C743.127 305.113 743.087 305.673 743.007 306.173H730.377C730.477 307.493 730.967 308.553 731.847 309.353C732.727 310.153 733.807 310.553 735.087 310.553C736.927 310.553 738.227 309.783 738.987 308.243H742.677C742.177 309.763 741.267 311.013 739.947 311.993C738.647 312.953 737.027 313.433 735.087 313.433C733.507 313.433 732.087 313.083 730.827 312.383C729.587 311.663 728.607 310.663 727.887 309.383C727.187 308.083 726.837 306.583 726.837 304.883C726.837 303.183 727.177 301.693 727.857 300.413C728.557 299.113 729.527 298.113 730.767 297.413C732.027 296.713 733.467 296.363 735.087 296.363C736.647 296.363 738.037 296.703 739.257 297.383C740.477 298.063 741.427 299.023 742.107 300.263C742.787 301.483 743.127 302.893 743.127 304.493ZM739.557 303.413C739.537 302.153 739.087 301.143 738.207 300.383C737.327 299.623 736.237 299.243 734.937 299.243C733.757 299.243 732.747 299.623 731.907 300.383C731.067 301.123 730.567 302.133 730.407 303.413H739.557ZM752.492 313.433C751.192 313.433 750.022 313.203 748.982 312.743C747.962 312.263 747.152 311.623 746.552 310.823C745.952 310.003 745.632 309.093 745.592 308.093H749.132C749.192 308.793 749.522 309.383 750.122 309.863C750.742 310.323 751.512 310.553 752.432 310.553C753.392 310.553 754.132 310.373 754.652 310.013C755.192 309.633 755.462 309.153 755.462 308.573C755.462 307.953 755.162 307.493 754.562 307.193C753.982 306.893 753.052 306.563 751.772 306.203C750.532 305.863 749.522 305.533 748.742 305.213C747.962 304.893 747.282 304.403 746.702 303.743C746.142 303.083 745.862 302.213 745.862 301.133C745.862 300.253 746.122 299.453 746.642 298.733C747.162 297.993 747.902 297.413 748.862 296.993C749.842 296.573 750.962 296.363 752.222 296.363C754.102 296.363 755.612 296.843 756.752 297.803C757.912 298.743 758.532 300.033 758.612 301.673H755.192C755.132 300.933 754.832 300.343 754.292 299.903C753.752 299.463 753.022 299.243 752.102 299.243C751.202 299.243 750.512 299.413 750.032 299.753C749.552 300.093 749.312 300.543 749.312 301.103C749.312 301.543 749.472 301.913 749.792 302.213C750.112 302.513 750.502 302.753 750.962 302.933C751.422 303.093 752.102 303.303 753.002 303.563C754.202 303.883 755.182 304.213 755.942 304.553C756.722 304.873 757.392 305.353 757.952 305.993C758.512 306.633 758.802 307.483 758.822 308.543C758.822 309.483 758.562 310.323 758.042 311.063C757.522 311.803 756.782 312.383 755.822 312.803C754.882 313.223 753.772 313.433 752.492 313.433ZM766.508 299.423V308.573C766.508 309.193 766.648 309.643 766.928 309.923C767.228 310.183 767.728 310.313 768.428 310.313H770.528V313.163H767.828C766.288 313.163 765.108 312.803 764.288 312.083C763.468 311.363 763.058 310.193 763.058 308.573V299.423H761.108V296.633H763.058V292.523H766.508V296.633H770.528V299.423H766.508ZM782.913 308.513C784.833 306.853 786.343 305.493 787.443 304.433C788.563 303.353 789.493 302.233 790.233 301.073C790.973 299.913 791.343 298.753 791.343 297.593C791.343 296.393 791.053 295.453 790.473 294.773C789.913 294.093 789.023 293.753 787.803 293.753C786.623 293.753 785.703 294.133 785.043 294.893C784.403 295.633 784.063 296.633 784.023 297.893H780.723C780.783 295.613 781.463 293.873 782.763 292.673C784.083 291.453 785.753 290.843 787.773 290.843C789.953 290.843 791.653 291.443 792.873 292.643C794.113 293.843 794.733 295.443 794.733 297.443C794.733 298.883 794.363 300.273 793.623 301.613C792.903 302.933 792.033 304.123 791.013 305.183C790.013 306.223 788.733 307.433 787.173 308.813L785.823 310.013H795.333V312.863H780.753V310.373L782.913 308.513Z" fill="black" fill-opacity="0.8"/>
<path d="M69.079 2H26.0395C12.7847 2 2.03955 12.7452 2.03955 26V715.434C2.03955 728.689 12.7847 739.434 26.0395 739.434H69.079" stroke="#CECCCC" stroke-width="3" stroke-miterlimit="0" stroke-linecap="round" stroke-linejoin="bevel"/>
<path d="M838.473 411.79H831.393L830.343 415H823.353L831.123 393.76H838.803L846.543 415H839.523L838.473 411.79ZM836.853 406.78L834.933 400.87L833.013 406.78H836.853ZM856.906 393.76C859.126 393.76 861.066 394.21 862.726 395.11C864.406 396.01 865.696 397.26 866.596 398.86C867.496 400.46 867.946 402.28 867.946 404.32C867.946 406.34 867.496 408.16 866.596 409.78C865.696 411.4 864.406 412.68 862.726 413.62C861.066 414.54 859.126 415 856.906 415H848.056V393.76H856.906ZM856.306 409.06C857.806 409.06 858.996 408.65 859.876 407.83C860.756 407.01 861.196 405.84 861.196 404.32C861.196 402.8 860.756 401.63 859.876 400.81C858.996 399.99 857.806 399.58 856.306 399.58H854.716V409.06H856.306ZM883.759 415.21C881.219 415.21 879.119 414.62 877.459 413.44C875.819 412.24 874.929 410.49 874.789 408.19H881.869C881.969 409.41 882.509 410.02 883.489 410.02C883.849 410.02 884.149 409.94 884.389 409.78C884.649 409.6 884.779 409.33 884.779 408.97C884.779 408.47 884.509 408.07 883.969 407.77C883.429 407.45 882.589 407.09 881.449 406.69C880.089 406.21 878.959 405.74 878.059 405.28C877.179 404.82 876.419 404.15 875.779 403.27C875.139 402.39 874.829 401.26 874.849 399.88C874.849 398.5 875.199 397.33 875.899 396.37C876.619 395.39 877.589 394.65 878.809 394.15C880.049 393.65 881.439 393.4 882.979 393.4C885.579 393.4 887.639 394 889.159 395.2C890.699 396.4 891.509 398.09 891.589 400.27H884.419C884.399 399.67 884.249 399.24 883.969 398.98C883.689 398.72 883.349 398.59 882.949 398.59C882.669 398.59 882.439 398.69 882.259 398.89C882.079 399.07 881.989 399.33 881.989 399.67C881.989 400.15 882.249 400.55 882.769 400.87C883.309 401.17 884.159 401.54 885.319 401.98C886.659 402.48 887.759 402.96 888.619 403.42C889.499 403.88 890.259 404.52 890.899 405.34C891.539 406.16 891.859 407.19 891.859 408.43C891.859 409.73 891.539 410.9 890.899 411.94C890.259 412.96 889.329 413.76 888.109 414.34C886.889 414.92 885.439 415.21 883.759 415.21ZM900.859 399.07V401.68H907.459V406.69H900.859V409.69H908.359V415H894.199V393.76H908.359V399.07H900.859ZM927.549 393.76V399.04H921.909V415H915.249V399.04H909.669V393.76H927.549ZM721.309 445.348C720.133 444.22 719.227 442.786 718.591 441.046C717.967 439.306 717.655 437.44 717.655 435.448C717.655 433.408 717.991 431.482 718.663 429.67C719.347 427.858 720.349 426.364 721.669 425.188H723.793V425.386C722.413 426.658 721.375 428.182 720.679 429.958C719.983 431.734 719.635 433.564 719.635 435.448C719.635 437.26 719.959 439.012 720.607 440.704C721.255 442.396 722.197 443.878 723.433 445.15V445.348H721.309ZM733.175 439.444H727.937L727.037 442H724.895L729.377 429.472H731.753L736.235 442H734.075L733.175 439.444ZM732.599 437.77L730.565 431.956L728.513 437.77H732.599ZM740.217 429.49V437.464C740.217 438.412 740.463 439.126 740.955 439.606C741.459 440.086 742.155 440.326 743.043 440.326C743.943 440.326 744.639 440.086 745.131 439.606C745.635 439.126 745.887 438.412 745.887 437.464V429.49H747.939V437.428C747.939 438.448 747.717 439.312 747.273 440.02C746.829 440.728 746.235 441.256 745.491 441.604C744.747 441.952 743.925 442.126 743.025 442.126C742.125 442.126 741.303 441.952 740.559 441.604C739.827 441.256 739.245 440.728 738.813 440.02C738.381 439.312 738.165 438.448 738.165 437.428V429.49H740.217ZM754.697 429.49C756.029 429.49 757.193 429.748 758.189 430.264C759.197 430.768 759.971 431.5 760.511 432.46C761.063 433.408 761.339 434.518 761.339 435.79C761.339 437.062 761.063 438.166 760.511 439.102C759.971 440.038 759.197 440.758 758.189 441.262C757.193 441.754 756.029 442 754.697 442H750.611V429.49H754.697ZM754.697 440.326C756.161 440.326 757.283 439.93 758.063 439.138C758.843 438.346 759.233 437.23 759.233 435.79C759.233 434.338 758.843 433.204 758.063 432.388C757.283 431.572 756.161 431.164 754.697 431.164H752.663V440.326H754.697ZM765.425 429.49V442H763.373V429.49H765.425ZM770.171 431.146V434.818H774.491V436.492H770.171V440.326H775.031V442H768.119V429.472H775.031V431.146H770.171ZM787.836 442H785.784L779.61 432.658V442H777.558V429.472H779.61L785.784 438.796V429.472H787.836V442ZM789.847 435.718C789.847 434.494 790.129 433.396 790.693 432.424C791.269 431.452 792.043 430.696 793.015 430.156C793.999 429.604 795.073 429.328 796.237 429.328C797.569 429.328 798.751 429.658 799.783 430.318C800.827 430.966 801.583 431.89 802.051 433.09H799.585C799.261 432.43 798.811 431.938 798.235 431.614C797.659 431.29 796.993 431.128 796.237 431.128C795.409 431.128 794.671 431.314 794.023 431.686C793.375 432.058 792.865 432.592 792.493 433.288C792.133 433.984 791.953 434.794 791.953 435.718C791.953 436.642 792.133 437.452 792.493 438.148C792.865 438.844 793.375 439.384 794.023 439.768C794.671 440.14 795.409 440.326 796.237 440.326C796.993 440.326 797.659 440.164 798.235 439.84C798.811 439.516 799.261 439.024 799.585 438.364H802.051C801.583 439.564 800.827 440.488 799.783 441.136C798.751 441.784 797.569 442.108 796.237 442.108C795.061 442.108 793.987 441.838 793.015 441.298C792.043 440.746 791.269 439.984 790.693 439.012C790.129 438.04 789.847 436.942 789.847 435.718ZM806.505 431.146V434.818H810.825V436.492H806.505V440.326H811.365V442H804.453V429.472H811.365V431.146H806.505ZM816.142 439.534L813.964 444.502H812.632L813.91 439.534H816.142ZM831.359 433.216C831.359 433.852 831.209 434.452 830.909 435.016C830.609 435.58 830.129 436.042 829.469 436.402C828.809 436.75 827.963 436.924 826.931 436.924H824.663V442H822.611V429.49H826.931C827.891 429.49 828.701 429.658 829.361 429.994C830.033 430.318 830.531 430.762 830.855 431.326C831.191 431.89 831.359 432.52 831.359 433.216ZM826.931 435.25C827.711 435.25 828.293 435.076 828.677 434.728C829.061 434.368 829.253 433.864 829.253 433.216C829.253 431.848 828.479 431.164 826.931 431.164H824.663V435.25H826.931ZM835.368 440.344H839.598V442H833.316V429.49H835.368V440.344ZM848.856 439.444H843.618L842.718 442H840.576L845.058 429.472H847.434L851.916 442H849.756L848.856 439.444ZM848.28 437.77L846.246 431.956L844.194 437.77H848.28ZM853.181 435.718C853.181 434.494 853.463 433.396 854.027 432.424C854.603 431.452 855.377 430.696 856.349 430.156C857.333 429.604 858.407 429.328 859.571 429.328C860.903 429.328 862.085 429.658 863.117 430.318C864.161 430.966 864.917 431.89 865.385 433.09H862.919C862.595 432.43 862.145 431.938 861.569 431.614C860.993 431.29 860.327 431.128 859.571 431.128C858.743 431.128 858.005 431.314 857.357 431.686C856.709 432.058 856.199 432.592 855.827 433.288C855.467 433.984 855.287 434.794 855.287 435.718C855.287 436.642 855.467 437.452 855.827 438.148C856.199 438.844 856.709 439.384 857.357 439.768C858.005 440.14 858.743 440.326 859.571 440.326C860.327 440.326 860.993 440.164 861.569 439.84C862.145 439.516 862.595 439.024 862.919 438.364H865.385C864.917 439.564 864.161 440.488 863.117 441.136C862.085 441.784 860.903 442.108 859.571 442.108C858.395 442.108 857.321 441.838 856.349 441.298C855.377 440.746 854.603 439.984 854.027 439.012C853.463 438.04 853.181 436.942 853.181 435.718ZM869.839 431.146V434.818H874.159V436.492H869.839V440.326H874.699V442H867.787V429.472H874.699V431.146H869.839ZM890.402 429.49V442H888.35V433.432L884.534 442H883.112L879.278 433.432V442H877.226V429.49H879.44L883.832 439.3L888.206 429.49H890.402ZM895.151 431.146V434.818H899.471V436.492H895.151V440.326H900.011V442H893.099V429.472H900.011V431.146H895.151ZM912.817 442H910.765L904.591 432.658V442H902.539V429.472H904.591L910.765 438.796V429.472H912.817V442ZM923.594 429.49V431.164H920.264V442H918.212V431.164H914.864V429.49H923.594ZM940.014 442L938.466 440.452C937.866 441.052 937.212 441.502 936.504 441.802C935.796 442.09 935.004 442.234 934.128 442.234C933.24 442.234 932.454 442.078 931.77 441.766C931.086 441.454 930.558 441.01 930.186 440.434C929.814 439.846 929.628 439.168 929.628 438.4C929.628 437.536 929.874 436.768 930.366 436.096C930.858 435.412 931.59 434.872 932.562 434.476C932.214 434.056 931.968 433.666 931.824 433.306C931.68 432.934 931.608 432.526 931.608 432.082C931.608 431.53 931.746 431.038 932.022 430.606C932.31 430.174 932.718 429.832 933.246 429.58C933.774 429.328 934.386 429.202 935.082 429.202C935.79 429.202 936.39 429.34 936.882 429.616C937.386 429.88 937.758 430.246 937.998 430.714C938.25 431.182 938.352 431.704 938.304 432.28H936.252C936.264 431.836 936.156 431.494 935.928 431.254C935.7 431.002 935.388 430.876 934.992 430.876C934.596 430.876 934.272 430.996 934.02 431.236C933.78 431.464 933.66 431.746 933.66 432.082C933.66 432.406 933.75 432.73 933.93 433.054C934.122 433.366 934.452 433.774 934.92 434.278L938.232 437.572L939.51 435.466H941.724L940.104 438.238L939.654 438.976L942.696 442H940.014ZM934.128 440.488C935.256 440.488 936.252 440.026 937.116 439.102L933.804 435.772C932.388 436.336 931.68 437.188 931.68 438.328C931.68 438.94 931.908 439.456 932.364 439.876C932.82 440.284 933.408 440.488 934.128 440.488ZM955.413 435.574C956.085 435.694 956.655 436.048 957.123 436.636C957.591 437.224 957.825 437.89 957.825 438.634C957.825 439.27 957.657 439.846 957.321 440.362C956.997 440.866 956.523 441.268 955.899 441.568C955.275 441.856 954.549 442 953.721 442H948.717V429.49H953.487C954.339 429.49 955.071 429.634 955.683 429.922C956.295 430.21 956.757 430.6 957.069 431.092C957.381 431.572 957.537 432.112 957.537 432.712C957.537 433.432 957.345 434.032 956.961 434.512C956.577 434.992 956.061 435.346 955.413 435.574ZM950.769 434.746H953.307C953.979 434.746 954.501 434.596 954.873 434.296C955.257 433.984 955.449 433.54 955.449 432.964C955.449 432.4 955.257 431.962 954.873 431.65C954.501 431.326 953.979 431.164 953.307 431.164H950.769V434.746ZM953.541 440.326C954.237 440.326 954.783 440.158 955.179 439.822C955.575 439.486 955.773 439.018 955.773 438.418C955.773 437.806 955.563 437.32 955.143 436.96C954.723 436.6 954.165 436.42 953.469 436.42H950.769V440.326H953.541ZM962.089 429.49V437.464C962.089 438.412 962.335 439.126 962.827 439.606C963.331 440.086 964.027 440.326 964.915 440.326C965.815 440.326 966.511 440.086 967.003 439.606C967.507 439.126 967.759 438.412 967.759 437.464V429.49H969.811V437.428C969.811 438.448 969.589 439.312 969.145 440.02C968.701 440.728 968.107 441.256 967.363 441.604C966.619 441.952 965.797 442.126 964.897 442.126C963.997 442.126 963.175 441.952 962.431 441.604C961.699 441.256 961.117 440.728 960.685 440.02C960.253 439.312 960.037 438.448 960.037 437.428V429.49H962.089ZM976.568 429.49C977.9 429.49 979.064 429.748 980.06 430.264C981.068 430.768 981.842 431.5 982.382 432.46C982.934 433.408 983.21 434.518 983.21 435.79C983.21 437.062 982.934 438.166 982.382 439.102C981.842 440.038 981.068 440.758 980.06 441.262C979.064 441.754 977.9 442 976.568 442H972.482V429.49H976.568ZM976.568 440.326C978.032 440.326 979.154 439.93 979.934 439.138C980.714 438.346 981.104 437.23 981.104 435.79C981.104 434.338 980.714 433.204 979.934 432.388C979.154 431.572 978.032 431.164 976.568 431.164H974.534V440.326H976.568ZM994.298 433.09C993.974 432.466 993.524 431.998 992.948 431.686C992.372 431.362 991.706 431.2 990.95 431.2C990.122 431.2 989.384 431.386 988.736 431.758C988.088 432.13 987.578 432.658 987.206 433.342C986.846 434.026 986.666 434.818 986.666 435.718C986.666 436.618 986.846 437.416 987.206 438.112C987.578 438.796 988.088 439.324 988.736 439.696C989.384 440.068 990.122 440.254 990.95 440.254C992.066 440.254 992.972 439.942 993.668 439.318C994.364 438.694 994.79 437.848 994.946 436.78H990.248V435.142H997.142V436.744C997.01 437.716 996.662 438.61 996.098 439.426C995.546 440.242 994.82 440.896 993.92 441.388C993.032 441.868 992.042 442.108 990.95 442.108C989.774 442.108 988.7 441.838 987.728 441.298C986.756 440.746 985.982 439.984 985.406 439.012C984.842 438.04 984.56 436.942 984.56 435.718C984.56 434.494 984.842 433.396 985.406 432.424C985.982 431.452 986.756 430.696 987.728 430.156C988.712 429.604 989.786 429.328 990.95 429.328C992.282 429.328 993.464 429.658 994.496 430.318C995.54 430.966 996.296 431.89 996.764 433.09H994.298ZM1001.22 431.146V434.818H1005.54V436.492H1001.22V440.326H1006.08V442H999.166V429.472H1006.08V431.146H1001.22ZM1016.69 429.49V431.164H1013.36V442H1011.31V431.164H1007.96V429.49H1016.69ZM1033.11 442L1031.56 440.452C1030.96 441.052 1030.31 441.502 1029.6 441.802C1028.89 442.09 1028.1 442.234 1027.22 442.234C1026.33 442.234 1025.55 442.078 1024.86 441.766C1024.18 441.454 1023.65 441.01 1023.28 440.434C1022.91 439.846 1022.72 439.168 1022.72 438.4C1022.72 437.536 1022.97 436.768 1023.46 436.096C1023.95 435.412 1024.68 434.872 1025.66 434.476C1025.31 434.056 1025.06 433.666 1024.92 433.306C1024.77 432.934 1024.7 432.526 1024.7 432.082C1024.7 431.53 1024.84 431.038 1025.12 430.606C1025.4 430.174 1025.81 429.832 1026.34 429.58C1026.87 429.328 1027.48 429.202 1028.18 429.202C1028.88 429.202 1029.48 429.34 1029.98 429.616C1030.48 429.88 1030.85 430.246 1031.09 430.714C1031.34 431.182 1031.45 431.704 1031.4 432.28H1029.35C1029.36 431.836 1029.25 431.494 1029.02 431.254C1028.79 431.002 1028.48 430.876 1028.09 430.876C1027.69 430.876 1027.37 430.996 1027.11 431.236C1026.87 431.464 1026.75 431.746 1026.75 432.082C1026.75 432.406 1026.84 432.73 1027.02 433.054C1027.22 433.366 1027.55 433.774 1028.01 434.278L1031.33 437.572L1032.6 435.466H1034.82L1033.2 438.238L1032.75 438.976L1035.79 442H1033.11ZM1027.22 440.488C1028.35 440.488 1029.35 440.026 1030.21 439.102L1026.9 435.772C1025.48 436.336 1024.77 437.188 1024.77 438.328C1024.77 438.94 1025 439.456 1025.46 439.876C1025.91 440.284 1026.5 440.488 1027.22 440.488ZM829.537 469.126C828.697 469.126 827.941 468.982 827.269 468.694C826.597 468.394 826.069 467.974 825.685 467.434C825.301 466.894 825.109 466.264 825.109 465.544H827.305C827.353 466.084 827.563 466.528 827.935 466.876C828.319 467.224 828.853 467.398 829.537 467.398C830.245 467.398 830.797 467.23 831.193 466.894C831.589 466.546 831.787 466.102 831.787 465.562C831.787 465.142 831.661 464.8 831.409 464.536C831.169 464.272 830.863 464.068 830.491 463.924C830.131 463.78 829.627 463.624 828.979 463.456C828.163 463.24 827.497 463.024 826.981 462.808C826.477 462.58 826.045 462.232 825.685 461.764C825.325 461.296 825.145 460.672 825.145 459.892C825.145 459.172 825.325 458.542 825.685 458.002C826.045 457.462 826.549 457.048 827.197 456.76C827.845 456.472 828.595 456.328 829.447 456.328C830.659 456.328 831.649 456.634 832.417 457.246C833.197 457.846 833.629 458.674 833.713 459.73H831.445C831.409 459.274 831.193 458.884 830.797 458.56C830.401 458.236 829.879 458.074 829.231 458.074C828.643 458.074 828.163 458.224 827.791 458.524C827.419 458.824 827.233 459.256 827.233 459.82C827.233 460.204 827.347 460.522 827.575 460.774C827.815 461.014 828.115 461.206 828.475 461.35C828.835 461.494 829.327 461.65 829.951 461.818C830.779 462.046 831.451 462.274 831.967 462.502C832.495 462.73 832.939 463.084 833.299 463.564C833.671 464.032 833.857 464.662 833.857 465.454C833.857 466.09 833.683 466.69 833.335 467.254C832.999 467.818 832.501 468.274 831.841 468.622C831.193 468.958 830.425 469.126 829.537 469.126ZM835.594 462.718C835.594 461.494 835.876 460.396 836.44 459.424C837.016 458.452 837.79 457.696 838.762 457.156C839.746 456.604 840.82 456.328 841.984 456.328C843.316 456.328 844.498 456.658 845.53 457.318C846.574 457.966 847.33 458.89 847.798 460.09H845.332C845.008 459.43 844.558 458.938 843.982 458.614C843.406 458.29 842.74 458.128 841.984 458.128C841.156 458.128 840.418 458.314 839.77 458.686C839.122 459.058 838.612 459.592 838.24 460.288C837.88 460.984 837.7 461.794 837.7 462.718C837.7 463.642 837.88 464.452 838.24 465.148C838.612 465.844 839.122 466.384 839.77 466.768C840.418 467.14 841.156 467.326 841.984 467.326C842.74 467.326 843.406 467.164 843.982 466.84C844.558 466.516 845.008 466.024 845.332 465.364H847.798C847.33 466.564 846.574 467.488 845.53 468.136C844.498 468.784 843.316 469.108 841.984 469.108C840.808 469.108 839.734 468.838 838.762 468.298C837.79 467.746 837.016 466.984 836.44 466.012C835.876 465.04 835.594 463.942 835.594 462.718ZM860.19 456.49V469H858.138V463.528H852.252V469H850.2V456.49H852.252V461.854H858.138V456.49H860.19ZM864.943 458.146V461.818H869.263V463.492H864.943V467.326H869.803V469H862.891V456.472H869.803V458.146H864.943ZM876.417 456.49C877.749 456.49 878.913 456.748 879.909 457.264C880.917 457.768 881.691 458.5 882.231 459.46C882.783 460.408 883.059 461.518 883.059 462.79C883.059 464.062 882.783 465.166 882.231 466.102C881.691 467.038 880.917 467.758 879.909 468.262C878.913 468.754 877.749 469 876.417 469H872.331V456.49H876.417ZM876.417 467.326C877.881 467.326 879.003 466.93 879.783 466.138C880.563 465.346 880.953 464.23 880.953 462.79C880.953 461.338 880.563 460.204 879.783 459.388C879.003 458.572 877.881 458.164 876.417 458.164H874.383V467.326H876.417ZM887.127 456.49V464.464C887.127 465.412 887.373 466.126 887.865 466.606C888.369 467.086 889.065 467.326 889.953 467.326C890.853 467.326 891.549 467.086 892.041 466.606C892.545 466.126 892.797 465.412 892.797 464.464V456.49H894.849V464.428C894.849 465.448 894.627 466.312 894.183 467.02C893.739 467.728 893.145 468.256 892.401 468.604C891.657 468.952 890.835 469.126 889.935 469.126C889.035 469.126 888.213 468.952 887.469 468.604C886.737 468.256 886.155 467.728 885.723 467.02C885.291 466.312 885.075 465.448 885.075 464.428V456.49H887.127ZM899.572 467.344H903.802V469H897.52V456.49H899.572V467.344ZM907.57 458.146V461.818H911.89V463.492H907.57V467.326H912.43V469H905.518V456.472H912.43V458.146H907.57ZM919.13 472.348V472.15C920.366 470.878 921.308 469.396 921.956 467.704C922.604 466.012 922.928 464.26 922.928 462.448C922.928 460.564 922.58 458.734 921.884 456.958C921.188 455.182 920.15 453.658 918.77 452.386V452.188H920.894C922.214 453.364 923.21 454.858 923.882 456.67C924.566 458.482 924.908 460.408 924.908 462.448C924.908 464.44 924.59 466.306 923.954 468.046C923.33 469.786 922.43 471.22 921.254 472.348H919.13Z" fill="white"/>
<path d="M450.606 679.222H443.054L441.934 682.646H434.478L442.766 659.99H450.958L459.214 682.646H451.726L450.606 679.222ZM448.878 673.878L446.83 667.574L444.782 673.878H448.878ZM470.268 659.99C472.636 659.99 474.705 660.47 476.476 661.43C478.268 662.39 479.644 663.723 480.604 665.43C481.564 667.136 482.044 669.078 482.044 671.254C482.044 673.408 481.564 675.35 480.604 677.078C479.644 678.806 478.268 680.171 476.476 681.174C474.705 682.155 472.636 682.646 470.268 682.646H460.828V659.99H470.268ZM469.628 676.31C471.228 676.31 472.497 675.872 473.436 674.998C474.374 674.123 474.844 672.875 474.844 671.254C474.844 669.632 474.374 668.384 473.436 667.51C472.497 666.635 471.228 666.198 469.628 666.198H467.932V676.31H469.628Z" fill="white"/>
<path d="M1001.62 679.222H994.067L992.947 682.646H985.491L993.779 659.99H1001.97L1010.23 682.646H1002.74L1001.62 679.222ZM999.891 673.878L997.843 667.574L995.795 673.878H999.891ZM1021.28 659.99C1023.65 659.99 1025.72 660.47 1027.49 661.43C1029.28 662.39 1030.66 663.723 1031.62 665.43C1032.58 667.136 1033.06 669.078 1033.06 671.254C1033.06 673.408 1032.58 675.35 1031.62 677.078C1030.66 678.806 1029.28 680.171 1027.49 681.174C1025.72 682.155 1023.65 682.646 1021.28 682.646H1011.84V659.99H1021.28ZM1020.64 676.31C1022.24 676.31 1023.51 675.872 1024.45 674.998C1025.39 674.123 1025.86 672.875 1025.86 671.254C1025.86 669.632 1025.39 668.384 1024.45 667.51C1023.51 666.635 1022.24 666.198 1020.64 666.198H1018.95V676.31H1020.64Z" fill="white"/>
</svg>
