<svg width="1512" height="982" viewBox="0 0 1512 982" fill="none" xmlns="http://www.w3.org/2000/svg">
<circle cx="1411.5" cy="181.5" r="37.5" fill="#D9D9D9"/>
<circle cx="1324.5" cy="389.5" r="37.5" fill="#D9D9D9"/>
<circle cx="367.5" cy="166.5" r="37.5" fill="#D9D9D9"/>
<circle cx="225.5" cy="356.5" r="37.5" fill="#D9D9D9"/>
<circle cx="1124.5" cy="770.5" r="37.5" fill="#D9D9D9"/>
<circle cx="1370.5" cy="891.5" r="37.5" fill="#D9D9D9"/>
<path d="M263 377H365.5C372.404 377 378 382.596 378 389.5C378 396.404 372.404 402 365.5 402H278C269.716 402 263 395.284 263 387V377Z" fill="#F3F3F3"/>
<path d="M1172 783H1274.5C1281.4 783 1287 788.596 1287 795.5C1287 802.404 1281.4 808 1274.5 808H1187C1178.72 808 1172 801.284 1172 793V783Z" fill="#F3F3F3"/>
<path d="M1259 218.5C1259 211.596 1264.6 206 1271.5 206H1374V216C1374 224.284 1367.28 231 1359 231H1271.5C1264.6 231 1259 225.404 1259 218.5Z" fill="#00D563"/>
<path d="M1162 414.5C1162 407.596 1167.6 402 1174.5 402H1277V412C1277 420.284 1270.28 427 1262 427H1174.5C1167.6 427 1162 421.404 1162 414.5Z" fill="#00D563"/>
<path d="M215 203.5C215 196.596 220.596 191 227.5 191H330V201C330 209.284 323.284 216 315 216H227.5C220.596 216 215 210.404 215 203.5Z" fill="#00D563"/>
<path d="M1181 915.5C1181 908.596 1186.6 903 1193.5 903H1325V913C1325 921.284 1318.28 928 1310 928H1193.5C1186.6 928 1181 922.404 1181 915.5Z" fill="#00D563"/>
<path d="M259.727 197.1V211H257.447V204.92H250.907V211H248.627V197.1H250.907V203.06H257.447V197.1H259.727ZM272.829 205.22C272.829 205.633 272.802 206.007 272.749 206.34H264.329C264.395 207.22 264.722 207.927 265.309 208.46C265.895 208.993 266.615 209.26 267.469 209.26C268.695 209.26 269.562 208.747 270.069 207.72H272.529C272.195 208.733 271.589 209.567 270.709 210.22C269.842 210.86 268.762 211.18 267.469 211.18C266.415 211.18 265.469 210.947 264.629 210.48C263.802 210 263.149 209.333 262.669 208.48C262.202 207.613 261.969 206.613 261.969 205.48C261.969 204.347 262.195 203.353 262.649 202.5C263.115 201.633 263.762 200.967 264.589 200.5C265.429 200.033 266.389 199.8 267.469 199.8C268.509 199.8 269.435 200.027 270.249 200.48C271.062 200.933 271.695 201.573 272.149 202.4C272.602 203.213 272.829 204.153 272.829 205.22ZM270.449 204.5C270.435 203.66 270.135 202.987 269.549 202.48C268.962 201.973 268.235 201.72 267.369 201.72C266.582 201.72 265.909 201.973 265.349 202.48C264.789 202.973 264.455 203.647 264.349 204.5H270.449ZM277.352 196.2V211H275.072V196.2H277.352ZM282.626 196.2V211H280.346V196.2H282.626ZM290.399 211.18C289.359 211.18 288.419 210.947 287.579 210.48C286.739 210 286.079 209.333 285.599 208.48C285.119 207.613 284.879 206.613 284.879 205.48C284.879 204.36 285.126 203.367 285.619 202.5C286.112 201.633 286.786 200.967 287.639 200.5C288.492 200.033 289.446 199.8 290.499 199.8C291.552 199.8 292.506 200.033 293.359 200.5C294.212 200.967 294.886 201.633 295.379 202.5C295.872 203.367 296.119 204.36 296.119 205.48C296.119 206.6 295.866 207.593 295.359 208.46C294.852 209.327 294.159 210 293.279 210.48C292.412 210.947 291.452 211.18 290.399 211.18ZM290.399 209.2C290.986 209.2 291.532 209.06 292.039 208.78C292.559 208.5 292.979 208.08 293.299 207.52C293.619 206.96 293.779 206.28 293.779 205.48C293.779 204.68 293.626 204.007 293.319 203.46C293.012 202.9 292.606 202.48 292.099 202.2C291.592 201.92 291.046 201.78 290.459 201.78C289.872 201.78 289.326 201.92 288.819 202.2C288.326 202.48 287.932 202.9 287.639 203.46C287.346 204.007 287.199 204.68 287.199 205.48C287.199 206.667 287.499 207.587 288.099 208.24C288.712 208.88 289.479 209.2 290.399 209.2Z" fill="black"/>
<path d="M1183.87 409.62C1184.26 409.087 1184.79 408.653 1185.45 408.32C1186.13 407.973 1186.89 407.8 1187.71 407.8C1188.69 407.8 1189.57 408.033 1190.35 408.5C1191.14 408.967 1191.76 409.633 1192.21 410.5C1192.67 411.353 1192.89 412.333 1192.89 413.44C1192.89 414.547 1192.67 415.54 1192.21 416.42C1191.76 417.287 1191.13 417.967 1190.33 418.46C1189.55 418.94 1188.67 419.18 1187.71 419.18C1186.86 419.18 1186.1 419.013 1185.43 418.68C1184.78 418.347 1184.26 417.92 1183.87 417.4V419H1181.59V404.2H1183.87V409.62ZM1190.57 413.44C1190.57 412.68 1190.41 412.027 1190.09 411.48C1189.79 410.92 1189.37 410.5 1188.85 410.22C1188.35 409.927 1187.8 409.78 1187.21 409.78C1186.64 409.78 1186.09 409.927 1185.57 410.22C1185.07 410.513 1184.65 410.94 1184.33 411.5C1184.03 412.06 1183.87 412.72 1183.87 413.48C1183.87 414.24 1184.03 414.907 1184.33 415.48C1184.65 416.04 1185.07 416.467 1185.57 416.76C1186.09 417.053 1186.64 417.2 1187.21 417.2C1187.8 417.2 1188.35 417.053 1188.85 416.76C1189.37 416.453 1189.79 416.013 1190.09 415.44C1190.41 414.867 1190.57 414.2 1190.57 413.44ZM1199.93 419.18C1198.89 419.18 1197.95 418.947 1197.11 418.48C1196.27 418 1195.61 417.333 1195.13 416.48C1194.65 415.613 1194.41 414.613 1194.41 413.48C1194.41 412.36 1194.66 411.367 1195.15 410.5C1195.64 409.633 1196.32 408.967 1197.17 408.5C1198.02 408.033 1198.98 407.8 1200.03 407.8C1201.08 407.8 1202.04 408.033 1202.89 408.5C1203.74 408.967 1204.42 409.633 1204.91 410.5C1205.4 411.367 1205.65 412.36 1205.65 413.48C1205.65 414.6 1205.4 415.593 1204.89 416.46C1204.38 417.327 1203.69 418 1202.81 418.48C1201.94 418.947 1200.98 419.18 1199.93 419.18ZM1199.93 417.2C1200.52 417.2 1201.06 417.06 1201.57 416.78C1202.09 416.5 1202.51 416.08 1202.83 415.52C1203.15 414.96 1203.31 414.28 1203.31 413.48C1203.31 412.68 1203.16 412.007 1202.85 411.46C1202.54 410.9 1202.14 410.48 1201.63 410.2C1201.12 409.92 1200.58 409.78 1199.99 409.78C1199.4 409.78 1198.86 409.92 1198.35 410.2C1197.86 410.48 1197.46 410.9 1197.17 411.46C1196.88 412.007 1196.73 412.68 1196.73 413.48C1196.73 414.667 1197.03 415.587 1197.63 416.24C1198.24 416.88 1199.01 417.2 1199.93 417.2ZM1213.46 407.8C1214.33 407.8 1215.1 407.98 1215.78 408.34C1216.48 408.7 1217.02 409.233 1217.4 409.94C1217.79 410.647 1217.98 411.5 1217.98 412.5V419H1215.72V412.84C1215.72 411.853 1215.48 411.1 1214.98 410.58C1214.49 410.047 1213.82 409.78 1212.96 409.78C1212.11 409.78 1211.43 410.047 1210.92 410.58C1210.43 411.1 1210.18 411.853 1210.18 412.84V419H1207.9V407.98H1210.18V409.24C1210.56 408.787 1211.03 408.433 1211.6 408.18C1212.19 407.927 1212.81 407.8 1213.46 407.8ZM1222.05 406.52C1221.64 406.52 1221.29 406.38 1221.01 406.1C1220.73 405.82 1220.59 405.473 1220.59 405.06C1220.59 404.647 1220.73 404.3 1221.01 404.02C1221.29 403.74 1221.64 403.6 1222.05 403.6C1222.45 403.6 1222.79 403.74 1223.07 404.02C1223.35 404.3 1223.49 404.647 1223.49 405.06C1223.49 405.473 1223.35 405.82 1223.07 406.1C1222.79 406.38 1222.45 406.52 1222.05 406.52ZM1223.17 421.16C1223.17 422.24 1222.9 423.02 1222.35 423.5C1221.82 423.993 1221.04 424.24 1220.01 424.24H1218.83V422.32H1219.61C1220.08 422.32 1220.4 422.227 1220.59 422.04C1220.79 421.867 1220.89 421.573 1220.89 421.16V407.98H1223.17V421.16ZM1230.94 419.18C1229.9 419.18 1228.96 418.947 1228.12 418.48C1227.28 418 1226.62 417.333 1226.14 416.48C1225.66 415.613 1225.42 414.613 1225.42 413.48C1225.42 412.36 1225.67 411.367 1226.16 410.5C1226.66 409.633 1227.33 408.967 1228.18 408.5C1229.04 408.033 1229.99 407.8 1231.04 407.8C1232.1 407.8 1233.05 408.033 1233.9 408.5C1234.76 408.967 1235.43 409.633 1235.92 410.5C1236.42 411.367 1236.66 412.36 1236.66 413.48C1236.66 414.6 1236.41 415.593 1235.9 416.46C1235.4 417.327 1234.7 418 1233.82 418.48C1232.96 418.947 1232 419.18 1230.94 419.18ZM1230.94 417.2C1231.53 417.2 1232.08 417.06 1232.58 416.78C1233.1 416.5 1233.52 416.08 1233.84 415.52C1234.16 414.96 1234.32 414.28 1234.32 413.48C1234.32 412.68 1234.17 412.007 1233.86 411.46C1233.56 410.9 1233.15 410.48 1232.64 410.2C1232.14 409.92 1231.59 409.78 1231 409.78C1230.42 409.78 1229.87 409.92 1229.36 410.2C1228.87 410.48 1228.48 410.9 1228.18 411.46C1227.89 412.007 1227.74 412.68 1227.74 413.48C1227.74 414.667 1228.04 415.587 1228.64 416.24C1229.26 416.88 1230.02 417.2 1230.94 417.2ZM1248.9 407.98V419H1246.62V417.7C1246.26 418.153 1245.78 418.513 1245.2 418.78C1244.62 419.033 1244.01 419.16 1243.36 419.16C1242.49 419.16 1241.71 418.98 1241.02 418.62C1240.34 418.26 1239.8 417.727 1239.4 417.02C1239.01 416.313 1238.82 415.46 1238.82 414.46V407.98H1241.08V414.12C1241.08 415.107 1241.32 415.867 1241.82 416.4C1242.31 416.92 1242.98 417.18 1243.84 417.18C1244.69 417.18 1245.36 416.92 1245.86 416.4C1246.36 415.867 1246.62 415.107 1246.62 414.12V407.98H1248.9ZM1254.19 409.58C1254.52 409.02 1254.96 408.587 1255.51 408.28C1256.07 407.96 1256.73 407.8 1257.49 407.8V410.16H1256.91C1256.01 410.16 1255.33 410.387 1254.87 410.84C1254.41 411.293 1254.19 412.08 1254.19 413.2V419H1251.91V407.98H1254.19V409.58ZM1260.5 419.14C1260.09 419.14 1259.74 419 1259.46 418.72C1259.18 418.44 1259.04 418.093 1259.04 417.68C1259.04 417.267 1259.18 416.92 1259.46 416.64C1259.74 416.36 1260.09 416.22 1260.5 416.22C1260.9 416.22 1261.24 416.36 1261.52 416.64C1261.8 416.92 1261.94 417.267 1261.94 417.68C1261.94 418.093 1261.8 418.44 1261.52 418.72C1261.24 419 1260.9 419.14 1260.5 419.14Z" fill="black"/>
<path d="M304.503 385.8C305.343 385.8 306.089 385.98 306.743 386.34C307.409 386.7 307.929 387.233 308.303 387.94C308.689 388.647 308.883 389.5 308.883 390.5V397H306.623V390.84C306.623 389.853 306.376 389.1 305.883 388.58C305.389 388.047 304.716 387.78 303.863 387.78C303.009 387.78 302.329 388.047 301.823 388.58C301.329 389.1 301.083 389.853 301.083 390.84V397H298.803V382.2H301.083V387.26C301.469 386.793 301.956 386.433 302.543 386.18C303.143 385.927 303.796 385.8 304.503 385.8ZM316.571 397.18C315.531 397.18 314.591 396.947 313.751 396.48C312.911 396 312.251 395.333 311.771 394.48C311.291 393.613 311.051 392.613 311.051 391.48C311.051 390.36 311.298 389.367 311.791 388.5C312.284 387.633 312.958 386.967 313.811 386.5C314.664 386.033 315.618 385.8 316.671 385.8C317.724 385.8 318.678 386.033 319.531 386.5C320.384 386.967 321.058 387.633 321.551 388.5C322.044 389.367 322.291 390.36 322.291 391.48C322.291 392.6 322.038 393.593 321.531 394.46C321.024 395.327 320.331 396 319.451 396.48C318.584 396.947 317.624 397.18 316.571 397.18ZM316.571 395.2C317.158 395.2 317.704 395.06 318.211 394.78C318.731 394.5 319.151 394.08 319.471 393.52C319.791 392.96 319.951 392.28 319.951 391.48C319.951 390.68 319.798 390.007 319.491 389.46C319.184 388.9 318.778 388.48 318.271 388.2C317.764 387.92 317.218 387.78 316.631 387.78C316.044 387.78 315.498 387.92 314.991 388.2C314.498 388.48 314.104 388.9 313.811 389.46C313.518 390.007 313.371 390.68 313.371 391.48C313.371 392.667 313.671 393.587 314.271 394.24C314.884 394.88 315.651 395.2 316.571 395.2ZM326.825 382.2V397H324.545V382.2H326.825ZM329.058 391.44C329.058 390.333 329.285 389.353 329.738 388.5C330.205 387.647 330.832 386.987 331.618 386.52C332.418 386.04 333.298 385.8 334.258 385.8C335.125 385.8 335.878 385.973 336.518 386.32C337.172 386.653 337.692 387.073 338.078 387.58V385.98H340.378V397H338.078V395.36C337.692 395.88 337.165 396.313 336.498 396.66C335.832 397.007 335.072 397.18 334.218 397.18C333.272 397.18 332.405 396.94 331.618 396.46C330.832 395.967 330.205 395.287 329.738 394.42C329.285 393.54 329.058 392.547 329.058 391.44ZM338.078 391.48C338.078 390.72 337.918 390.06 337.598 389.5C337.292 388.94 336.885 388.513 336.378 388.22C335.872 387.927 335.325 387.78 334.738 387.78C334.152 387.78 333.605 387.927 333.098 388.22C332.592 388.5 332.178 388.92 331.858 389.48C331.552 390.027 331.398 390.68 331.398 391.44C331.398 392.2 331.552 392.867 331.858 393.44C332.178 394.013 332.592 394.453 333.098 394.76C333.618 395.053 334.165 395.2 334.738 395.2C335.325 395.2 335.872 395.053 336.378 394.76C336.885 394.467 337.292 394.04 337.598 393.48C337.918 392.907 338.078 392.24 338.078 391.48ZM344.293 397.14C343.88 397.14 343.533 397 343.253 396.72C342.973 396.44 342.833 396.093 342.833 395.68C342.833 395.267 342.973 394.92 343.253 394.64C343.533 394.36 343.88 394.22 344.293 394.22C344.693 394.22 345.033 394.36 345.313 394.64C345.593 394.92 345.733 395.267 345.733 395.68C345.733 396.093 345.593 396.44 345.313 396.72C345.033 397 344.693 397.14 344.293 397.14Z" fill="black"/>
<circle cx="469.5" cy="770.5" r="37.5" fill="#D9D9D9"/>
<circle cx="188.5" cy="891.5" r="37.5" fill="#D9D9D9"/>
<path d="M515 779H617.5C624.404 779 630 784.596 630 791.5C630 798.404 624.404 804 617.5 804H530C521.716 804 515 797.284 515 789V779Z" fill="#F3F3F3"/>
<path d="M230 903H332.5C339.404 903 345 908.596 345 915.5C345 922.404 339.404 928 332.5 928H245C236.716 928 230 921.284 230 913V903Z" fill="#00D563"/>
<path d="M255.507 911.8C256.374 911.8 257.147 911.98 257.827 912.34C258.521 912.7 259.061 913.233 259.447 913.94C259.834 914.647 260.027 915.5 260.027 916.5V923H257.767V916.84C257.767 915.853 257.521 915.1 257.027 914.58C256.534 914.047 255.861 913.78 255.007 913.78C254.154 913.78 253.474 914.047 252.967 914.58C252.474 915.1 252.227 915.853 252.227 916.84V923H249.947V911.98H252.227V913.24C252.601 912.787 253.074 912.433 253.647 912.18C254.234 911.927 254.854 911.8 255.507 911.8ZM264.896 923H263.136V912.28H264.896V923ZM263.096 910.88C262.922 910.573 262.689 910.247 262.396 909.9C262.102 909.54 261.796 909.187 261.476 908.84C261.156 908.493 260.876 908.193 260.636 907.94V907.68H261.836C262.182 907.907 262.542 908.18 262.916 908.5C263.289 908.82 263.642 909.16 263.976 909.52C264.336 909.16 264.702 908.82 265.076 908.5C265.449 908.18 265.809 907.907 266.156 907.68H267.396V907.94C267.142 908.193 266.849 908.493 266.516 908.84C266.196 909.187 265.882 909.54 265.576 909.9C265.282 910.247 265.056 910.573 264.896 910.88H263.096ZM273.652 911.8C274.518 911.8 275.292 911.98 275.972 912.34C276.665 912.7 277.205 913.233 277.592 913.94C277.978 914.647 278.172 915.5 278.172 916.5V923H275.912V916.84C275.912 915.853 275.665 915.1 275.172 914.58C274.678 914.047 274.005 913.78 273.152 913.78C272.298 913.78 271.618 914.047 271.112 914.58C270.618 915.1 270.372 915.853 270.372 916.84V923H268.092V911.98H270.372V913.24C270.745 912.787 271.218 912.433 271.792 912.18C272.378 911.927 272.998 911.8 273.652 911.8ZM291.975 911.8C292.815 911.8 293.562 911.98 294.215 912.34C294.882 912.7 295.402 913.233 295.775 913.94C296.162 914.647 296.355 915.5 296.355 916.5V923H294.095V916.84C294.095 915.853 293.849 915.1 293.355 914.58C292.862 914.047 292.189 913.78 291.335 913.78C290.482 913.78 289.802 914.047 289.295 914.58C288.802 915.1 288.555 915.853 288.555 916.84V923H286.275V908.2H288.555V913.26C288.942 912.793 289.429 912.433 290.015 912.18C290.615 911.927 291.269 911.8 291.975 911.8ZM303.524 912.1C304.83 912.1 305.797 912.387 306.424 912.96C307.05 913.533 307.364 914.447 307.364 915.7V923H306.084L305.744 921.48H305.664C305.357 921.867 305.037 922.193 304.704 922.46C304.384 922.713 304.01 922.9 303.584 923.02C303.17 923.14 302.664 923.2 302.064 923.2C301.424 923.2 300.844 923.087 300.324 922.86C299.817 922.633 299.417 922.287 299.124 921.82C298.83 921.34 298.684 920.74 298.684 920.02C298.684 918.953 299.104 918.133 299.944 917.56C300.784 916.973 302.077 916.653 303.824 916.6L305.644 916.54V915.9C305.644 915.007 305.45 914.387 305.064 914.04C304.677 913.693 304.13 913.52 303.424 913.52C302.864 913.52 302.33 913.607 301.824 913.78C301.317 913.94 300.844 914.127 300.404 914.34L299.864 913.02C300.33 912.767 300.884 912.553 301.524 912.38C302.164 912.193 302.83 912.1 303.524 912.1ZM304.044 917.82C302.71 917.873 301.784 918.087 301.264 918.46C300.757 918.833 300.504 919.36 300.504 920.04C300.504 920.64 300.684 921.08 301.044 921.36C301.417 921.64 301.89 921.78 302.464 921.78C303.37 921.78 304.124 921.533 304.724 921.04C305.324 920.533 305.624 919.76 305.624 918.72V917.76L304.044 917.82ZM302.464 910.88C302.29 910.573 302.057 910.247 301.764 909.9C301.47 909.54 301.164 909.187 300.844 908.84C300.524 908.493 300.244 908.193 300.004 907.94V907.68H301.204C301.55 907.907 301.91 908.18 302.284 908.5C302.657 908.82 303.01 909.16 303.344 909.52C303.704 909.16 304.07 908.82 304.444 908.5C304.817 908.18 305.177 907.907 305.524 907.68H306.764V907.94C306.51 908.193 306.217 908.493 305.884 908.84C305.564 909.187 305.25 909.54 304.944 909.9C304.65 910.247 304.424 910.573 304.264 910.88H302.464ZM315.255 923.18C314.215 923.18 313.275 922.947 312.435 922.48C311.595 922 310.935 921.333 310.455 920.48C309.975 919.613 309.735 918.613 309.735 917.48C309.735 916.36 309.981 915.367 310.475 914.5C310.968 913.633 311.641 912.967 312.495 912.5C313.348 912.033 314.301 911.8 315.355 911.8C316.408 911.8 317.361 912.033 318.215 912.5C319.068 912.967 319.741 913.633 320.235 914.5C320.728 915.367 320.975 916.36 320.975 917.48C320.975 918.6 320.721 919.593 320.215 920.46C319.708 921.327 319.015 922 318.135 922.48C317.268 922.947 316.308 923.18 315.255 923.18ZM315.255 921.2C315.841 921.2 316.388 921.06 316.895 920.78C317.415 920.5 317.835 920.08 318.155 919.52C318.475 918.96 318.635 918.28 318.635 917.48C318.635 916.68 318.481 916.007 318.175 915.46C317.868 914.9 317.461 914.48 316.955 914.2C316.448 913.92 315.901 913.78 315.315 913.78C314.728 913.78 314.181 913.92 313.675 914.2C313.181 914.48 312.788 914.9 312.495 915.46C312.201 916.007 312.055 916.68 312.055 917.48C312.055 918.667 312.355 919.587 312.955 920.24C313.568 920.88 314.335 921.2 315.255 921.2ZM324.149 923.14C323.735 923.14 323.389 923 323.109 922.72C322.829 922.44 322.689 922.093 322.689 921.68C322.689 921.267 322.829 920.92 323.109 920.64C323.389 920.36 323.735 920.22 324.149 920.22C324.549 920.22 324.889 920.36 325.169 920.64C325.449 920.92 325.589 921.267 325.589 921.68C325.589 922.093 325.449 922.44 325.169 922.72C324.889 923 324.549 923.14 324.149 923.14Z" fill="black"/>
<path d="M1210 909.8C1210.85 909.8 1211.6 909.973 1212.26 910.32C1212.92 910.653 1213.44 911.073 1213.82 911.58V909.98H1216.12V921.18C1216.12 922.193 1215.9 923.093 1215.48 923.88C1215.05 924.68 1214.43 925.307 1213.62 925.76C1212.82 926.213 1211.86 926.44 1210.74 926.44C1209.24 926.44 1208 926.087 1207.02 925.38C1206.03 924.687 1205.47 923.74 1205.34 922.54H1207.6C1207.77 923.113 1208.14 923.573 1208.7 923.92C1209.27 924.28 1209.95 924.46 1210.74 924.46C1211.66 924.46 1212.4 924.18 1212.96 923.62C1213.53 923.06 1213.82 922.247 1213.82 921.18V919.34C1213.43 919.86 1212.9 920.3 1212.24 920.66C1211.58 921.007 1210.84 921.18 1210 921.18C1209.04 921.18 1208.16 920.94 1207.36 920.46C1206.57 919.967 1205.94 919.287 1205.48 918.42C1205.02 917.54 1204.8 916.547 1204.8 915.44C1204.8 914.333 1205.02 913.353 1205.48 912.5C1205.94 911.647 1206.57 910.987 1207.36 910.52C1208.16 910.04 1209.04 909.8 1210 909.8ZM1213.82 915.48C1213.82 914.72 1213.66 914.06 1213.34 913.5C1213.03 912.94 1212.62 912.513 1212.12 912.22C1211.61 911.927 1211.06 911.78 1210.48 911.78C1209.89 911.78 1209.34 911.927 1208.84 912.22C1208.33 912.5 1207.92 912.92 1207.6 913.48C1207.29 914.027 1207.14 914.68 1207.14 915.44C1207.14 916.2 1207.29 916.867 1207.6 917.44C1207.92 918.013 1208.33 918.453 1208.84 918.76C1209.36 919.053 1209.9 919.2 1210.48 919.2C1211.06 919.2 1211.61 919.053 1212.12 918.76C1212.62 918.467 1213.03 918.04 1213.34 917.48C1213.66 916.907 1213.82 916.24 1213.82 915.48ZM1229.09 909.98V921H1226.81V919.7C1226.45 920.153 1225.98 920.513 1225.39 920.78C1224.82 921.033 1224.2 921.16 1223.55 921.16C1222.68 921.16 1221.9 920.98 1221.21 920.62C1220.53 920.26 1219.99 919.727 1219.59 919.02C1219.2 918.313 1219.01 917.46 1219.01 916.46V909.98H1221.27V916.12C1221.27 917.107 1221.52 917.867 1222.01 918.4C1222.5 918.92 1223.18 919.18 1224.03 919.18C1224.88 919.18 1225.56 918.92 1226.05 918.4C1226.56 917.867 1226.81 917.107 1226.81 916.12V909.98H1229.09ZM1234.76 911.84V917.94C1234.76 918.353 1234.85 918.653 1235.04 918.84C1235.24 919.013 1235.57 919.1 1236.04 919.1H1237.44V921H1235.64C1234.61 921 1233.83 920.76 1233.28 920.28C1232.73 919.8 1232.46 919.02 1232.46 917.94V911.84H1231.16V909.98H1232.46V907.24H1234.76V909.98H1237.44V911.84H1234.76ZM1249.64 915.22C1249.64 915.633 1249.61 916.007 1249.56 916.34H1241.14C1241.21 917.22 1241.53 917.927 1242.12 918.46C1242.71 918.993 1243.43 919.26 1244.28 919.26C1245.51 919.26 1246.37 918.747 1246.88 917.72H1249.34C1249.01 918.733 1248.4 919.567 1247.52 920.22C1246.65 920.86 1245.57 921.18 1244.28 921.18C1243.23 921.18 1242.28 920.947 1241.44 920.48C1240.61 920 1239.96 919.333 1239.48 918.48C1239.01 917.613 1238.78 916.613 1238.78 915.48C1238.78 914.347 1239.01 913.353 1239.46 912.5C1239.93 911.633 1240.57 910.967 1241.4 910.5C1242.24 910.033 1243.2 909.8 1244.28 909.8C1245.32 909.8 1246.25 910.027 1247.06 910.48C1247.87 910.933 1248.51 911.573 1248.96 912.4C1249.41 913.213 1249.64 914.153 1249.64 915.22ZM1247.26 914.5C1247.25 913.66 1246.95 912.987 1246.36 912.48C1245.77 911.973 1245.05 911.72 1244.18 911.72C1243.39 911.72 1242.72 911.973 1242.16 912.48C1241.6 912.973 1241.27 913.647 1241.16 914.5H1247.26ZM1257.44 909.8C1258.31 909.8 1259.08 909.98 1259.76 910.34C1260.46 910.7 1261 911.233 1261.38 911.94C1261.77 912.647 1261.96 913.5 1261.96 914.5V921H1259.7V914.84C1259.7 913.853 1259.46 913.1 1258.96 912.58C1258.47 912.047 1257.8 911.78 1256.94 911.78C1256.09 911.78 1255.41 912.047 1254.9 912.58C1254.41 913.1 1254.16 913.853 1254.16 914.84V921H1251.88V909.98H1254.16V911.24C1254.54 910.787 1255.01 910.433 1255.58 910.18C1256.17 909.927 1256.79 909.8 1257.44 909.8ZM1272.73 911.84V917.94C1272.73 918.353 1272.82 918.653 1273.01 918.84C1273.21 919.013 1273.54 919.1 1274.01 919.1H1275.41V921H1273.61C1272.58 921 1271.8 920.76 1271.25 920.28C1270.7 919.8 1270.43 919.02 1270.43 917.94V911.84H1269.13V909.98H1270.43V907.24H1272.73V909.98H1275.41V911.84H1272.73ZM1276.75 915.44C1276.75 914.333 1276.98 913.353 1277.43 912.5C1277.9 911.647 1278.52 910.987 1279.31 910.52C1280.11 910.04 1280.99 909.8 1281.95 909.8C1282.82 909.8 1283.57 909.973 1284.21 910.32C1284.86 910.653 1285.38 911.073 1285.77 911.58V909.98H1288.07V921H1285.77V919.36C1285.38 919.88 1284.86 920.313 1284.19 920.66C1283.52 921.007 1282.76 921.18 1281.91 921.18C1280.96 921.18 1280.1 920.94 1279.31 920.46C1278.52 919.967 1277.9 919.287 1277.43 918.42C1276.98 917.54 1276.75 916.547 1276.75 915.44ZM1285.77 915.48C1285.77 914.72 1285.61 914.06 1285.29 913.5C1284.98 912.94 1284.58 912.513 1284.07 912.22C1283.56 911.927 1283.02 911.78 1282.43 911.78C1281.84 911.78 1281.3 911.927 1280.79 912.22C1280.28 912.5 1279.87 912.92 1279.55 913.48C1279.24 914.027 1279.09 914.68 1279.09 915.44C1279.09 916.2 1279.24 916.867 1279.55 917.44C1279.87 918.013 1280.28 918.453 1280.79 918.76C1281.31 919.053 1281.86 919.2 1282.43 919.2C1283.02 919.2 1283.56 919.053 1284.07 918.76C1284.58 918.467 1284.98 918.04 1285.29 917.48C1285.61 916.907 1285.77 916.24 1285.77 915.48ZM1295.5 909.8C1296.36 909.8 1297.11 909.973 1297.76 910.32C1298.43 910.653 1298.95 911.073 1299.32 911.58V909.98H1301.62V921.18C1301.62 922.193 1301.41 923.093 1300.98 923.88C1300.56 924.68 1299.94 925.307 1299.12 925.76C1298.32 926.213 1297.36 926.44 1296.24 926.44C1294.75 926.44 1293.51 926.087 1292.52 925.38C1291.54 924.687 1290.98 923.74 1290.84 922.54H1293.1C1293.28 923.113 1293.64 923.573 1294.2 923.92C1294.78 924.28 1295.46 924.46 1296.24 924.46C1297.16 924.46 1297.9 924.18 1298.46 923.62C1299.04 923.06 1299.32 922.247 1299.32 921.18V919.34C1298.94 919.86 1298.41 920.3 1297.74 920.66C1297.09 921.007 1296.34 921.18 1295.5 921.18C1294.54 921.18 1293.66 920.94 1292.86 920.46C1292.08 919.967 1291.45 919.287 1290.98 918.42C1290.53 917.54 1290.3 916.547 1290.3 915.44C1290.3 914.333 1290.53 913.353 1290.98 912.5C1291.45 911.647 1292.08 910.987 1292.86 910.52C1293.66 910.04 1294.54 909.8 1295.5 909.8ZM1299.32 915.48C1299.32 914.72 1299.16 914.06 1298.84 913.5C1298.54 912.94 1298.13 912.513 1297.62 912.22C1297.12 911.927 1296.57 911.78 1295.98 911.78C1295.4 911.78 1294.85 911.927 1294.34 912.22C1293.84 912.5 1293.42 912.92 1293.1 913.48C1292.8 914.027 1292.64 914.68 1292.64 915.44C1292.64 916.2 1292.8 916.867 1293.1 917.44C1293.42 918.013 1293.84 918.453 1294.34 918.76C1294.86 919.053 1295.41 919.2 1295.98 919.2C1296.57 919.2 1297.12 919.053 1297.62 918.76C1298.13 918.467 1298.54 918.04 1298.84 917.48C1299.16 916.907 1299.32 916.24 1299.32 915.48ZM1305.54 921.14C1305.13 921.14 1304.78 921 1304.5 920.72C1304.22 920.44 1304.08 920.093 1304.08 919.68C1304.08 919.267 1304.22 918.92 1304.5 918.64C1304.78 918.36 1305.13 918.22 1305.54 918.22C1305.94 918.22 1306.28 918.36 1306.56 918.64C1306.84 918.92 1306.98 919.267 1306.98 919.68C1306.98 920.093 1306.84 920.44 1306.56 920.72C1306.28 921 1305.94 921.14 1305.54 921.14Z" fill="black"/>
<path d="M1303.28 224.1C1302.21 224.1 1301.39 223.98 1300.82 223.74C1300.26 223.5 1299.87 223.127 1299.66 222.62C1299.44 222.113 1299.32 221.46 1299.3 220.66L1298.9 209.72H1300.54L1300.94 220.02C1300.96 220.673 1301.02 221.18 1301.12 221.54C1301.22 221.887 1301.45 222.127 1301.8 222.26C1302.16 222.393 1302.72 222.46 1303.48 222.46C1303.76 222.46 1303.96 222.54 1304.08 222.7C1304.21 222.847 1304.28 223.027 1304.28 223.24C1304.28 223.453 1304.18 223.653 1304 223.84C1303.81 224.013 1303.57 224.1 1303.28 224.1ZM1303.94 212.86V211.74L1308.42 210.42V211.56L1303.94 212.86ZM1303.94 214.96V213.84L1308.42 212.52V213.66L1303.94 214.96ZM1303.28 224.1L1303.48 222.46C1304.04 222.46 1304.48 222.413 1304.8 222.32C1305.12 222.213 1305.36 222.02 1305.52 221.74C1305.69 221.447 1305.84 221.027 1305.96 220.48C1306.08 219.933 1306.22 219.22 1306.4 218.34L1307.96 218.64C1307.9 218.88 1307.84 219.147 1307.78 219.44C1307.71 219.733 1307.65 220.027 1307.6 220.32C1307.56 220.6 1307.54 220.847 1307.54 221.06C1307.54 221.327 1307.6 221.567 1307.72 221.78C1307.84 221.993 1308.1 222.16 1308.5 222.28C1308.9 222.4 1309.51 222.46 1310.34 222.46C1310.62 222.46 1310.82 222.54 1310.94 222.7C1311.07 222.847 1311.14 223.027 1311.14 223.24C1311.14 223.453 1311.04 223.653 1310.86 223.84C1310.67 224.013 1310.43 224.1 1310.14 224.1C1309.27 224.1 1308.59 224.027 1308.1 223.88C1307.6 223.72 1307.24 223.487 1307.02 223.18C1306.79 222.86 1306.64 222.473 1306.56 222.02L1307.16 222.06C1306.94 222.487 1306.71 222.833 1306.46 223.1C1306.22 223.367 1305.95 223.573 1305.66 223.72C1305.36 223.867 1305.02 223.967 1304.64 224.02C1304.25 224.073 1303.8 224.1 1303.28 224.1ZM1306.68 227.82C1306.4 227.82 1306.16 227.72 1305.96 227.52C1305.77 227.333 1305.68 227.107 1305.68 226.84C1305.68 226.573 1305.77 226.34 1305.96 226.14C1306.16 225.94 1306.4 225.84 1306.68 225.84C1306.94 225.84 1307.17 225.94 1307.36 226.14C1307.56 226.34 1307.66 226.573 1307.66 226.84C1307.66 227.107 1307.56 227.333 1307.36 227.52C1307.17 227.72 1306.94 227.82 1306.68 227.82ZM1310.13 224.1L1310.31 222.46C1311 222.46 1311.68 222.407 1312.35 222.3C1313.02 222.193 1313.67 222.04 1314.31 221.84C1314.95 221.64 1315.56 221.4 1316.15 221.12C1316.75 220.827 1317.32 220.493 1317.85 220.12C1317.5 219.813 1317.1 219.547 1316.65 219.32C1316.2 219.093 1315.7 218.92 1315.15 218.8C1314.62 218.667 1314.05 218.6 1313.45 218.6C1313.24 218.6 1313.04 218.607 1312.85 218.62C1312.66 218.633 1312.48 218.66 1312.29 218.7C1312.1 218.727 1311.89 218.767 1311.65 218.82L1311.33 217.3C1311.69 217.193 1312.05 217.113 1312.41 217.06C1312.77 216.993 1313.12 216.96 1313.45 216.96C1314.14 216.96 1314.77 217.047 1315.33 217.22C1315.89 217.38 1316.4 217.58 1316.85 217.82C1317.32 218.06 1317.75 218.3 1318.15 218.54C1318.56 218.78 1318.96 218.987 1319.35 219.16C1319.74 219.32 1320.14 219.4 1320.55 219.4H1320.97L1321.11 220.84C1320.54 220.84 1320.01 220.92 1319.53 221.08C1319.05 221.24 1318.58 221.447 1318.11 221.7C1317.66 221.94 1317.18 222.2 1316.67 222.48C1316.16 222.747 1315.6 223.007 1314.99 223.26C1314.38 223.5 1313.67 223.7 1312.87 223.86C1312.08 224.02 1311.17 224.1 1310.13 224.1ZM1321.19 228.64L1320.61 227.12C1321.58 226.8 1322.39 226.433 1323.03 226.02C1323.68 225.607 1324.19 225.167 1324.57 224.7C1324.95 224.233 1325.23 223.76 1325.39 223.28C1325.55 222.787 1325.63 222.313 1325.63 221.86C1325.63 221.207 1325.48 220.547 1325.19 219.88C1324.91 219.2 1324.59 218.56 1324.25 217.96L1325.71 217.22C1325.96 217.687 1326.18 218.147 1326.37 218.6C1326.57 219.053 1326.74 219.48 1326.89 219.88C1327.05 220.28 1327.17 220.647 1327.27 220.98C1327.45 221.553 1327.69 221.947 1327.99 222.16C1328.29 222.36 1328.71 222.46 1329.23 222.46C1329.51 222.46 1329.71 222.54 1329.83 222.7C1329.96 222.847 1330.03 223.027 1330.03 223.24C1330.03 223.453 1329.93 223.653 1329.75 223.84C1329.56 224.013 1329.32 224.1 1329.03 224.1C1328.44 224.1 1327.96 224 1327.59 223.8C1327.23 223.587 1326.95 223.313 1326.77 222.98C1326.58 222.633 1326.45 222.273 1326.39 221.9L1327.03 222.26C1327.03 223.14 1326.83 223.94 1326.43 224.66C1326.04 225.393 1325.54 226.027 1324.93 226.56C1324.31 227.107 1323.67 227.553 1323.01 227.9C1322.34 228.247 1321.73 228.493 1321.19 228.64ZM1329.04 224.1L1329.24 222.46C1329.61 222.46 1329.92 222.38 1330.18 222.22C1330.43 222.06 1330.68 221.793 1330.92 221.42C1331.16 221.047 1331.42 220.547 1331.7 219.92C1332.08 219.067 1332.46 218.42 1332.84 217.98C1333.22 217.54 1333.6 217.24 1333.98 217.08C1334.36 216.92 1334.74 216.84 1335.12 216.84C1335.57 216.84 1335.99 216.96 1336.38 217.2C1336.76 217.427 1337.1 217.733 1337.4 218.12C1337.69 218.507 1337.92 218.933 1338.08 219.4C1338.25 219.853 1338.34 220.307 1338.34 220.76C1338.34 221.56 1338.2 222.2 1337.92 222.68C1337.64 223.147 1337.28 223.487 1336.84 223.7C1336.41 223.9 1335.96 224 1335.5 224C1335.08 224 1334.55 223.92 1333.9 223.76C1333.26 223.6 1332.44 223.193 1331.46 222.54L1332.24 221.28C1332.89 221.693 1333.48 221.98 1334 222.14C1334.53 222.287 1334.97 222.36 1335.32 222.36C1335.7 222.36 1336.01 222.307 1336.24 222.2C1336.46 222.08 1336.63 221.913 1336.74 221.7C1336.84 221.487 1336.9 221.247 1336.9 220.98C1336.9 220.593 1336.8 220.207 1336.62 219.82C1336.43 219.433 1336.19 219.113 1335.9 218.86C1335.62 218.607 1335.32 218.48 1335 218.48C1334.76 218.48 1334.52 218.547 1334.3 218.68C1334.07 218.813 1333.84 219.06 1333.6 219.42C1333.36 219.78 1333.08 220.3 1332.78 220.98C1332.46 221.7 1332.15 222.273 1331.86 222.7C1331.58 223.113 1331.29 223.42 1331 223.62C1330.7 223.82 1330.4 223.947 1330.08 224C1329.77 224.067 1329.42 224.1 1329.04 224.1Z" fill="black"/>
</svg>
