<svg width="1165" height="863" viewBox="0 0 1165 863" fill="none" xmlns="http://www.w3.org/2000/svg">
<rect x="472.081" y="143.5" width="413" height="203" rx="16.5" fill="#F2F2F2" stroke="#00D563" stroke-width="7"/>
<path d="M593.172 222.75C593.172 220.65 593.592 218.78 594.432 217.14C595.292 215.5 596.512 214.23 598.092 213.33C599.672 212.41 601.532 211.95 603.672 211.95C605.512 211.95 607.152 212.3 608.592 213C610.052 213.68 611.232 214.65 612.132 215.91C613.052 217.17 613.662 218.64 613.962 220.32H606.942C606.622 219.62 606.162 219.08 605.562 218.7C604.982 218.3 604.312 218.1 603.552 218.1C602.432 218.1 601.542 218.52 600.882 219.36C600.242 220.2 599.922 221.33 599.922 222.75C599.922 224.17 600.242 225.3 600.882 226.14C601.542 226.98 602.432 227.4 603.552 227.4C604.312 227.4 604.982 227.21 605.562 226.83C606.162 226.43 606.622 225.88 606.942 225.18H613.962C613.662 226.86 613.052 228.33 612.132 229.59C611.232 230.85 610.052 231.83 608.592 232.53C607.152 233.21 605.512 233.55 603.672 233.55C601.532 233.55 599.672 233.1 598.092 232.2C596.512 231.28 595.292 230 594.432 228.36C593.592 226.72 593.172 224.85 593.172 222.75ZM629.98 230.19H622.9L621.85 233.4H614.86L622.63 212.16H630.31L638.05 233.4H631.03L629.98 230.19ZM628.36 225.18L626.44 219.27L624.52 225.18H628.36ZM665.093 212.16V233.4H658.463V222.81L655.193 233.4H649.493L646.223 222.81V233.4H639.563V212.16H647.723L652.403 224.91L656.963 212.16H665.093ZM685.468 219.45C685.468 220.79 685.158 222.01 684.538 223.11C683.918 224.19 682.998 225.05 681.778 225.69C680.578 226.33 679.118 226.65 677.398 226.65H674.758V233.4H668.098V212.16H677.398C679.998 212.16 681.988 212.82 683.368 214.14C684.768 215.46 685.468 217.23 685.468 219.45ZM676.648 221.4C678.028 221.4 678.718 220.75 678.718 219.45C678.718 218.15 678.028 217.5 676.648 217.5H674.758V221.4H676.648ZM701.201 230.19H694.121L693.071 233.4H686.081L693.851 212.16H701.531L709.271 233.4H702.251L701.201 230.19ZM699.581 225.18L697.661 219.27L695.741 225.18H699.581ZM717.444 212.16V233.4H710.784V212.16H717.444ZM733.472 219.42C733.212 219 732.842 218.68 732.362 218.46C731.882 218.22 731.302 218.1 730.622 218.1C729.342 218.1 728.352 218.52 727.652 219.36C726.952 220.18 726.602 221.31 726.602 222.75C726.602 224.41 726.992 225.65 727.772 226.47C728.552 227.29 729.752 227.7 731.372 227.7C732.912 227.7 734.152 227.08 735.092 225.84H729.782V221.13H740.612V227.79C739.692 229.37 738.422 230.73 736.802 231.87C735.182 232.99 733.132 233.55 730.652 233.55C728.452 233.55 726.532 233.1 724.892 232.2C723.272 231.28 722.022 230 721.142 228.36C720.282 226.72 719.852 224.85 719.852 222.75C719.852 220.65 720.282 218.78 721.142 217.14C722.022 215.5 723.272 214.23 724.892 213.33C726.512 212.41 728.412 211.95 730.592 211.95C733.372 211.95 735.632 212.62 737.372 213.96C739.132 215.3 740.172 217.12 740.492 219.42H733.472ZM763.38 233.4H756.72L749.67 222.72V233.4H743.01V212.16H749.67L756.72 223.02V212.16H763.38V233.4ZM608.407 283.98V283.71C604.237 279.42 602.107 273.51 602.107 267.42C602.107 261.3 604.237 255 608.857 250.65V250.38H606.007C601.747 254.31 599.467 260.64 599.467 267.42C599.467 274.17 601.747 280.23 605.557 283.98H608.407ZM627.76 270.15C627.76 264.96 624.13 261.69 619.45 261.69C614.8 261.69 611.14 264.96 611.14 270.15C611.14 275.37 614.68 278.67 619.33 278.67C624.01 278.67 627.76 275.37 627.76 270.15ZM613.93 270.15C613.93 266.01 616.54 264.06 619.42 264.06C622.24 264.06 624.97 266.01 624.97 270.15C624.97 274.32 622.18 276.27 619.33 276.27C616.48 276.27 613.93 274.32 613.93 270.15ZM634.08 265.02V256.2H631.35V278.4H634.08V275.37C635.1 277.17 637.23 278.67 640.23 278.67C644.64 278.67 648.03 275.22 648.03 270.12C648.03 264.99 644.67 261.69 640.23 261.69C637.32 261.69 635.13 263.19 634.08 265.02ZM645.24 270.12C645.24 273.99 642.69 276.27 639.66 276.27C636.69 276.27 634.08 274.02 634.08 270.15C634.08 266.34 636.69 264.06 639.66 264.06C642.69 264.06 645.24 266.25 645.24 270.12ZM653.093 259.29C654.113 259.29 654.923 258.48 654.923 257.43C654.923 256.38 654.113 255.57 653.093 255.57C652.073 255.57 651.263 256.38 651.263 257.43C651.263 258.48 652.073 259.29 653.093 259.29ZM651.713 261.96V281.91C651.713 283.35 651.143 283.89 649.643 283.89H648.503V286.2H650.093C652.883 286.2 654.443 284.94 654.443 281.97V261.96H651.713ZM666.054 264C668.874 264 671.274 265.77 671.244 268.98H660.864C661.164 265.77 663.384 264 666.054 264ZM673.734 273.33H670.794C670.194 275.1 668.634 276.36 666.174 276.36C663.384 276.36 661.044 274.53 660.834 271.2H673.974C674.034 270.63 674.064 270.15 674.064 269.55C674.064 265.05 670.944 261.69 666.174 261.69C661.374 261.69 658.044 264.96 658.044 270.15C658.044 275.37 661.494 278.67 666.174 278.67C670.254 278.67 672.894 276.33 673.734 273.33ZM676.648 270.15C676.648 275.37 679.978 278.67 684.658 278.67C688.738 278.67 691.408 276.39 692.248 273.12H689.308C688.708 275.19 687.088 276.36 684.658 276.36C681.658 276.36 679.438 274.23 679.438 270.15C679.438 266.13 681.658 264 684.658 264C687.088 264 688.738 265.26 689.308 267.24H692.248C691.408 263.79 688.738 261.69 684.658 261.69C679.978 261.69 676.648 264.99 676.648 270.15ZM696.491 273.9C696.491 277.2 698.141 278.4 701.051 278.4H703.511V276.09H701.501C699.821 276.09 699.221 275.52 699.221 273.9V264.21H703.511V261.96H699.221V257.82H696.491V261.96H694.361V264.21H696.491V273.9ZM706.818 278.4H709.548V261.96H706.818V278.4ZM708.228 259.29C709.218 259.29 710.028 258.48 710.028 257.43C710.028 256.38 709.218 255.57 708.228 255.57C707.178 255.57 706.368 256.38 706.368 257.43C706.368 258.48 707.178 259.29 708.228 259.29ZM712.251 261.96L718.701 278.4H721.881L728.331 261.96H725.421L720.321 275.88L715.191 261.96H712.251ZM738.008 264C740.828 264 743.228 265.77 743.198 268.98H732.818C733.118 265.77 735.338 264 738.008 264ZM745.688 273.33H742.748C742.148 275.1 740.588 276.36 738.128 276.36C735.338 276.36 732.998 274.53 732.788 271.2H745.928C745.988 270.63 746.018 270.15 746.018 269.55C746.018 265.05 742.898 261.69 738.128 261.69C733.328 261.69 729.998 264.96 729.998 270.15C729.998 275.37 733.448 278.67 738.128 278.67C742.208 278.67 744.848 276.33 745.688 273.33ZM748.751 283.98V283.71C752.921 279.42 755.051 273.51 755.051 267.42C755.051 261.3 752.921 255 748.301 250.65V250.38H751.151C755.411 254.31 757.691 260.64 757.691 267.42C757.691 274.17 755.411 280.23 751.601 283.98H748.751Z" fill="black"/>
<rect x="193.549" y="496.382" width="419.776" height="108.329" rx="54.1647" fill="#00D563"/>
<path d="M366.306 533.482H359.226L358.176 536.692H351.186L358.956 515.452H366.636L374.376 536.692H367.356L366.306 533.482ZM364.686 528.472L362.766 522.562L360.846 528.472H364.686ZM384.739 515.452C386.959 515.452 388.899 515.902 390.559 516.802C392.239 517.702 393.529 518.952 394.429 520.552C395.329 522.152 395.779 523.972 395.779 526.012C395.779 528.032 395.329 529.852 394.429 531.472C393.529 533.092 392.239 534.372 390.559 535.312C388.899 536.232 386.959 536.692 384.739 536.692H375.889V515.452H384.739ZM384.139 530.752C385.639 530.752 386.829 530.342 387.709 529.522C388.589 528.702 389.029 527.532 389.029 526.012C389.029 524.492 388.589 523.322 387.709 522.502C386.829 521.682 385.639 521.272 384.139 521.272H382.549V530.752H384.139ZM411.592 536.902C409.052 536.902 406.952 536.312 405.292 535.132C403.652 533.932 402.762 532.182 402.622 529.882H409.702C409.802 531.102 410.342 531.712 411.322 531.712C411.682 531.712 411.982 531.632 412.222 531.472C412.482 531.292 412.612 531.022 412.612 530.662C412.612 530.162 412.342 529.762 411.802 529.462C411.262 529.142 410.422 528.782 409.282 528.382C407.922 527.902 406.792 527.432 405.892 526.972C405.012 526.512 404.252 525.842 403.612 524.962C402.972 524.082 402.662 522.952 402.682 521.572C402.682 520.192 403.032 519.022 403.732 518.062C404.452 517.082 405.422 516.342 406.642 515.842C407.882 515.342 409.272 515.092 410.812 515.092C413.412 515.092 415.472 515.692 416.992 516.892C418.532 518.092 419.342 519.782 419.422 521.962H412.252C412.232 521.362 412.082 520.932 411.802 520.672C411.522 520.412 411.182 520.282 410.782 520.282C410.502 520.282 410.272 520.382 410.092 520.582C409.912 520.762 409.822 521.022 409.822 521.362C409.822 521.842 410.082 522.242 410.602 522.562C411.142 522.862 411.992 523.232 413.152 523.672C414.492 524.172 415.592 524.652 416.452 525.112C417.332 525.572 418.092 526.212 418.732 527.032C419.372 527.852 419.692 528.882 419.692 530.122C419.692 531.422 419.372 532.592 418.732 533.632C418.092 534.652 417.162 535.452 415.942 536.032C414.722 536.612 413.272 536.902 411.592 536.902ZM428.692 520.762V523.372H435.292V528.382H428.692V531.382H436.192V536.692H422.032V515.452H436.192V520.762H428.692ZM455.382 515.452V520.732H449.742V536.692H443.082V520.732H437.502V515.452H455.382ZM249.143 567.04C247.967 565.912 247.061 564.478 246.425 562.738C245.801 560.998 245.489 559.132 245.489 557.14C245.489 555.1 245.825 553.174 246.497 551.362C247.181 549.55 248.183 548.056 249.503 546.88H251.627V547.078C250.247 548.35 249.209 549.874 248.513 551.65C247.817 553.426 247.469 555.256 247.469 557.14C247.469 558.952 247.793 560.704 248.441 562.396C249.089 564.088 250.031 565.57 251.267 566.842V567.04H249.143ZM261.008 561.136H255.77L254.87 563.692H252.728L257.21 551.164H259.586L264.068 563.692H261.908L261.008 561.136ZM260.432 559.462L258.398 553.648L256.346 559.462H260.432ZM268.051 551.182V559.156C268.051 560.104 268.297 560.818 268.789 561.298C269.293 561.778 269.989 562.018 270.877 562.018C271.777 562.018 272.473 561.778 272.965 561.298C273.469 560.818 273.721 560.104 273.721 559.156V551.182H275.773V559.12C275.773 560.14 275.551 561.004 275.107 561.712C274.663 562.42 274.069 562.948 273.325 563.296C272.581 563.644 271.759 563.818 270.859 563.818C269.959 563.818 269.137 563.644 268.393 563.296C267.661 562.948 267.079 562.42 266.647 561.712C266.215 561.004 265.999 560.14 265.999 559.12V551.182H268.051ZM282.53 551.182C283.862 551.182 285.026 551.44 286.022 551.956C287.03 552.46 287.804 553.192 288.344 554.152C288.896 555.1 289.172 556.21 289.172 557.482C289.172 558.754 288.896 559.858 288.344 560.794C287.804 561.73 287.03 562.45 286.022 562.954C285.026 563.446 283.862 563.692 282.53 563.692H278.444V551.182H282.53ZM282.53 562.018C283.994 562.018 285.116 561.622 285.896 560.83C286.676 560.038 287.066 558.922 287.066 557.482C287.066 556.03 286.676 554.896 285.896 554.08C285.116 553.264 283.994 552.856 282.53 552.856H280.496V562.018H282.53ZM293.258 551.182V563.692H291.206V551.182H293.258ZM298.004 552.838V556.51H302.324V558.184H298.004V562.018H302.864V563.692H295.952V551.164H302.864V552.838H298.004ZM315.67 563.692H313.618L307.444 554.35V563.692H305.392V551.164H307.444L313.618 560.488V551.164H315.67V563.692ZM317.68 557.41C317.68 556.186 317.962 555.088 318.526 554.116C319.102 553.144 319.876 552.388 320.848 551.848C321.832 551.296 322.906 551.02 324.07 551.02C325.402 551.02 326.584 551.35 327.616 552.01C328.66 552.658 329.416 553.582 329.884 554.782H327.418C327.094 554.122 326.644 553.63 326.068 553.306C325.492 552.982 324.826 552.82 324.07 552.82C323.242 552.82 322.504 553.006 321.856 553.378C321.208 553.75 320.698 554.284 320.326 554.98C319.966 555.676 319.786 556.486 319.786 557.41C319.786 558.334 319.966 559.144 320.326 559.84C320.698 560.536 321.208 561.076 321.856 561.46C322.504 561.832 323.242 562.018 324.07 562.018C324.826 562.018 325.492 561.856 326.068 561.532C326.644 561.208 327.094 560.716 327.418 560.056H329.884C329.416 561.256 328.66 562.18 327.616 562.828C326.584 563.476 325.402 563.8 324.07 563.8C322.894 563.8 321.82 563.53 320.848 562.99C319.876 562.438 319.102 561.676 318.526 560.704C317.962 559.732 317.68 558.634 317.68 557.41ZM334.338 552.838V556.51H338.658V558.184H334.338V562.018H339.198V563.692H332.286V551.164H339.198V552.838H334.338ZM343.976 561.226L341.798 566.194H340.466L341.744 561.226H343.976ZM359.192 554.908C359.192 555.544 359.042 556.144 358.742 556.708C358.442 557.272 357.962 557.734 357.302 558.094C356.642 558.442 355.796 558.616 354.764 558.616H352.496V563.692H350.444V551.182H354.764C355.724 551.182 356.534 551.35 357.194 551.686C357.866 552.01 358.364 552.454 358.688 553.018C359.024 553.582 359.192 554.212 359.192 554.908ZM354.764 556.942C355.544 556.942 356.126 556.768 356.51 556.42C356.894 556.06 357.086 555.556 357.086 554.908C357.086 553.54 356.312 552.856 354.764 552.856H352.496V556.942H354.764ZM363.202 562.036H367.432V563.692H361.15V551.182H363.202V562.036ZM376.69 561.136H371.452L370.552 563.692H368.41L372.892 551.164H375.268L379.75 563.692H377.59L376.69 561.136ZM376.114 559.462L374.08 553.648L372.028 559.462H376.114ZM381.014 557.41C381.014 556.186 381.296 555.088 381.86 554.116C382.436 553.144 383.21 552.388 384.182 551.848C385.166 551.296 386.24 551.02 387.404 551.02C388.736 551.02 389.918 551.35 390.95 552.01C391.994 552.658 392.75 553.582 393.218 554.782H390.752C390.428 554.122 389.978 553.63 389.402 553.306C388.826 552.982 388.16 552.82 387.404 552.82C386.576 552.82 385.838 553.006 385.19 553.378C384.542 553.75 384.032 554.284 383.66 554.98C383.3 555.676 383.12 556.486 383.12 557.41C383.12 558.334 383.3 559.144 383.66 559.84C384.032 560.536 384.542 561.076 385.19 561.46C385.838 561.832 386.576 562.018 387.404 562.018C388.16 562.018 388.826 561.856 389.402 561.532C389.978 561.208 390.428 560.716 390.752 560.056H393.218C392.75 561.256 391.994 562.18 390.95 562.828C389.918 563.476 388.736 563.8 387.404 563.8C386.228 563.8 385.154 563.53 384.182 562.99C383.21 562.438 382.436 561.676 381.86 560.704C381.296 559.732 381.014 558.634 381.014 557.41ZM397.672 552.838V556.51H401.992V558.184H397.672V562.018H402.532V563.692H395.62V551.164H402.532V552.838H397.672ZM418.236 551.182V563.692H416.184V555.124L412.368 563.692H410.946L407.112 555.124V563.692H405.06V551.182H407.274L411.666 560.992L416.04 551.182H418.236ZM422.985 552.838V556.51H427.305V558.184H422.985V562.018H427.845V563.692H420.933V551.164H427.845V552.838H422.985ZM440.65 563.692H438.598L432.424 554.35V563.692H430.372V551.164H432.424L438.598 560.488V551.164H440.65V563.692ZM451.427 551.182V552.856H448.097V563.692H446.045V552.856H442.697V551.182H451.427ZM467.847 563.692L466.299 562.144C465.699 562.744 465.045 563.194 464.337 563.494C463.629 563.782 462.837 563.926 461.961 563.926C461.073 563.926 460.287 563.77 459.603 563.458C458.919 563.146 458.391 562.702 458.019 562.126C457.647 561.538 457.461 560.86 457.461 560.092C457.461 559.228 457.707 558.46 458.199 557.788C458.691 557.104 459.423 556.564 460.395 556.168C460.047 555.748 459.801 555.358 459.657 554.998C459.513 554.626 459.441 554.218 459.441 553.774C459.441 553.222 459.579 552.73 459.855 552.298C460.143 551.866 460.551 551.524 461.079 551.272C461.607 551.02 462.219 550.894 462.915 550.894C463.623 550.894 464.223 551.032 464.715 551.308C465.219 551.572 465.591 551.938 465.831 552.406C466.083 552.874 466.185 553.396 466.137 553.972H464.085C464.097 553.528 463.989 553.186 463.761 552.946C463.533 552.694 463.221 552.568 462.825 552.568C462.429 552.568 462.105 552.688 461.853 552.928C461.613 553.156 461.493 553.438 461.493 553.774C461.493 554.098 461.583 554.422 461.763 554.746C461.955 555.058 462.285 555.466 462.753 555.97L466.065 559.264L467.343 557.158H469.557L467.937 559.93L467.487 560.668L470.529 563.692H467.847ZM461.961 562.18C463.089 562.18 464.085 561.718 464.949 560.794L461.637 557.464C460.221 558.028 459.513 558.88 459.513 560.02C459.513 560.632 459.741 561.148 460.197 561.568C460.653 561.976 461.241 562.18 461.961 562.18ZM483.246 557.266C483.918 557.386 484.488 557.74 484.956 558.328C485.424 558.916 485.658 559.582 485.658 560.326C485.658 560.962 485.49 561.538 485.154 562.054C484.83 562.558 484.356 562.96 483.732 563.26C483.108 563.548 482.382 563.692 481.554 563.692H476.55V551.182H481.32C482.172 551.182 482.904 551.326 483.516 551.614C484.128 551.902 484.59 552.292 484.902 552.784C485.214 553.264 485.37 553.804 485.37 554.404C485.37 555.124 485.178 555.724 484.794 556.204C484.41 556.684 483.894 557.038 483.246 557.266ZM478.602 556.438H481.14C481.812 556.438 482.334 556.288 482.706 555.988C483.09 555.676 483.282 555.232 483.282 554.656C483.282 554.092 483.09 553.654 482.706 553.342C482.334 553.018 481.812 552.856 481.14 552.856H478.602V556.438ZM481.374 562.018C482.07 562.018 482.616 561.85 483.012 561.514C483.408 561.178 483.606 560.71 483.606 560.11C483.606 559.498 483.396 559.012 482.976 558.652C482.556 558.292 481.998 558.112 481.302 558.112H478.602V562.018H481.374ZM489.922 551.182V559.156C489.922 560.104 490.168 560.818 490.66 561.298C491.164 561.778 491.86 562.018 492.748 562.018C493.648 562.018 494.344 561.778 494.836 561.298C495.34 560.818 495.592 560.104 495.592 559.156V551.182H497.644V559.12C497.644 560.14 497.422 561.004 496.978 561.712C496.534 562.42 495.94 562.948 495.196 563.296C494.452 563.644 493.63 563.818 492.73 563.818C491.83 563.818 491.008 563.644 490.264 563.296C489.532 562.948 488.95 562.42 488.518 561.712C488.086 561.004 487.87 560.14 487.87 559.12V551.182H489.922ZM504.402 551.182C505.734 551.182 506.898 551.44 507.894 551.956C508.902 552.46 509.676 553.192 510.216 554.152C510.768 555.1 511.044 556.21 511.044 557.482C511.044 558.754 510.768 559.858 510.216 560.794C509.676 561.73 508.902 562.45 507.894 562.954C506.898 563.446 505.734 563.692 504.402 563.692H500.316V551.182H504.402ZM504.402 562.018C505.866 562.018 506.988 561.622 507.768 560.83C508.548 560.038 508.938 558.922 508.938 557.482C508.938 556.03 508.548 554.896 507.768 554.08C506.988 553.264 505.866 552.856 504.402 552.856H502.368V562.018H504.402ZM522.131 554.782C521.807 554.158 521.357 553.69 520.781 553.378C520.205 553.054 519.539 552.892 518.783 552.892C517.955 552.892 517.217 553.078 516.569 553.45C515.921 553.822 515.411 554.35 515.039 555.034C514.679 555.718 514.499 556.51 514.499 557.41C514.499 558.31 514.679 559.108 515.039 559.804C515.411 560.488 515.921 561.016 516.569 561.388C517.217 561.76 517.955 561.946 518.783 561.946C519.899 561.946 520.805 561.634 521.501 561.01C522.197 560.386 522.623 559.54 522.779 558.472H518.081V556.834H524.975V558.436C524.843 559.408 524.495 560.302 523.931 561.118C523.379 561.934 522.653 562.588 521.753 563.08C520.865 563.56 519.875 563.8 518.783 563.8C517.607 563.8 516.533 563.53 515.561 562.99C514.589 562.438 513.815 561.676 513.239 560.704C512.675 559.732 512.393 558.634 512.393 557.41C512.393 556.186 512.675 555.088 513.239 554.116C513.815 553.144 514.589 552.388 515.561 551.848C516.545 551.296 517.619 551.02 518.783 551.02C520.115 551.02 521.297 551.35 522.329 552.01C523.373 552.658 524.129 553.582 524.597 554.782H522.131ZM529.051 552.838V556.51H533.371V558.184H529.051V562.018H533.911V563.692H526.999V551.164H533.911V552.838H529.051ZM544.521 551.182V552.856H541.191V563.692H539.139V552.856H535.791V551.182H544.521ZM560.941 563.692L559.393 562.144C558.793 562.744 558.139 563.194 557.431 563.494C556.723 563.782 555.931 563.926 555.055 563.926C554.167 563.926 553.381 563.77 552.697 563.458C552.013 563.146 551.485 562.702 551.113 562.126C550.741 561.538 550.555 560.86 550.555 560.092C550.555 559.228 550.801 558.46 551.293 557.788C551.785 557.104 552.517 556.564 553.489 556.168C553.141 555.748 552.895 555.358 552.751 554.998C552.607 554.626 552.535 554.218 552.535 553.774C552.535 553.222 552.673 552.73 552.949 552.298C553.237 551.866 553.645 551.524 554.173 551.272C554.701 551.02 555.313 550.894 556.009 550.894C556.717 550.894 557.317 551.032 557.809 551.308C558.313 551.572 558.685 551.938 558.925 552.406C559.177 552.874 559.279 553.396 559.231 553.972H557.179C557.191 553.528 557.083 553.186 556.855 552.946C556.627 552.694 556.315 552.568 555.919 552.568C555.523 552.568 555.199 552.688 554.947 552.928C554.707 553.156 554.587 553.438 554.587 553.774C554.587 554.098 554.677 554.422 554.857 554.746C555.049 555.058 555.379 555.466 555.847 555.97L559.159 559.264L560.437 557.158H562.651L561.031 559.93L560.581 560.668L563.623 563.692H560.941ZM555.055 562.18C556.183 562.18 557.179 561.718 558.043 560.794L554.731 557.464C553.315 558.028 552.607 558.88 552.607 560.02C552.607 560.632 552.835 561.148 553.291 561.568C553.747 561.976 554.335 562.18 555.055 562.18ZM357.37 590.818C356.53 590.818 355.774 590.674 355.102 590.386C354.43 590.086 353.902 589.666 353.518 589.126C353.134 588.586 352.942 587.956 352.942 587.236H355.138C355.186 587.776 355.396 588.22 355.768 588.568C356.152 588.916 356.686 589.09 357.37 589.09C358.078 589.09 358.63 588.922 359.026 588.586C359.422 588.238 359.62 587.794 359.62 587.254C359.62 586.834 359.494 586.492 359.242 586.228C359.002 585.964 358.696 585.76 358.324 585.616C357.964 585.472 357.46 585.316 356.812 585.148C355.996 584.932 355.33 584.716 354.814 584.5C354.31 584.272 353.878 583.924 353.518 583.456C353.158 582.988 352.978 582.364 352.978 581.584C352.978 580.864 353.158 580.234 353.518 579.694C353.878 579.154 354.382 578.74 355.03 578.452C355.678 578.164 356.428 578.02 357.28 578.02C358.492 578.02 359.482 578.326 360.25 578.938C361.03 579.538 361.462 580.366 361.546 581.422H359.278C359.242 580.966 359.026 580.576 358.63 580.252C358.234 579.928 357.712 579.766 357.064 579.766C356.476 579.766 355.996 579.916 355.624 580.216C355.252 580.516 355.066 580.948 355.066 581.512C355.066 581.896 355.18 582.214 355.408 582.466C355.648 582.706 355.948 582.898 356.308 583.042C356.668 583.186 357.16 583.342 357.784 583.51C358.612 583.738 359.284 583.966 359.8 584.194C360.328 584.422 360.772 584.776 361.132 585.256C361.504 585.724 361.69 586.354 361.69 587.146C361.69 587.782 361.516 588.382 361.168 588.946C360.832 589.51 360.334 589.966 359.674 590.314C359.026 590.65 358.258 590.818 357.37 590.818ZM363.427 584.41C363.427 583.186 363.709 582.088 364.273 581.116C364.849 580.144 365.623 579.388 366.595 578.848C367.579 578.296 368.653 578.02 369.817 578.02C371.149 578.02 372.331 578.35 373.363 579.01C374.407 579.658 375.163 580.582 375.631 581.782H373.165C372.841 581.122 372.391 580.63 371.815 580.306C371.239 579.982 370.573 579.82 369.817 579.82C368.989 579.82 368.251 580.006 367.603 580.378C366.955 580.75 366.445 581.284 366.073 581.98C365.713 582.676 365.533 583.486 365.533 584.41C365.533 585.334 365.713 586.144 366.073 586.84C366.445 587.536 366.955 588.076 367.603 588.46C368.251 588.832 368.989 589.018 369.817 589.018C370.573 589.018 371.239 588.856 371.815 588.532C372.391 588.208 372.841 587.716 373.165 587.056H375.631C375.163 588.256 374.407 589.18 373.363 589.828C372.331 590.476 371.149 590.8 369.817 590.8C368.641 590.8 367.567 590.53 366.595 589.99C365.623 589.438 364.849 588.676 364.273 587.704C363.709 586.732 363.427 585.634 363.427 584.41ZM388.023 578.182V590.692H385.971V585.22H380.085V590.692H378.033V578.182H380.085V583.546H385.971V578.182H388.023ZM392.777 579.838V583.51H397.097V585.184H392.777V589.018H397.637V590.692H390.725V578.164H397.637V579.838H392.777ZM404.25 578.182C405.582 578.182 406.746 578.44 407.742 578.956C408.75 579.46 409.524 580.192 410.064 581.152C410.616 582.1 410.892 583.21 410.892 584.482C410.892 585.754 410.616 586.858 410.064 587.794C409.524 588.73 408.75 589.45 407.742 589.954C406.746 590.446 405.582 590.692 404.25 590.692H400.164V578.182H404.25ZM404.25 589.018C405.714 589.018 406.836 588.622 407.616 587.83C408.396 587.038 408.786 585.922 408.786 584.482C408.786 583.03 408.396 581.896 407.616 581.08C406.836 580.264 405.714 579.856 404.25 579.856H402.216V589.018H404.25ZM414.96 578.182V586.156C414.96 587.104 415.206 587.818 415.698 588.298C416.202 588.778 416.898 589.018 417.786 589.018C418.686 589.018 419.382 588.778 419.874 588.298C420.378 587.818 420.63 587.104 420.63 586.156V578.182H422.682V586.12C422.682 587.14 422.46 588.004 422.016 588.712C421.572 589.42 420.978 589.948 420.234 590.296C419.49 590.644 418.668 590.818 417.768 590.818C416.868 590.818 416.046 590.644 415.302 590.296C414.57 589.948 413.988 589.42 413.556 588.712C413.124 588.004 412.908 587.14 412.908 586.12V578.182H414.96ZM427.406 589.036H431.636V590.692H425.354V578.182H427.406V589.036ZM435.404 579.838V583.51H439.724V585.184H435.404V589.018H440.264V590.692H433.352V578.164H440.264V579.838H435.404ZM446.963 594.04V593.842C448.199 592.57 449.141 591.088 449.789 589.396C450.437 587.704 450.761 585.952 450.761 584.14C450.761 582.256 450.413 580.426 449.717 578.65C449.021 576.874 447.983 575.35 446.603 574.078V573.88H448.727C450.047 575.056 451.043 576.55 451.715 578.362C452.399 580.174 452.741 582.1 452.741 584.14C452.741 586.132 452.423 587.998 451.787 589.738C451.163 591.478 450.263 592.912 449.087 594.04H446.963Z" fill="white"/>
<rect x="193.549" y="751.408" width="157.98" height="83.5039" rx="41.752" fill="#00D563"/>
<path d="M264.402 801.222H256.85L255.73 804.646H248.274L256.562 781.99H264.754L273.01 804.646H265.522L264.402 801.222ZM262.674 795.878L260.626 789.574L258.578 795.878H262.674ZM284.064 781.99C286.432 781.99 288.501 782.47 290.272 783.43C292.064 784.39 293.44 785.723 294.4 787.43C295.36 789.136 295.84 791.078 295.84 793.254C295.84 795.408 295.36 797.35 294.4 799.078C293.44 800.806 292.064 802.171 290.272 803.174C288.501 804.155 286.432 804.646 284.064 804.646H274.624V781.99H284.064ZM283.424 798.31C285.024 798.31 286.293 797.872 287.232 796.998C288.17 796.123 288.64 794.875 288.64 793.254C288.64 791.632 288.17 790.384 287.232 789.51C286.293 788.635 285.024 788.198 283.424 788.198H281.728V798.31H283.424Z" fill="white"/>
<rect x="744.563" y="751.408" width="157.98" height="83.5039" rx="41.752" fill="#00D563"/>
<path d="M815.415 801.222H807.863L806.743 804.646H799.287L807.575 781.99H815.767L824.023 804.646H816.535L815.415 801.222ZM813.687 795.878L811.639 789.574L809.591 795.878H813.687ZM835.077 781.99C837.445 781.99 839.515 782.47 841.285 783.43C843.077 784.39 844.453 785.723 845.413 787.43C846.373 789.136 846.853 791.078 846.853 793.254C846.853 795.408 846.373 797.35 845.413 799.078C844.453 800.806 843.077 802.171 841.285 803.174C839.515 804.155 837.445 804.646 835.077 804.646H825.637V781.99H835.077ZM834.437 798.31C836.037 798.31 837.307 797.872 838.245 796.998C839.184 796.123 839.653 794.875 839.653 793.254C839.653 791.632 839.184 790.384 838.245 789.51C837.307 788.635 836.037 788.198 834.437 788.198H832.741V798.31H834.437Z" fill="white"/>
<rect x="455.345" y="751.408" width="157.98" height="83.5039" rx="41.752" fill="#00D563"/>
<rect x="1006.36" y="751.408" width="157.98" height="83.5039" rx="41.752" fill="#00D563"/>
<rect x="744.224" y="496.382" width="419.776" height="108.329" rx="54.1647" fill="#00D563"/>
<path d="M404.937 608.712C404.937 607.883 404.266 607.212 403.437 607.212C402.609 607.212 401.937 607.883 401.937 608.712H404.937ZM271.479 748.468C272.064 749.054 273.014 749.054 273.6 748.468L283.146 738.922C283.732 738.337 283.732 737.387 283.146 736.801C282.56 736.215 281.61 736.215 281.024 736.801L272.539 745.286L264.054 736.801C263.468 736.215 262.518 736.215 261.933 736.801C261.347 737.387 261.347 738.337 261.933 738.922L271.479 748.468ZM274.039 747.408V744.687H271.039V747.408H274.039ZM274.039 741.059V735.617H271.039V741.059H274.039ZM274.039 731.989V726.548H271.039V731.989H274.039ZM274.039 722.92V717.478H271.039V722.92H274.039ZM274.039 713.85V708.408H271.039V713.85H274.039ZM274.039 704.781V702.06H271.039V704.781H274.039ZM274.039 702.06C274.039 701.163 274.092 700.28 274.193 699.412L271.214 699.062C271.098 700.046 271.039 701.046 271.039 702.06H274.039ZM274.879 695.949C275.363 694.229 276.047 692.592 276.904 691.065L274.287 689.597C273.316 691.328 272.54 693.184 271.991 695.136L274.879 695.949ZM278.868 688.13C279.964 686.742 281.221 685.485 282.61 684.389L280.751 682.034C279.178 683.275 277.755 684.699 276.513 686.272L278.868 688.13ZM285.544 682.424C287.072 681.567 288.708 680.883 290.428 680.399L289.615 677.511C287.664 678.061 285.807 678.836 284.076 679.808L285.544 682.424ZM293.891 679.714C294.759 679.612 295.643 679.56 296.539 679.56V676.56C295.526 676.56 294.526 676.619 293.542 676.734L293.891 679.714ZM296.539 679.56H299.648V676.56H296.539V679.56ZM303.793 679.56H310.01V676.56H303.793V679.56ZM314.155 679.56H320.372V676.56H314.155V679.56ZM324.517 679.56H330.735V676.56H324.517V679.56ZM334.88 679.56H341.097V676.56H334.88V679.56ZM345.242 679.56H351.459V676.56H345.242V679.56ZM355.604 679.56H361.821V676.56H355.604V679.56ZM365.966 679.56H372.184V676.56H365.966V679.56ZM376.329 679.56H379.437V676.56H376.329V679.56ZM379.437 679.56C380.451 679.56 381.451 679.5 382.434 679.385L382.085 676.406C381.217 676.507 380.334 676.56 379.437 676.56V679.56ZM386.361 678.608C388.313 678.059 390.169 677.283 391.9 676.311L390.432 673.695C388.905 674.552 387.268 675.236 385.548 675.72L386.361 678.608ZM395.225 674.086C396.798 672.844 398.221 671.421 399.463 669.848L397.108 667.989C396.012 669.378 394.755 670.634 393.367 671.731L395.225 674.086ZM401.689 666.523C402.661 664.791 403.436 662.935 403.986 660.983L401.098 660.17C400.614 661.891 399.93 663.527 399.073 665.054L401.689 666.523ZM404.763 657.057C404.878 656.073 404.937 655.073 404.937 654.06H401.937C401.937 654.956 401.885 655.84 401.783 656.708L404.763 657.057ZM404.937 654.06V651.339H401.937V654.06H404.937ZM404.937 647.711V642.269H401.937V647.711H404.937ZM404.937 638.641V633.2H401.937V638.641H404.937ZM404.937 629.572V624.13H401.937V629.572H404.937ZM404.937 620.502V615.06H401.937V620.502H404.937ZM404.937 611.433V608.712H401.937V611.433H404.937Z" fill="#CECCCC"/>
<path d="M955.612 608.712C955.612 607.883 954.94 607.212 954.112 607.212C953.283 607.212 952.612 607.883 952.612 608.712H955.612ZM822.492 748.468C823.078 749.054 824.028 749.054 824.614 748.468L834.16 738.922C834.745 738.337 834.745 737.387 834.16 736.801C833.574 736.215 832.624 736.215 832.038 736.801L823.553 745.286L815.068 736.801C814.482 736.215 813.532 736.215 812.946 736.801C812.361 737.387 812.361 738.337 812.946 738.922L822.492 748.468ZM825.053 747.408V744.687H822.053V747.408H825.053ZM825.053 741.059V735.617H822.053V741.059H825.053ZM825.053 731.989V726.548H822.053V731.989H825.053ZM825.053 722.92V717.478H822.053V722.92H825.053ZM825.053 713.85V708.408H822.053V713.85H825.053ZM825.053 704.781V702.06H822.053V704.781H825.053ZM825.053 702.06C825.053 701.163 825.105 700.28 825.207 699.412L822.227 699.062C822.112 700.046 822.053 701.046 822.053 702.06H825.053ZM825.892 695.949C826.377 694.229 827.06 692.592 827.917 691.065L825.301 689.597C824.33 691.328 823.554 693.184 823.005 695.136L825.892 695.949ZM829.882 688.13C830.978 686.741 832.235 685.485 833.624 684.389L831.765 682.034C830.192 683.275 828.769 684.699 827.527 686.272L829.882 688.13ZM836.558 682.424C838.085 681.567 839.722 680.883 841.442 680.399L840.629 677.511C838.678 678.061 836.821 678.836 835.09 679.808L836.558 682.424ZM844.905 679.714C845.773 679.612 846.657 679.56 847.553 679.56V676.56C846.54 676.56 845.539 676.619 844.556 676.734L844.905 679.714ZM847.553 679.56H850.649V676.56H847.553V679.56ZM854.777 679.56H860.969V676.56H854.777V679.56ZM865.097 679.56H871.289V676.56H865.097V679.56ZM875.417 679.56H881.609V676.56H875.417V679.56ZM885.736 679.56H891.928V676.56H885.736V679.56ZM896.056 679.56H902.248V676.56H896.056V679.56ZM906.376 679.56H912.568V676.56H906.376V679.56ZM916.696 679.56H922.888V676.56H916.696V679.56ZM927.016 679.56H930.112V676.56H927.016V679.56ZM930.112 679.56C931.125 679.56 932.125 679.5 933.109 679.385L932.76 676.406C931.892 676.507 931.008 676.56 930.112 676.56V679.56ZM937.036 678.608C938.987 678.059 940.844 677.283 942.575 676.311L941.107 673.695C939.58 674.552 937.943 675.236 936.223 675.72L937.036 678.608ZM945.9 674.086C947.473 672.844 948.896 671.421 950.138 669.848L947.783 667.989C946.687 669.378 945.43 670.634 944.041 671.731L945.9 674.086ZM952.364 666.523C953.335 664.791 954.111 662.935 954.66 660.983L951.773 660.17C951.288 661.891 950.605 663.527 949.747 665.054L952.364 666.523ZM955.437 657.057C955.553 656.073 955.612 655.073 955.612 654.06H952.612C952.612 654.956 952.559 655.84 952.458 656.708L955.437 657.057ZM955.612 654.06V651.339H952.612V654.06H955.612ZM955.612 647.711V642.269H952.612V647.711H955.612ZM955.612 638.641V633.2H952.612V638.641H955.612ZM955.612 629.572V624.13H952.612V629.572H955.612ZM955.612 620.502V615.06H952.612V620.502H955.612ZM955.612 611.433V608.712H952.612V611.433H955.612Z" fill="#CECCCC"/>
<path d="M404.937 608.712C404.937 607.883 404.266 607.212 403.437 607.212C402.609 607.212 401.937 607.883 401.937 608.712H404.937ZM533.275 748.468C533.86 749.054 534.81 749.054 535.396 748.468L544.942 738.922C545.528 738.337 545.528 737.387 544.942 736.801C544.356 736.215 543.406 736.215 542.821 736.801L534.335 745.286L525.85 736.801C525.264 736.215 524.314 736.215 523.729 736.801C523.143 737.387 523.143 738.337 523.729 738.922L533.275 748.468ZM401.937 608.712V611.433H404.937V608.712H401.937ZM401.937 615.06V620.502H404.937V615.06H401.937ZM401.937 624.13V629.572H404.937V624.13H401.937ZM401.937 633.2V638.641H404.937V633.2H401.937ZM401.937 642.269V647.711H404.937V642.269H401.937ZM401.937 651.339V654.06H404.937V651.339H401.937ZM401.937 654.06C401.937 655.073 401.996 656.073 402.112 657.057L405.091 656.708C404.99 655.84 404.937 654.956 404.937 654.06H401.937ZM402.889 660.983C403.438 662.935 404.214 664.791 405.185 666.523L407.802 665.054C406.945 663.527 406.261 661.891 405.777 660.17L402.889 660.983ZM407.411 669.848C408.653 671.421 410.076 672.844 411.649 674.086L413.508 671.731C412.119 670.634 410.862 669.378 409.766 667.989L407.411 669.848ZM414.974 676.311C416.705 677.283 418.562 678.059 420.514 678.608L421.326 675.72C419.606 675.236 417.97 674.552 416.442 673.695L414.974 676.311ZM424.44 679.385C425.424 679.5 426.424 679.56 427.437 679.56V676.56C426.541 676.56 425.657 676.507 424.789 676.406L424.44 679.385ZM427.437 679.56H430.546V676.56H427.437V679.56ZM434.691 679.56H440.908V676.56H434.691V679.56ZM445.053 679.56H451.27V676.56H445.053V679.56ZM455.415 679.56H461.633V676.56H455.415V679.56ZM465.778 679.56H471.995V676.56H465.778V679.56ZM476.14 679.56H482.357V676.56H476.14V679.56ZM486.502 679.56H492.719V676.56H486.502V679.56ZM496.864 679.56H503.082V676.56H496.864V679.56ZM507.227 679.56H510.335V676.56H507.227V679.56ZM510.335 679.56C511.232 679.56 512.115 679.612 512.983 679.714L513.332 676.734C512.349 676.619 511.349 676.56 510.335 676.56V679.56ZM516.446 680.399C518.166 680.883 519.803 681.567 521.33 682.424L522.798 679.808C521.067 678.836 519.211 678.061 517.259 677.511L516.446 680.399ZM524.265 684.389C525.653 685.485 526.91 686.741 528.006 688.13L530.361 686.272C529.119 684.699 527.696 683.275 526.123 682.034L524.265 684.389ZM529.971 691.065C530.828 692.592 531.512 694.229 531.996 695.949L534.884 695.136C534.334 693.184 533.559 691.328 532.587 689.597L529.971 691.065ZM532.681 699.412C532.783 700.28 532.835 701.163 532.835 702.06H535.835C535.835 701.046 535.776 700.046 535.661 699.062L532.681 699.412ZM532.835 702.06V704.781H535.835V702.06H532.835ZM532.835 708.408V713.85H535.835V708.408H532.835ZM532.835 717.478V722.92H535.835V717.478H532.835ZM532.835 726.548V731.989H535.835V726.548H532.835ZM532.835 735.617V741.059H535.835V735.617H532.835ZM532.835 744.687V747.408H535.835V744.687H532.835Z" fill="#CECCCC"/>
<path d="M955.612 608.712C955.612 607.883 954.94 607.212 954.112 607.212C953.283 607.212 952.612 607.883 952.612 608.712H955.612ZM1084.29 748.468C1084.87 749.054 1085.82 749.054 1086.41 748.468L1095.96 738.922C1096.54 738.337 1096.54 737.387 1095.96 736.801C1095.37 736.215 1094.42 736.215 1093.83 736.801L1085.35 745.286L1076.86 736.801C1076.28 736.215 1075.33 736.215 1074.74 736.801C1074.16 737.387 1074.16 738.337 1074.74 738.922L1084.29 748.468ZM952.612 608.712V611.433H955.612V608.712H952.612ZM952.612 615.06V620.502H955.612V615.06H952.612ZM952.612 624.13V629.572H955.612V624.13H952.612ZM952.612 633.2V638.641H955.612V633.2H952.612ZM952.612 642.269V647.711H955.612V642.269H952.612ZM952.612 651.339V654.06H955.612V651.339H952.612ZM952.612 654.06C952.612 655.073 952.671 656.073 952.786 657.057L955.766 656.708C955.664 655.84 955.612 654.956 955.612 654.06H952.612ZM953.563 660.983C954.113 662.935 954.888 664.791 955.86 666.523L958.476 665.054C957.619 663.527 956.935 661.891 956.451 660.17L953.563 660.983ZM958.086 669.848C959.328 671.421 960.751 672.844 962.324 674.086L964.183 671.731C962.794 670.634 961.537 669.378 960.441 667.989L958.086 669.848ZM965.649 676.311C967.38 677.283 969.236 678.059 971.188 678.608L972.001 675.72C970.281 675.236 968.644 674.552 967.117 673.695L965.649 676.311ZM975.115 679.385C976.098 679.5 977.098 679.56 978.112 679.56V676.56C977.215 676.56 976.332 676.507 975.464 676.406L975.115 679.385ZM978.112 679.56H981.233V676.56H978.112V679.56ZM985.395 679.56H991.638V676.56H985.395V679.56ZM995.8 679.56H1002.04V676.56H995.8V679.56ZM1006.2 679.56H1012.45V676.56H1006.2V679.56ZM1016.61 679.56H1022.85V676.56H1016.61V679.56ZM1027.01 679.56H1033.26V676.56H1027.01V679.56ZM1037.42 679.56H1043.66V676.56H1037.42V679.56ZM1047.82 679.56H1054.07V676.56H1047.82V679.56ZM1058.23 679.56H1061.35V676.56H1058.23V679.56ZM1061.35 679.56C1062.25 679.56 1063.13 679.612 1064 679.714L1064.35 676.734C1063.36 676.619 1062.36 676.56 1061.35 676.56V679.56ZM1067.46 680.399C1069.18 680.883 1070.82 681.567 1072.34 682.424L1073.81 679.808C1072.08 678.836 1070.22 678.061 1068.27 677.511L1067.46 680.399ZM1075.28 684.389C1076.67 685.485 1077.92 686.742 1079.02 688.13L1081.37 686.272C1080.13 684.699 1078.71 683.275 1077.14 682.034L1075.28 684.389ZM1080.98 691.065C1081.84 692.592 1082.53 694.229 1083.01 695.949L1085.9 695.136C1085.35 693.184 1084.57 691.328 1083.6 689.597L1080.98 691.065ZM1083.69 699.412C1083.8 700.28 1083.85 701.163 1083.85 702.06H1086.85C1086.85 701.046 1086.79 700.046 1086.67 699.062L1083.69 699.412ZM1083.85 702.06V704.781H1086.85V702.06H1083.85ZM1083.85 708.408V713.85H1086.85V708.408H1083.85ZM1083.85 717.478V722.92H1086.85V717.478H1083.85ZM1083.85 726.548V731.989H1086.85V726.548H1083.85ZM1083.85 735.617V741.059H1086.85V735.617H1083.85ZM1083.85 744.687V747.408H1086.85V744.687H1083.85Z" fill="#CECCCC"/>
<path d="M680.081 354C680.081 353.172 679.409 352.5 678.581 352.5C677.752 352.5 677.081 353.172 677.081 354H680.081ZM402.377 493.443C402.962 494.029 403.912 494.029 404.498 493.443L414.044 483.897C414.63 483.311 414.63 482.362 414.044 481.776C413.458 481.19 412.508 481.19 411.923 481.776L403.437 490.261L394.952 481.776C394.366 481.19 393.416 481.19 392.831 481.776C392.245 482.362 392.245 483.311 392.831 483.897L402.377 493.443ZM677.081 354V399.191H680.081V354H677.081ZM654.581 421.691H427.437V424.691H654.581V421.691ZM401.937 447.191V492.382H404.937V447.191H401.937ZM427.437 421.691C413.354 421.691 401.937 433.108 401.937 447.191H404.937C404.937 434.765 415.011 424.691 427.437 424.691V421.691ZM677.081 399.191C677.081 411.618 667.007 421.691 654.581 421.691V424.691C668.664 424.691 680.081 413.274 680.081 399.191H677.081Z" fill="#4ECB71"/>
<path d="M680.081 354C680.081 353.172 679.409 352.5 678.581 352.5C677.752 352.5 677.081 353.172 677.081 354H680.081ZM953.051 493.443C953.637 494.029 954.587 494.029 955.172 493.443L964.718 483.897C965.304 483.311 965.304 482.362 964.718 481.776C964.133 481.19 963.183 481.19 962.597 481.776L954.112 490.261L945.627 481.776C945.041 481.19 944.091 481.19 943.505 481.776C942.919 482.362 942.919 483.311 943.505 483.897L953.051 493.443ZM677.081 354V399.191H680.081V354H677.081ZM702.581 424.691H930.112V421.691H702.581V424.691ZM952.612 447.191V492.382H955.612V447.191H952.612ZM930.112 424.691C942.538 424.691 952.612 434.765 952.612 447.191H955.612C955.612 433.108 944.195 421.691 930.112 421.691V424.691ZM677.081 399.191C677.081 413.274 688.497 424.691 702.581 424.691V421.691C690.154 421.691 680.081 411.618 680.081 399.191H677.081Z" fill="#4ECB71"/>
<rect x="473.4" y="392.567" width="153.467" height="63.1922" rx="31.5961" fill="#F2F2F2"/>
<circle cx="493.4" cy="424.163" r="10" fill="#00D563"/>
<path d="M531.913 414.313V417.103H526.363V435.163H522.943V417.103H517.363V414.313H531.913ZM550.527 426.493C550.527 427.113 550.487 427.673 550.407 428.173H537.777C537.877 429.493 538.367 430.553 539.247 431.353C540.127 432.153 541.207 432.553 542.487 432.553C544.327 432.553 545.627 431.783 546.387 430.243H550.077C549.577 431.763 548.667 433.013 547.347 433.993C546.047 434.953 544.427 435.433 542.487 435.433C540.907 435.433 539.487 435.083 538.227 434.383C536.987 433.663 536.007 432.663 535.287 431.383C534.587 430.083 534.237 428.583 534.237 426.883C534.237 425.183 534.577 423.693 535.257 422.413C535.957 421.113 536.927 420.113 538.167 419.413C539.427 418.713 540.867 418.363 542.487 418.363C544.047 418.363 545.437 418.703 546.657 419.383C547.877 420.063 548.827 421.023 549.507 422.263C550.187 423.483 550.527 424.893 550.527 426.493ZM546.957 425.413C546.937 424.153 546.487 423.143 545.607 422.383C544.727 421.623 543.637 421.243 542.337 421.243C541.157 421.243 540.147 421.623 539.307 422.383C538.467 423.123 537.967 424.133 537.807 425.413H546.957ZM559.892 435.433C558.592 435.433 557.422 435.203 556.382 434.743C555.362 434.263 554.552 433.623 553.952 432.823C553.352 432.003 553.032 431.093 552.992 430.093H556.532C556.592 430.793 556.922 431.383 557.522 431.863C558.142 432.323 558.912 432.553 559.832 432.553C560.792 432.553 561.532 432.373 562.052 432.013C562.592 431.633 562.862 431.153 562.862 430.573C562.862 429.953 562.562 429.493 561.962 429.193C561.382 428.893 560.452 428.563 559.172 428.203C557.932 427.863 556.922 427.533 556.142 427.213C555.362 426.893 554.682 426.403 554.102 425.743C553.542 425.083 553.262 424.213 553.262 423.133C553.262 422.253 553.522 421.453 554.042 420.733C554.562 419.993 555.302 419.413 556.262 418.993C557.242 418.573 558.362 418.363 559.622 418.363C561.502 418.363 563.012 418.843 564.152 419.803C565.312 420.743 565.932 422.033 566.012 423.673H562.592C562.532 422.933 562.232 422.343 561.692 421.903C561.152 421.463 560.422 421.243 559.502 421.243C558.602 421.243 557.912 421.413 557.432 421.753C556.952 422.093 556.712 422.543 556.712 423.103C556.712 423.543 556.872 423.913 557.192 424.213C557.512 424.513 557.902 424.753 558.362 424.933C558.822 425.093 559.502 425.303 560.402 425.563C561.602 425.883 562.582 426.213 563.342 426.553C564.122 426.873 564.792 427.353 565.352 427.993C565.912 428.633 566.202 429.483 566.222 430.543C566.222 431.483 565.962 432.323 565.442 433.063C564.922 433.803 564.182 434.383 563.222 434.803C562.282 435.223 561.172 435.433 559.892 435.433ZM573.908 421.423V430.573C573.908 431.193 574.048 431.643 574.328 431.923C574.628 432.183 575.128 432.313 575.828 432.313H577.928V435.163H575.228C573.688 435.163 572.508 434.803 571.688 434.083C570.868 433.363 570.458 432.193 570.458 430.573V421.423H568.508V418.633H570.458V414.523H573.908V418.633H577.928V421.423H573.908ZM587.973 416.413V413.293H594.213V435.163H590.763V416.413H587.973Z" fill="black" fill-opacity="0.8"/>
<rect x="744" y="392.567" width="153.467" height="63.1922" rx="31.5961" fill="#F2F2F2"/>
<circle cx="764" cy="424.163" r="10" fill="#00D563"/>
<path d="M802.513 414.313V417.103H796.963V435.163H793.543V417.103H787.963V414.313H802.513ZM821.127 426.493C821.127 427.113 821.087 427.673 821.007 428.173H808.377C808.477 429.493 808.967 430.553 809.847 431.353C810.727 432.153 811.807 432.553 813.087 432.553C814.927 432.553 816.227 431.783 816.987 430.243H820.677C820.177 431.763 819.267 433.013 817.947 433.993C816.647 434.953 815.027 435.433 813.087 435.433C811.507 435.433 810.087 435.083 808.827 434.383C807.587 433.663 806.607 432.663 805.887 431.383C805.187 430.083 804.837 428.583 804.837 426.883C804.837 425.183 805.177 423.693 805.857 422.413C806.557 421.113 807.527 420.113 808.767 419.413C810.027 418.713 811.467 418.363 813.087 418.363C814.647 418.363 816.037 418.703 817.257 419.383C818.477 420.063 819.427 421.023 820.107 422.263C820.787 423.483 821.127 424.893 821.127 426.493ZM817.557 425.413C817.537 424.153 817.087 423.143 816.207 422.383C815.327 421.623 814.237 421.243 812.937 421.243C811.757 421.243 810.747 421.623 809.907 422.383C809.067 423.123 808.567 424.133 808.407 425.413H817.557ZM830.492 435.433C829.192 435.433 828.022 435.203 826.982 434.743C825.962 434.263 825.152 433.623 824.552 432.823C823.952 432.003 823.632 431.093 823.592 430.093H827.132C827.192 430.793 827.522 431.383 828.122 431.863C828.742 432.323 829.512 432.553 830.432 432.553C831.392 432.553 832.132 432.373 832.652 432.013C833.192 431.633 833.462 431.153 833.462 430.573C833.462 429.953 833.162 429.493 832.562 429.193C831.982 428.893 831.052 428.563 829.772 428.203C828.532 427.863 827.522 427.533 826.742 427.213C825.962 426.893 825.282 426.403 824.702 425.743C824.142 425.083 823.862 424.213 823.862 423.133C823.862 422.253 824.122 421.453 824.642 420.733C825.162 419.993 825.902 419.413 826.862 418.993C827.842 418.573 828.962 418.363 830.222 418.363C832.102 418.363 833.612 418.843 834.752 419.803C835.912 420.743 836.532 422.033 836.612 423.673H833.192C833.132 422.933 832.832 422.343 832.292 421.903C831.752 421.463 831.022 421.243 830.102 421.243C829.202 421.243 828.512 421.413 828.032 421.753C827.552 422.093 827.312 422.543 827.312 423.103C827.312 423.543 827.472 423.913 827.792 424.213C828.112 424.513 828.502 424.753 828.962 424.933C829.422 425.093 830.102 425.303 831.002 425.563C832.202 425.883 833.182 426.213 833.942 426.553C834.722 426.873 835.392 427.353 835.952 427.993C836.512 428.633 836.802 429.483 836.822 430.543C836.822 431.483 836.562 432.323 836.042 433.063C835.522 433.803 834.782 434.383 833.822 434.803C832.882 435.223 831.772 435.433 830.492 435.433ZM844.508 421.423V430.573C844.508 431.193 844.648 431.643 844.928 431.923C845.228 432.183 845.728 432.313 846.428 432.313H848.528V435.163H845.828C844.288 435.163 843.108 434.803 842.288 434.083C841.468 433.363 841.058 432.193 841.058 430.573V421.423H839.108V418.633H841.058V414.523H844.508V418.633H848.528V421.423H844.508ZM860.913 430.513C862.833 428.853 864.343 427.493 865.443 426.433C866.563 425.353 867.493 424.233 868.233 423.073C868.973 421.913 869.343 420.753 869.343 419.593C869.343 418.393 869.053 417.453 868.473 416.773C867.913 416.093 867.023 415.753 865.803 415.753C864.623 415.753 863.703 416.133 863.043 416.893C862.403 417.633 862.063 418.633 862.023 419.893H858.723C858.783 417.613 859.463 415.873 860.763 414.673C862.083 413.453 863.753 412.843 865.773 412.843C867.953 412.843 869.653 413.443 870.873 414.643C872.113 415.843 872.733 417.443 872.733 419.443C872.733 420.883 872.363 422.273 871.623 423.613C870.903 424.933 870.033 426.123 869.013 427.183C868.013 428.223 866.733 429.433 865.173 430.813L863.823 432.013H873.333V434.863H858.753V432.373L860.913 430.513Z" fill="black" fill-opacity="0.8"/>
<path d="M147.079 124H104.04C90.7847 124 80.0396 134.745 80.0396 148V837.434C80.0396 850.689 90.7847 861.434 104.04 861.434H147.079" stroke="#CECCCC" stroke-width="3" stroke-miterlimit="0" stroke-linecap="round" stroke-linejoin="bevel"/>
<g clip-path="url(#clip0_48_184)">
</g>
<path d="M916.473 533.79H909.393L908.343 537H901.353L909.123 515.76H916.803L924.543 537H917.523L916.473 533.79ZM914.853 528.78L912.933 522.87L911.013 528.78H914.853ZM934.906 515.76C937.126 515.76 939.066 516.21 940.726 517.11C942.406 518.01 943.696 519.26 944.596 520.86C945.496 522.46 945.946 524.28 945.946 526.32C945.946 528.34 945.496 530.16 944.596 531.78C943.696 533.4 942.406 534.68 940.726 535.62C939.066 536.54 937.126 537 934.906 537H926.056V515.76H934.906ZM934.306 531.06C935.806 531.06 936.996 530.65 937.876 529.83C938.756 529.01 939.196 527.84 939.196 526.32C939.196 524.8 938.756 523.63 937.876 522.81C936.996 521.99 935.806 521.58 934.306 521.58H932.716V531.06H934.306ZM961.759 537.21C959.219 537.21 957.119 536.62 955.459 535.44C953.819 534.24 952.929 532.49 952.789 530.19H959.869C959.969 531.41 960.509 532.02 961.489 532.02C961.849 532.02 962.149 531.94 962.389 531.78C962.649 531.6 962.779 531.33 962.779 530.97C962.779 530.47 962.509 530.07 961.969 529.77C961.429 529.45 960.589 529.09 959.449 528.69C958.089 528.21 956.959 527.74 956.059 527.28C955.179 526.82 954.419 526.15 953.779 525.27C953.139 524.39 952.829 523.26 952.849 521.88C952.849 520.5 953.199 519.33 953.899 518.37C954.619 517.39 955.589 516.65 956.809 516.15C958.049 515.65 959.439 515.4 960.979 515.4C963.579 515.4 965.639 516 967.159 517.2C968.699 518.4 969.509 520.09 969.589 522.27H962.419C962.399 521.67 962.249 521.24 961.969 520.98C961.689 520.72 961.349 520.59 960.949 520.59C960.669 520.59 960.439 520.69 960.259 520.89C960.079 521.07 959.989 521.33 959.989 521.67C959.989 522.15 960.249 522.55 960.769 522.87C961.309 523.17 962.159 523.54 963.319 523.98C964.659 524.48 965.759 524.96 966.619 525.42C967.499 525.88 968.259 526.52 968.899 527.34C969.539 528.16 969.859 529.19 969.859 530.43C969.859 531.73 969.539 532.9 968.899 533.94C968.259 534.96 967.329 535.76 966.109 536.34C964.889 536.92 963.439 537.21 961.759 537.21ZM978.859 521.07V523.68H985.459V528.69H978.859V531.69H986.359V537H972.199V515.76H986.359V521.07H978.859ZM1005.55 515.76V521.04H999.909V537H993.249V521.04H987.669V515.76H1005.55ZM799.309 567.348C798.133 566.22 797.227 564.786 796.591 563.046C795.967 561.306 795.655 559.44 795.655 557.448C795.655 555.408 795.991 553.482 796.663 551.67C797.347 549.858 798.349 548.364 799.669 547.188H801.793V547.386C800.413 548.658 799.375 550.182 798.679 551.958C797.983 553.734 797.635 555.564 797.635 557.448C797.635 559.26 797.959 561.012 798.607 562.704C799.255 564.396 800.197 565.878 801.433 567.15V567.348H799.309ZM811.175 561.444H805.937L805.037 564H802.895L807.377 551.472H809.753L814.235 564H812.075L811.175 561.444ZM810.599 559.77L808.565 553.956L806.513 559.77H810.599ZM818.217 551.49V559.464C818.217 560.412 818.463 561.126 818.955 561.606C819.459 562.086 820.155 562.326 821.043 562.326C821.943 562.326 822.639 562.086 823.131 561.606C823.635 561.126 823.887 560.412 823.887 559.464V551.49H825.939V559.428C825.939 560.448 825.717 561.312 825.273 562.02C824.829 562.728 824.235 563.256 823.491 563.604C822.747 563.952 821.925 564.126 821.025 564.126C820.125 564.126 819.303 563.952 818.559 563.604C817.827 563.256 817.245 562.728 816.813 562.02C816.381 561.312 816.165 560.448 816.165 559.428V551.49H818.217ZM832.697 551.49C834.029 551.49 835.193 551.748 836.189 552.264C837.197 552.768 837.971 553.5 838.511 554.46C839.063 555.408 839.339 556.518 839.339 557.79C839.339 559.062 839.063 560.166 838.511 561.102C837.971 562.038 837.197 562.758 836.189 563.262C835.193 563.754 834.029 564 832.697 564H828.611V551.49H832.697ZM832.697 562.326C834.161 562.326 835.283 561.93 836.063 561.138C836.843 560.346 837.233 559.23 837.233 557.79C837.233 556.338 836.843 555.204 836.063 554.388C835.283 553.572 834.161 553.164 832.697 553.164H830.663V562.326H832.697ZM843.425 551.49V564H841.373V551.49H843.425ZM848.171 553.146V556.818H852.491V558.492H848.171V562.326H853.031V564H846.119V551.472H853.031V553.146H848.171ZM865.836 564H863.784L857.61 554.658V564H855.558V551.472H857.61L863.784 560.796V551.472H865.836V564ZM867.847 557.718C867.847 556.494 868.129 555.396 868.693 554.424C869.269 553.452 870.043 552.696 871.015 552.156C871.999 551.604 873.073 551.328 874.237 551.328C875.569 551.328 876.751 551.658 877.783 552.318C878.827 552.966 879.583 553.89 880.051 555.09H877.585C877.261 554.43 876.811 553.938 876.235 553.614C875.659 553.29 874.993 553.128 874.237 553.128C873.409 553.128 872.671 553.314 872.023 553.686C871.375 554.058 870.865 554.592 870.493 555.288C870.133 555.984 869.953 556.794 869.953 557.718C869.953 558.642 870.133 559.452 870.493 560.148C870.865 560.844 871.375 561.384 872.023 561.768C872.671 562.14 873.409 562.326 874.237 562.326C874.993 562.326 875.659 562.164 876.235 561.84C876.811 561.516 877.261 561.024 877.585 560.364H880.051C879.583 561.564 878.827 562.488 877.783 563.136C876.751 563.784 875.569 564.108 874.237 564.108C873.061 564.108 871.987 563.838 871.015 563.298C870.043 562.746 869.269 561.984 868.693 561.012C868.129 560.04 867.847 558.942 867.847 557.718ZM884.505 553.146V556.818H888.825V558.492H884.505V562.326H889.365V564H882.453V551.472H889.365V553.146H884.505ZM894.142 561.534L891.964 566.502H890.632L891.91 561.534H894.142ZM909.359 555.216C909.359 555.852 909.209 556.452 908.909 557.016C908.609 557.58 908.129 558.042 907.469 558.402C906.809 558.75 905.963 558.924 904.931 558.924H902.663V564H900.611V551.49H904.931C905.891 551.49 906.701 551.658 907.361 551.994C908.033 552.318 908.531 552.762 908.855 553.326C909.191 553.89 909.359 554.52 909.359 555.216ZM904.931 557.25C905.711 557.25 906.293 557.076 906.677 556.728C907.061 556.368 907.253 555.864 907.253 555.216C907.253 553.848 906.479 553.164 904.931 553.164H902.663V557.25H904.931ZM913.368 562.344H917.598V564H911.316V551.49H913.368V562.344ZM926.856 561.444H921.618L920.718 564H918.576L923.058 551.472H925.434L929.916 564H927.756L926.856 561.444ZM926.28 559.77L924.246 553.956L922.194 559.77H926.28ZM931.181 557.718C931.181 556.494 931.463 555.396 932.027 554.424C932.603 553.452 933.377 552.696 934.349 552.156C935.333 551.604 936.407 551.328 937.571 551.328C938.903 551.328 940.085 551.658 941.117 552.318C942.161 552.966 942.917 553.89 943.385 555.09H940.919C940.595 554.43 940.145 553.938 939.569 553.614C938.993 553.29 938.327 553.128 937.571 553.128C936.743 553.128 936.005 553.314 935.357 553.686C934.709 554.058 934.199 554.592 933.827 555.288C933.467 555.984 933.287 556.794 933.287 557.718C933.287 558.642 933.467 559.452 933.827 560.148C934.199 560.844 934.709 561.384 935.357 561.768C936.005 562.14 936.743 562.326 937.571 562.326C938.327 562.326 938.993 562.164 939.569 561.84C940.145 561.516 940.595 561.024 940.919 560.364H943.385C942.917 561.564 942.161 562.488 941.117 563.136C940.085 563.784 938.903 564.108 937.571 564.108C936.395 564.108 935.321 563.838 934.349 563.298C933.377 562.746 932.603 561.984 932.027 561.012C931.463 560.04 931.181 558.942 931.181 557.718ZM947.839 553.146V556.818H952.159V558.492H947.839V562.326H952.699V564H945.787V551.472H952.699V553.146H947.839ZM968.402 551.49V564H966.35V555.432L962.534 564H961.112L957.278 555.432V564H955.226V551.49H957.44L961.832 561.3L966.206 551.49H968.402ZM973.151 553.146V556.818H977.471V558.492H973.151V562.326H978.011V564H971.099V551.472H978.011V553.146H973.151ZM990.817 564H988.765L982.591 554.658V564H980.539V551.472H982.591L988.765 560.796V551.472H990.817V564ZM1001.59 551.49V553.164H998.264V564H996.212V553.164H992.864V551.49H1001.59ZM1018.01 564L1016.47 562.452C1015.87 563.052 1015.21 563.502 1014.5 563.802C1013.8 564.09 1013 564.234 1012.13 564.234C1011.24 564.234 1010.45 564.078 1009.77 563.766C1009.09 563.454 1008.56 563.01 1008.19 562.434C1007.81 561.846 1007.63 561.168 1007.63 560.4C1007.63 559.536 1007.87 558.768 1008.37 558.096C1008.86 557.412 1009.59 556.872 1010.56 556.476C1010.21 556.056 1009.97 555.666 1009.82 555.306C1009.68 554.934 1009.61 554.526 1009.61 554.082C1009.61 553.53 1009.75 553.038 1010.02 552.606C1010.31 552.174 1010.72 551.832 1011.25 551.58C1011.77 551.328 1012.39 551.202 1013.08 551.202C1013.79 551.202 1014.39 551.34 1014.88 551.616C1015.39 551.88 1015.76 552.246 1016 552.714C1016.25 553.182 1016.35 553.704 1016.3 554.28H1014.25C1014.26 553.836 1014.16 553.494 1013.93 553.254C1013.7 553.002 1013.39 552.876 1012.99 552.876C1012.6 552.876 1012.27 552.996 1012.02 553.236C1011.78 553.464 1011.66 553.746 1011.66 554.082C1011.66 554.406 1011.75 554.73 1011.93 555.054C1012.12 555.366 1012.45 555.774 1012.92 556.278L1016.23 559.572L1017.51 557.466H1019.72L1018.1 560.238L1017.65 560.976L1020.7 564H1018.01ZM1012.13 562.488C1013.26 562.488 1014.25 562.026 1015.12 561.102L1011.8 557.772C1010.39 558.336 1009.68 559.188 1009.68 560.328C1009.68 560.94 1009.91 561.456 1010.36 561.876C1010.82 562.284 1011.41 562.488 1012.13 562.488ZM1033.41 557.574C1034.08 557.694 1034.65 558.048 1035.12 558.636C1035.59 559.224 1035.82 559.89 1035.82 560.634C1035.82 561.27 1035.66 561.846 1035.32 562.362C1035 562.866 1034.52 563.268 1033.9 563.568C1033.27 563.856 1032.55 564 1031.72 564H1026.72V551.49H1031.49C1032.34 551.49 1033.07 551.634 1033.68 551.922C1034.29 552.21 1034.76 552.6 1035.07 553.092C1035.38 553.572 1035.54 554.112 1035.54 554.712C1035.54 555.432 1035.34 556.032 1034.96 556.512C1034.58 556.992 1034.06 557.346 1033.41 557.574ZM1028.77 556.746H1031.31C1031.98 556.746 1032.5 556.596 1032.87 556.296C1033.26 555.984 1033.45 555.54 1033.45 554.964C1033.45 554.4 1033.26 553.962 1032.87 553.65C1032.5 553.326 1031.98 553.164 1031.31 553.164H1028.77V556.746ZM1031.54 562.326C1032.24 562.326 1032.78 562.158 1033.18 561.822C1033.57 561.486 1033.77 561.018 1033.77 560.418C1033.77 559.806 1033.56 559.32 1033.14 558.96C1032.72 558.6 1032.16 558.42 1031.47 558.42H1028.77V562.326H1031.54ZM1040.09 551.49V559.464C1040.09 560.412 1040.33 561.126 1040.83 561.606C1041.33 562.086 1042.03 562.326 1042.91 562.326C1043.81 562.326 1044.51 562.086 1045 561.606C1045.51 561.126 1045.76 560.412 1045.76 559.464V551.49H1047.81V559.428C1047.81 560.448 1047.59 561.312 1047.14 562.02C1046.7 562.728 1046.11 563.256 1045.36 563.604C1044.62 563.952 1043.8 564.126 1042.9 564.126C1042 564.126 1041.17 563.952 1040.43 563.604C1039.7 563.256 1039.12 562.728 1038.68 562.02C1038.25 561.312 1038.04 560.448 1038.04 559.428V551.49H1040.09ZM1054.57 551.49C1055.9 551.49 1057.06 551.748 1058.06 552.264C1059.07 552.768 1059.84 553.5 1060.38 554.46C1060.93 555.408 1061.21 556.518 1061.21 557.79C1061.21 559.062 1060.93 560.166 1060.38 561.102C1059.84 562.038 1059.07 562.758 1058.06 563.262C1057.06 563.754 1055.9 564 1054.57 564H1050.48V551.49H1054.57ZM1054.57 562.326C1056.03 562.326 1057.15 561.93 1057.93 561.138C1058.71 560.346 1059.1 559.23 1059.1 557.79C1059.1 556.338 1058.71 555.204 1057.93 554.388C1057.15 553.572 1056.03 553.164 1054.57 553.164H1052.53V562.326H1054.57ZM1072.3 555.09C1071.97 554.466 1071.52 553.998 1070.95 553.686C1070.37 553.362 1069.71 553.2 1068.95 553.2C1068.12 553.2 1067.38 553.386 1066.74 553.758C1066.09 554.13 1065.58 554.658 1065.21 555.342C1064.85 556.026 1064.67 556.818 1064.67 557.718C1064.67 558.618 1064.85 559.416 1065.21 560.112C1065.58 560.796 1066.09 561.324 1066.74 561.696C1067.38 562.068 1068.12 562.254 1068.95 562.254C1070.07 562.254 1070.97 561.942 1071.67 561.318C1072.36 560.694 1072.79 559.848 1072.95 558.78H1068.25V557.142H1075.14V558.744C1075.01 559.716 1074.66 560.61 1074.1 561.426C1073.55 562.242 1072.82 562.896 1071.92 563.388C1071.03 563.868 1070.04 564.108 1068.95 564.108C1067.77 564.108 1066.7 563.838 1065.73 563.298C1064.76 562.746 1063.98 561.984 1063.41 561.012C1062.84 560.04 1062.56 558.942 1062.56 557.718C1062.56 556.494 1062.84 555.396 1063.41 554.424C1063.98 553.452 1064.76 552.696 1065.73 552.156C1066.71 551.604 1067.79 551.328 1068.95 551.328C1070.28 551.328 1071.46 551.658 1072.5 552.318C1073.54 552.966 1074.3 553.89 1074.76 555.09H1072.3ZM1079.22 553.146V556.818H1083.54V558.492H1079.22V562.326H1084.08V564H1077.17V551.472H1084.08V553.146H1079.22ZM1094.69 551.49V553.164H1091.36V564H1089.31V553.164H1085.96V551.49H1094.69ZM1111.11 564L1109.56 562.452C1108.96 563.052 1108.31 563.502 1107.6 563.802C1106.89 564.09 1106.1 564.234 1105.22 564.234C1104.33 564.234 1103.55 564.078 1102.86 563.766C1102.18 563.454 1101.65 563.01 1101.28 562.434C1100.91 561.846 1100.72 561.168 1100.72 560.4C1100.72 559.536 1100.97 558.768 1101.46 558.096C1101.95 557.412 1102.68 556.872 1103.66 556.476C1103.31 556.056 1103.06 555.666 1102.92 555.306C1102.77 554.934 1102.7 554.526 1102.7 554.082C1102.7 553.53 1102.84 553.038 1103.12 552.606C1103.4 552.174 1103.81 551.832 1104.34 551.58C1104.87 551.328 1105.48 551.202 1106.18 551.202C1106.88 551.202 1107.48 551.34 1107.98 551.616C1108.48 551.88 1108.85 552.246 1109.09 552.714C1109.34 553.182 1109.45 553.704 1109.4 554.28H1107.35C1107.36 553.836 1107.25 553.494 1107.02 553.254C1106.79 553.002 1106.48 552.876 1106.09 552.876C1105.69 552.876 1105.37 552.996 1105.11 553.236C1104.87 553.464 1104.75 553.746 1104.75 554.082C1104.75 554.406 1104.84 554.73 1105.02 555.054C1105.22 555.366 1105.55 555.774 1106.01 556.278L1109.33 559.572L1110.6 557.466H1112.82L1111.2 560.238L1110.75 560.976L1113.79 564H1111.11ZM1105.22 562.488C1106.35 562.488 1107.35 562.026 1108.21 561.102L1104.9 557.772C1103.48 558.336 1102.77 559.188 1102.77 560.328C1102.77 560.94 1103 561.456 1103.46 561.876C1103.91 562.284 1104.5 562.488 1105.22 562.488ZM907.537 591.126C906.697 591.126 905.941 590.982 905.269 590.694C904.597 590.394 904.069 589.974 903.685 589.434C903.301 588.894 903.109 588.264 903.109 587.544H905.305C905.353 588.084 905.563 588.528 905.935 588.876C906.319 589.224 906.853 589.398 907.537 589.398C908.245 589.398 908.797 589.23 909.193 588.894C909.589 588.546 909.787 588.102 909.787 587.562C909.787 587.142 909.661 586.8 909.409 586.536C909.169 586.272 908.863 586.068 908.491 585.924C908.131 585.78 907.627 585.624 906.979 585.456C906.163 585.24 905.497 585.024 904.981 584.808C904.477 584.58 904.045 584.232 903.685 583.764C903.325 583.296 903.145 582.672 903.145 581.892C903.145 581.172 903.325 580.542 903.685 580.002C904.045 579.462 904.549 579.048 905.197 578.76C905.845 578.472 906.595 578.328 907.447 578.328C908.659 578.328 909.649 578.634 910.417 579.246C911.197 579.846 911.629 580.674 911.713 581.73H909.445C909.409 581.274 909.193 580.884 908.797 580.56C908.401 580.236 907.879 580.074 907.231 580.074C906.643 580.074 906.163 580.224 905.791 580.524C905.419 580.824 905.233 581.256 905.233 581.82C905.233 582.204 905.347 582.522 905.575 582.774C905.815 583.014 906.115 583.206 906.475 583.35C906.835 583.494 907.327 583.65 907.951 583.818C908.779 584.046 909.451 584.274 909.967 584.502C910.495 584.73 910.939 585.084 911.299 585.564C911.671 586.032 911.857 586.662 911.857 587.454C911.857 588.09 911.683 588.69 911.335 589.254C910.999 589.818 910.501 590.274 909.841 590.622C909.193 590.958 908.425 591.126 907.537 591.126ZM913.594 584.718C913.594 583.494 913.876 582.396 914.44 581.424C915.016 580.452 915.79 579.696 916.762 579.156C917.746 578.604 918.82 578.328 919.984 578.328C921.316 578.328 922.498 578.658 923.53 579.318C924.574 579.966 925.33 580.89 925.798 582.09H923.332C923.008 581.43 922.558 580.938 921.982 580.614C921.406 580.29 920.74 580.128 919.984 580.128C919.156 580.128 918.418 580.314 917.77 580.686C917.122 581.058 916.612 581.592 916.24 582.288C915.88 582.984 915.7 583.794 915.7 584.718C915.7 585.642 915.88 586.452 916.24 587.148C916.612 587.844 917.122 588.384 917.77 588.768C918.418 589.14 919.156 589.326 919.984 589.326C920.74 589.326 921.406 589.164 921.982 588.84C922.558 588.516 923.008 588.024 923.332 587.364H925.798C925.33 588.564 924.574 589.488 923.53 590.136C922.498 590.784 921.316 591.108 919.984 591.108C918.808 591.108 917.734 590.838 916.762 590.298C915.79 589.746 915.016 588.984 914.44 588.012C913.876 587.04 913.594 585.942 913.594 584.718ZM938.19 578.49V591H936.138V585.528H930.252V591H928.2V578.49H930.252V583.854H936.138V578.49H938.19ZM942.943 580.146V583.818H947.263V585.492H942.943V589.326H947.803V591H940.891V578.472H947.803V580.146H942.943ZM954.417 578.49C955.749 578.49 956.913 578.748 957.909 579.264C958.917 579.768 959.691 580.5 960.231 581.46C960.783 582.408 961.059 583.518 961.059 584.79C961.059 586.062 960.783 587.166 960.231 588.102C959.691 589.038 958.917 589.758 957.909 590.262C956.913 590.754 955.749 591 954.417 591H950.331V578.49H954.417ZM954.417 589.326C955.881 589.326 957.003 588.93 957.783 588.138C958.563 587.346 958.953 586.23 958.953 584.79C958.953 583.338 958.563 582.204 957.783 581.388C957.003 580.572 955.881 580.164 954.417 580.164H952.383V589.326H954.417ZM965.127 578.49V586.464C965.127 587.412 965.373 588.126 965.865 588.606C966.369 589.086 967.065 589.326 967.953 589.326C968.853 589.326 969.549 589.086 970.041 588.606C970.545 588.126 970.797 587.412 970.797 586.464V578.49H972.849V586.428C972.849 587.448 972.627 588.312 972.183 589.02C971.739 589.728 971.145 590.256 970.401 590.604C969.657 590.952 968.835 591.126 967.935 591.126C967.035 591.126 966.213 590.952 965.469 590.604C964.737 590.256 964.155 589.728 963.723 589.02C963.291 588.312 963.075 587.448 963.075 586.428V578.49H965.127ZM977.572 589.344H981.802V591H975.52V578.49H977.572V589.344ZM985.57 580.146V583.818H989.89V585.492H985.57V589.326H990.43V591H983.518V578.472H990.43V580.146H985.57ZM997.13 594.348V594.15C998.366 592.878 999.308 591.396 999.956 589.704C1000.6 588.012 1000.93 586.26 1000.93 584.448C1000.93 582.564 1000.58 580.734 999.884 578.958C999.188 577.182 998.15 575.658 996.77 574.386V574.188H998.894C1000.21 575.364 1001.21 576.858 1001.88 578.67C1002.57 580.482 1002.91 582.408 1002.91 584.448C1002.91 586.44 1002.59 588.306 1001.95 590.046C1001.33 591.786 1000.43 593.22 999.254 594.348H997.13Z" fill="white"/>
<path d="M528.606 801.222H521.054L519.934 804.646H512.478L520.766 781.99H528.958L537.214 804.646H529.726L528.606 801.222ZM526.878 795.878L524.83 789.574L522.782 795.878H526.878ZM548.268 781.99C550.636 781.99 552.705 782.47 554.476 783.43C556.268 784.39 557.644 785.723 558.604 787.43C559.564 789.136 560.044 791.078 560.044 793.254C560.044 795.408 559.564 797.35 558.604 799.078C557.644 800.806 556.268 802.171 554.476 803.174C552.705 804.155 550.636 804.646 548.268 804.646H538.828V781.99H548.268ZM547.628 798.31C549.228 798.31 550.497 797.872 551.436 796.998C552.374 796.123 552.844 794.875 552.844 793.254C552.844 791.632 552.374 790.384 551.436 789.51C550.497 788.635 549.228 788.198 547.628 788.198H545.932V798.31H547.628Z" fill="white"/>
<path d="M1079.62 801.222H1072.07L1070.95 804.646H1063.49L1071.78 781.99H1079.97L1088.23 804.646H1080.74L1079.62 801.222ZM1077.89 795.878L1075.84 789.574L1073.8 795.878H1077.89ZM1099.28 781.99C1101.65 781.99 1103.72 782.47 1105.49 783.43C1107.28 784.39 1108.66 785.723 1109.62 787.43C1110.58 789.136 1111.06 791.078 1111.06 793.254C1111.06 795.408 1110.58 797.35 1109.62 799.078C1108.66 800.806 1107.28 802.171 1105.49 803.174C1103.72 804.155 1101.65 804.646 1099.28 804.646H1089.84V781.99H1099.28ZM1098.64 798.31C1100.24 798.31 1101.51 797.872 1102.45 796.998C1103.39 796.123 1103.86 794.875 1103.86 793.254C1103.86 791.632 1103.39 790.384 1102.45 789.51C1101.51 788.635 1100.24 788.198 1098.64 788.198H1096.95V798.31H1098.64Z" fill="white"/>
<path d="M381.222 33.8594H370.646C370.452 32.491 370.058 31.2756 369.462 30.2131C368.867 29.1345 368.102 28.2169 367.168 27.4602C366.235 26.7036 365.156 26.1241 363.932 25.7216C362.725 25.3191 361.413 25.1179 359.996 25.1179C357.437 25.1179 355.207 25.7538 353.307 27.0256C351.408 28.2812 349.935 30.1165 348.888 32.5312C347.842 34.9299 347.319 37.8437 347.319 41.2727C347.319 44.7983 347.842 47.7604 348.888 50.1591C349.951 52.5578 351.432 54.3688 353.332 55.5923C355.231 56.8158 357.429 57.4276 359.924 57.4276C361.325 57.4276 362.62 57.2424 363.812 56.8722C365.019 56.5019 366.09 55.9626 367.023 55.2543C367.957 54.5298 368.73 53.6525 369.342 52.6222C369.969 51.5919 370.404 50.4167 370.646 49.0966L381.222 49.1449C380.949 51.4148 380.264 53.6042 379.17 55.7131C378.091 57.8059 376.634 59.6813 374.799 61.3395C372.98 62.9815 370.807 64.2855 368.279 65.2514C365.768 66.2012 362.926 66.6761 359.755 66.6761C355.344 66.6761 351.4 65.678 347.923 63.6818C344.461 61.6856 341.725 58.7959 339.712 55.0128C337.716 51.2296 336.718 46.6496 336.718 41.2727C336.718 35.8797 337.732 31.2917 339.761 27.5085C341.789 23.7254 344.542 20.8437 348.019 18.8636C351.496 16.8674 355.408 15.8693 359.755 15.8693C362.62 15.8693 365.277 16.2718 367.724 17.0767C370.187 17.8816 372.368 19.0568 374.268 20.6023C376.167 22.1316 377.713 24.0071 378.904 26.2287C380.111 28.4503 380.884 30.9938 381.222 33.8594ZM399.104 66.7003C396.737 66.7003 394.628 66.2898 392.777 65.4688C390.926 64.6316 389.461 63.4001 388.382 61.7741C387.32 60.1321 386.788 58.0876 386.788 55.6406C386.788 53.58 387.167 51.8494 387.923 50.4489C388.68 49.0483 389.71 47.9214 391.014 47.0682C392.318 46.215 393.799 45.571 395.457 45.1364C397.132 44.7017 398.886 44.3958 400.722 44.2188C402.879 43.9934 404.617 43.7841 405.937 43.5909C407.258 43.3816 408.215 43.0758 408.811 42.6733C409.407 42.2708 409.704 41.6752 409.704 40.8864V40.7415C409.704 39.2121 409.222 38.0289 408.256 37.1918C407.306 36.3546 405.954 35.9361 404.199 35.9361C402.347 35.9361 400.874 36.3466 399.78 37.1676C398.685 37.9725 397.961 38.9867 397.606 40.2102L388.092 39.4375C388.575 37.1837 389.525 35.2358 390.942 33.5938C392.358 31.9356 394.186 30.6638 396.423 29.7784C398.677 28.8769 401.285 28.4261 404.247 28.4261C406.308 28.4261 408.28 28.6676 410.163 29.1506C412.063 29.6335 413.745 30.3821 415.21 31.3963C416.691 32.4105 417.858 33.7145 418.712 35.3082C419.565 36.8859 419.991 38.7775 419.991 40.983V66H410.236V60.8565H409.946C409.35 62.0156 408.553 63.0379 407.555 63.9233C406.557 64.7926 405.358 65.4768 403.957 65.9759C402.557 66.4588 400.939 66.7003 399.104 66.7003ZM402.05 59.6009C403.563 59.6009 404.899 59.303 406.058 58.7074C407.217 58.0956 408.127 57.2746 408.787 56.2443C409.447 55.214 409.777 54.0469 409.777 52.7429V48.8068C409.455 49.0161 409.012 49.2093 408.449 49.3864C407.901 49.5473 407.282 49.7003 406.589 49.8452C405.897 49.974 405.205 50.0947 404.513 50.2074C403.82 50.304 403.193 50.3925 402.629 50.473C401.422 50.6501 400.367 50.9318 399.466 51.3182C398.564 51.7045 397.864 52.2277 397.365 52.8878C396.866 53.5317 396.616 54.3366 396.616 55.3026C396.616 56.7031 397.124 57.7737 398.138 58.5142C399.168 59.2386 400.472 59.6009 402.05 59.6009ZM427.972 66V28.9091H437.776V35.4531H438.211C438.984 33.2798 440.271 31.5653 442.075 30.3097C443.878 29.054 446.035 28.4261 448.546 28.4261C451.09 28.4261 453.255 29.062 455.042 30.3338C456.829 31.5895 458.02 33.2959 458.616 35.4531H459.002C459.759 33.3281 461.127 31.6297 463.107 30.358C465.103 29.0701 467.462 28.4261 470.182 28.4261C473.644 28.4261 476.453 29.5289 478.61 31.7344C480.783 33.9238 481.87 37.0308 481.87 41.0554V66H471.607V43.0838C471.607 41.0232 471.06 39.4777 469.965 38.4474C468.87 37.4171 467.502 36.902 465.86 36.902C463.993 36.902 462.536 37.4976 461.489 38.6889C460.443 39.8641 459.92 41.4176 459.92 43.3494V66H449.947V42.8665C449.947 41.0473 449.423 39.5985 448.377 38.5199C447.347 37.4413 445.986 36.902 444.296 36.902C443.153 36.902 442.123 37.1918 441.205 37.7713C440.304 38.3348 439.587 39.1316 439.056 40.1619C438.525 41.1761 438.259 42.3674 438.259 43.7358V66H427.972ZM489.996 79.9091V28.9091H500.138V35.1392H500.597C501.047 34.1411 501.699 33.1269 502.552 32.0966C503.422 31.0502 504.549 30.1809 505.933 29.4886C507.334 28.7803 509.072 28.4261 511.149 28.4261C513.854 28.4261 516.349 29.1345 518.635 30.5511C520.921 31.9517 522.748 34.0687 524.116 36.902C525.485 39.7192 526.169 43.2528 526.169 47.5028C526.169 51.6402 525.501 55.1335 524.165 57.983C522.845 60.8163 521.042 62.9654 518.756 64.4304C516.486 65.8793 513.942 66.6037 511.125 66.6037C509.129 66.6037 507.43 66.2737 506.03 65.6136C504.645 64.9536 503.51 64.1245 502.625 63.1264C501.74 62.1122 501.063 61.09 500.597 60.0597H500.283V79.9091H489.996ZM500.065 47.4545C500.065 49.66 500.371 51.5838 500.983 53.2259C501.595 54.8679 502.48 56.1477 503.639 57.0653C504.798 57.9669 506.207 58.4176 507.865 58.4176C509.539 58.4176 510.956 57.9588 512.115 57.0412C513.274 56.1075 514.151 54.8196 514.747 53.1776C515.359 51.5194 515.665 49.6117 515.665 47.4545C515.665 45.3134 515.367 43.4299 514.771 41.804C514.176 40.178 513.298 38.9062 512.139 37.9886C510.98 37.071 509.555 36.6122 507.865 36.6122C506.191 36.6122 504.774 37.0549 503.615 37.9403C502.472 38.8258 501.595 40.0814 500.983 41.7074C500.371 43.3333 500.065 45.2491 500.065 47.4545ZM543.604 66.7003C541.237 66.7003 539.128 66.2898 537.277 65.4688C535.426 64.6316 533.961 63.4001 532.882 61.7741C531.82 60.1321 531.288 58.0876 531.288 55.6406C531.288 53.58 531.667 51.8494 532.423 50.4489C533.18 49.0483 534.21 47.9214 535.514 47.0682C536.818 46.215 538.299 45.571 539.957 45.1364C541.632 44.7017 543.386 44.3958 545.222 44.2188C547.379 43.9934 549.117 43.7841 550.437 43.5909C551.758 43.3816 552.715 43.0758 553.311 42.6733C553.907 42.2708 554.204 41.6752 554.204 40.8864V40.7415C554.204 39.2121 553.722 38.0289 552.756 37.1918C551.806 36.3546 550.454 35.9361 548.699 35.9361C546.847 35.9361 545.374 36.3466 544.28 37.1676C543.185 37.9725 542.461 38.9867 542.106 40.2102L532.592 39.4375C533.075 37.1837 534.025 35.2358 535.442 33.5938C536.858 31.9356 538.686 30.6638 540.923 29.7784C543.177 28.8769 545.785 28.4261 548.747 28.4261C550.808 28.4261 552.78 28.6676 554.663 29.1506C556.563 29.6335 558.245 30.3821 559.71 31.3963C561.191 32.4105 562.358 33.7145 563.212 35.3082C564.065 36.8859 564.491 38.7775 564.491 40.983V66H554.736V60.8565H554.446C553.85 62.0156 553.053 63.0379 552.055 63.9233C551.057 64.7926 549.858 65.4768 548.457 65.9759C547.057 66.4588 545.439 66.7003 543.604 66.7003ZM546.55 59.6009C548.063 59.6009 549.399 59.303 550.558 58.7074C551.717 58.0956 552.627 57.2746 553.287 56.2443C553.947 55.214 554.277 54.0469 554.277 52.7429V48.8068C553.955 49.0161 553.512 49.2093 552.949 49.3864C552.401 49.5473 551.782 49.7003 551.089 49.8452C550.397 49.974 549.705 50.0947 549.013 50.2074C548.32 50.304 547.693 50.3925 547.129 50.473C545.922 50.6501 544.867 50.9318 543.966 51.3182C543.064 51.7045 542.364 52.2277 541.865 52.8878C541.366 53.5317 541.116 54.3366 541.116 55.3026C541.116 56.7031 541.624 57.7737 542.638 58.5142C543.668 59.2386 544.972 59.6009 546.55 59.6009ZM572.472 66V28.9091H582.759V66H572.472ZM577.64 24.1278C576.11 24.1278 574.798 23.6207 573.704 22.6065C572.625 21.5762 572.086 20.3447 572.086 18.9119C572.086 17.4953 572.625 16.2798 573.704 15.2656C574.798 14.2353 576.11 13.7202 577.64 13.7202C579.169 13.7202 580.473 14.2353 581.552 15.2656C582.646 16.2798 583.194 17.4953 583.194 18.9119C583.194 20.3447 582.646 21.5762 581.552 22.6065C580.473 23.6207 579.169 24.1278 577.64 24.1278ZM607.71 80.6818C604.377 80.6818 601.52 80.223 599.137 79.3054C596.771 78.4039 594.887 77.1723 593.487 75.6108C592.086 74.0492 591.177 72.2945 590.758 70.3466L600.272 69.0668C600.562 69.8073 601.021 70.4995 601.649 71.1435C602.277 71.7874 603.106 72.3026 604.136 72.6889C605.182 73.0914 606.454 73.2926 607.951 73.2926C610.189 73.2926 612.032 72.7453 613.481 71.6506C614.946 70.572 615.679 68.7609 615.679 66.2173V59.4318H615.244C614.793 60.4621 614.117 61.4361 613.215 62.3537C612.314 63.2713 611.155 64.0199 609.738 64.5994C608.322 65.179 606.631 65.4688 604.667 65.4688C601.882 65.4688 599.347 64.8248 597.061 63.5369C594.791 62.233 592.98 60.2448 591.627 57.5724C590.291 54.884 589.623 51.4872 589.623 47.3821C589.623 43.1804 590.307 39.6709 591.676 36.8537C593.044 34.0365 594.863 31.9276 597.133 30.527C599.419 29.1264 601.922 28.4261 604.643 28.4261C606.72 28.4261 608.458 28.7803 609.859 29.4886C611.26 30.1809 612.386 31.0502 613.24 32.0966C614.109 33.1269 614.777 34.1411 615.244 35.1392H615.63V28.9091H625.845V66.3622C625.845 69.5175 625.072 72.1577 623.527 74.2827C621.981 76.4077 619.84 78.0014 617.103 79.0639C614.383 80.1425 611.251 80.6818 607.71 80.6818ZM607.927 57.7415C609.585 57.7415 610.986 57.331 612.129 56.5099C613.288 55.6728 614.173 54.4815 614.785 52.9361C615.413 51.3745 615.727 49.5071 615.727 47.3338C615.727 45.1605 615.421 43.277 614.809 41.6832C614.198 40.0734 613.312 38.8258 612.153 37.9403C610.994 37.0549 609.585 36.6122 607.927 36.6122C606.237 36.6122 604.812 37.071 603.653 37.9886C602.494 38.8902 601.617 40.1458 601.021 41.7557C600.425 43.3655 600.127 45.2249 600.127 47.3338C600.127 49.4749 600.425 51.3262 601.021 52.8878C601.633 54.4332 602.51 55.6326 603.653 56.4858C604.812 57.3229 606.237 57.7415 607.927 57.7415ZM644.318 44.5568V66H634.031V28.9091H643.835V35.4531H644.269C645.09 33.2959 646.467 31.5895 648.399 30.3338C650.331 29.062 652.673 28.4261 655.426 28.4261C658.001 28.4261 660.247 28.9896 662.163 30.1165C664.079 31.2434 665.568 32.8532 666.63 34.946C667.693 37.0227 668.224 39.5019 668.224 42.3835V66H657.937V44.2188C657.953 41.9489 657.374 40.178 656.198 38.9062C655.023 37.6184 653.405 36.9744 651.345 36.9744C649.96 36.9744 648.737 37.2723 647.674 37.8679C646.628 38.4635 645.807 39.3329 645.211 40.4759C644.632 41.6027 644.334 42.9631 644.318 44.5568ZM692.263 66V16.5455H711.774C715.525 16.5455 718.721 17.2618 721.361 18.6946C724.001 20.1113 726.014 22.0833 727.398 24.6108C728.799 27.1222 729.499 30.0199 729.499 33.304C729.499 36.5881 728.791 39.4858 727.374 41.9972C725.957 44.5085 723.905 46.4645 721.216 47.8651C718.544 49.2656 715.308 49.9659 711.509 49.9659H699.073V41.5866H709.818C711.831 41.5866 713.489 41.2405 714.793 40.5483C716.113 39.84 717.095 38.866 717.739 37.6264C718.399 36.3707 718.729 34.9299 718.729 33.304C718.729 31.6619 718.399 30.2292 717.739 29.0057C717.095 27.7661 716.113 26.8082 714.793 26.1321C713.473 25.4399 711.799 25.0938 709.77 25.0938H702.719V66H692.263ZM736.097 66V28.9091H746.07V35.3807H746.457C747.133 33.0786 748.268 31.34 749.861 30.1648C751.455 28.9735 753.29 28.3778 755.367 28.3778C755.882 28.3778 756.438 28.41 757.033 28.4744C757.629 28.5388 758.152 28.6274 758.603 28.7401V37.8679C758.12 37.723 757.452 37.5942 756.599 37.4815C755.745 37.3688 754.965 37.3125 754.256 37.3125C752.743 37.3125 751.391 37.6425 750.2 38.3026C749.024 38.9465 748.091 39.848 747.398 41.0071C746.722 42.1662 746.384 43.5024 746.384 45.0156V66H736.097ZM778.953 66.7244C775.202 66.7244 771.959 65.9276 769.222 64.3338C766.501 62.724 764.4 60.4863 762.919 57.6207C761.438 54.7391 760.698 51.3987 760.698 47.5994C760.698 43.768 761.438 40.4195 762.919 37.554C764.4 34.6723 766.501 32.4347 769.222 30.8409C771.959 29.2311 775.202 28.4261 778.953 28.4261C782.704 28.4261 785.94 29.2311 788.661 30.8409C791.398 32.4347 793.506 34.6723 794.988 37.554C796.469 40.4195 797.209 43.768 797.209 47.5994C797.209 51.3987 796.469 54.7391 794.988 57.6207C793.506 60.4863 791.398 62.724 788.661 64.3338C785.94 65.9276 782.704 66.7244 778.953 66.7244ZM779.002 58.7557C780.708 58.7557 782.133 58.2727 783.276 57.3068C784.419 56.3248 785.28 54.9886 785.86 53.2983C786.455 51.608 786.753 49.6842 786.753 47.527C786.753 45.3698 786.455 43.446 785.86 41.7557C785.28 40.0653 784.419 38.7292 783.276 37.7472C782.133 36.7652 780.708 36.2741 779.002 36.2741C777.279 36.2741 775.83 36.7652 774.655 37.7472C773.496 38.7292 772.619 40.0653 772.023 41.7557C771.443 43.446 771.154 45.3698 771.154 47.527C771.154 49.6842 771.443 51.608 772.023 53.2983C772.619 54.9886 773.496 56.3248 774.655 57.3068C775.83 58.2727 777.279 58.7557 779.002 58.7557ZM820.657 66.7244C816.857 66.7244 813.589 65.9195 810.853 64.3097C808.132 62.6837 806.039 60.4299 804.574 57.5483C803.125 54.6667 802.401 51.3504 802.401 47.5994C802.401 43.8002 803.133 40.4678 804.598 37.6023C806.079 34.7206 808.18 32.4749 810.901 30.8651C813.622 29.2391 816.857 28.4261 820.608 28.4261C823.844 28.4261 826.677 29.0137 829.108 30.1889C831.539 31.3641 833.463 33.0142 834.88 35.1392C836.296 37.2642 837.077 39.7595 837.222 42.625H827.514C827.241 40.7737 826.516 39.2846 825.341 38.1577C824.182 37.0147 822.661 36.4432 820.777 36.4432C819.184 36.4432 817.791 36.8778 816.6 37.7472C815.425 38.6004 814.507 39.848 813.847 41.4901C813.187 43.1321 812.857 45.1203 812.857 47.4545C812.857 49.821 813.179 51.8333 813.823 53.4915C814.483 55.1496 815.408 56.4134 816.6 57.2827C817.791 58.152 819.184 58.5866 820.777 58.5866C821.952 58.5866 823.007 58.3452 823.941 57.8622C824.89 57.3793 825.671 56.679 826.283 55.7614C826.911 54.8277 827.321 53.7088 827.514 52.4048H837.222C837.061 55.2382 836.288 57.7334 834.904 59.8906C833.535 62.0317 831.644 63.706 829.229 64.9134C826.814 66.1207 823.957 66.7244 820.657 66.7244ZM860.712 66.7244C856.896 66.7244 853.612 65.9517 850.859 64.4062C848.123 62.8447 846.014 60.6392 844.533 57.7898C843.052 54.9242 842.311 51.5355 842.311 47.6236C842.311 43.8082 843.052 40.4598 844.533 37.5781C846.014 34.6965 848.098 32.4508 850.787 30.8409C853.491 29.2311 856.663 28.4261 860.301 28.4261C862.748 28.4261 865.026 28.8205 867.135 29.6094C869.26 30.3821 871.111 31.5492 872.689 33.1108C874.283 34.6723 875.522 36.6364 876.408 39.0028C877.293 41.3532 877.736 44.1061 877.736 47.2614V50.0866H846.416V43.7116H868.052C868.052 42.2306 867.731 40.9186 867.087 39.7756C866.443 38.6326 865.549 37.7391 864.406 37.0952C863.279 36.4351 861.967 36.1051 860.47 36.1051C858.909 36.1051 857.524 36.4673 856.317 37.1918C855.125 37.9001 854.192 38.858 853.516 40.0653C852.839 41.2566 852.493 42.5848 852.477 44.0497V50.1108C852.477 51.946 852.815 53.5317 853.491 54.8679C854.184 56.2041 855.158 57.2344 856.413 57.9588C857.669 58.6832 859.158 59.0455 860.881 59.0455C862.024 59.0455 863.07 58.8845 864.02 58.5625C864.97 58.2405 865.783 57.7576 866.459 57.1136C867.135 56.4697 867.65 55.6809 868.004 54.7472L877.518 55.375C877.035 57.661 876.045 59.6572 874.548 61.3636C873.067 63.054 871.151 64.3741 868.801 65.3239C866.467 66.2576 863.77 66.7244 860.712 66.7244ZM915.31 39.4858L905.892 40.0653C905.731 39.2604 905.385 38.536 904.854 37.892C904.322 37.232 903.622 36.7088 902.753 36.3224C901.9 35.92 900.877 35.7188 899.686 35.7188C898.092 35.7188 896.748 36.0568 895.653 36.733C894.559 37.393 894.011 38.2784 894.011 39.3892C894.011 40.2746 894.365 41.0232 895.074 41.6349C895.782 42.2467 896.998 42.7377 898.72 43.108L905.433 44.4602C909.039 45.2008 911.728 46.392 913.499 48.0341C915.269 49.6761 916.155 51.8333 916.155 54.5057C916.155 56.9366 915.438 59.0696 914.006 60.9048C912.589 62.7401 910.641 64.1728 908.162 65.2031C905.699 66.2173 902.857 66.7244 899.638 66.7244C894.728 66.7244 890.816 65.7022 887.902 63.6577C885.004 61.5971 883.306 58.7959 882.807 55.2543L892.925 54.723C893.231 56.2202 893.971 57.3632 895.146 58.152C896.321 58.9247 897.827 59.3111 899.662 59.3111C901.465 59.3111 902.914 58.965 904.008 58.2727C905.119 57.5644 905.683 56.6548 905.699 55.544C905.683 54.6103 905.288 53.8456 904.516 53.25C903.743 52.6383 902.552 52.1714 900.942 51.8494L894.518 50.5696C890.896 49.8452 888.2 48.5895 886.429 46.8026C884.674 45.0156 883.797 42.7377 883.797 39.9688C883.797 37.5862 884.441 35.5336 885.729 33.8111C887.033 32.0885 888.86 30.7604 891.21 29.8267C893.577 28.893 896.346 28.4261 899.517 28.4261C904.202 28.4261 907.888 29.4162 910.577 31.3963C913.281 33.3764 914.859 36.0729 915.31 39.4858ZM953.493 39.4858L944.076 40.0653C943.915 39.2604 943.568 38.536 943.037 37.892C942.506 37.232 941.806 36.7088 940.936 36.3224C940.083 35.92 939.061 35.7188 937.87 35.7188C936.276 35.7188 934.932 36.0568 933.837 36.733C932.742 37.393 932.195 38.2784 932.195 39.3892C932.195 40.2746 932.549 41.0232 933.257 41.6349C933.966 42.2467 935.181 42.7377 936.904 43.108L943.617 44.4602C947.223 45.2008 949.911 46.392 951.682 48.0341C953.453 49.6761 954.338 51.8333 954.338 54.5057C954.338 56.9366 953.622 59.0696 952.189 60.9048C950.773 62.7401 948.825 64.1728 946.345 65.2031C943.882 66.2173 941.041 66.7244 937.821 66.7244C932.911 66.7244 928.999 65.7022 926.086 63.6577C923.188 61.5971 921.489 58.7959 920.99 55.2543L931.108 54.723C931.414 56.2202 932.155 57.3632 933.33 58.152C934.505 58.9247 936.01 59.3111 937.845 59.3111C939.648 59.3111 941.097 58.965 942.192 58.2727C943.303 57.5644 943.866 56.6548 943.882 55.544C943.866 54.6103 943.472 53.8456 942.699 53.25C941.926 52.6383 940.735 52.1714 939.125 51.8494L932.702 50.5696C929.08 49.8452 926.383 48.5895 924.613 46.8026C922.858 45.0156 921.98 42.7377 921.98 39.9688C921.98 37.5862 922.624 35.5336 923.912 33.8111C925.216 32.0885 927.043 30.7604 929.394 29.8267C931.76 28.893 934.529 28.4261 937.701 28.4261C942.385 28.4261 946.072 29.4162 948.76 31.3963C951.465 33.3764 953.042 36.0729 953.493 39.4858Z" fill="#00D563"/>
<defs>
<clipPath id="clip0_48_184">
<rect width="62" height="464" fill="white" transform="translate(0 249)"/>
</clipPath>
</defs>
</svg>
